/* XPM */
static const char *scummvm_icon[] = {
/* columns rows colors chars-per-pixel */
"32 32 91 1",
"  c #070905",
". c #0A0D09",
"X c #0F110E",
"o c #12140A",
"O c #161A0C",
"+ c #1B1F0B",
"@ c #141911",
"# c #181711",
"$ c #1D1D17",
"% c #1C260E",
"& c #242F0D",
"* c #202715",
"= c #24241D",
"- c #26350A",
"; c #293A08",
": c #333E0A",
"> c #343C19",
", c #303127",
"< c #3D3C32",
"1 c #284006",
"2 c #324F03",
"3 c #35480B",
"4 c #3B5E03",
"5 c #384329",
"6 c #455810",
"7 c #404E28",
"8 c #495922",
"9 c #4C680C",
"0 c #4A7904",
"q c #4F7F00",
"w c #56750D",
"e c #5A6831",
"r c #657B3F",
"t c #667B4E",
"y c #4C8704",
"u c #558F04",
"i c #5B8904",
"p c #5D9903",
"a c #688D00",
"s c #66821B",
"d c #649707",
"f c #669E00",
"g c #67951B",
"h c #779402",
"j c #779F03",
"k c #71990C",
"l c #748F3F",
"z c #7D9233",
"x c #6BA909",
"c c #71A30E",
"v c #78A800",
"b c #77B219",
"n c #7FAA3A",
"m c #7DB72F",
"M c #7D9654",
"N c #7FC700",
"B c #8AA607",
"V c #89AD1E",
"C c #80B907",
"Z c #88B407",
"A c #8ABF00",
"S c #90AC10",
"D c #92B306",
"F c #90BE00",
"G c #97BE02",
"H c #9EBE07",
"J c #84BC29",
"K c #91BD28",
"L c #9EBF25",
"P c #9EBA3E",
"I c #A5BD0C",
"U c #87A449",
"Y c #8DBE47",
"T c #98BF5E",
"R c #9EBA5A",
"E c #95B667",
"W c #A2B756",
"Q c #91CC00",
"! c #9BCE0A",
"~ c #95C01B",
"^ c #8EC03A",
"/ c #93E30E",
"( c #A1C714",
") c #A2C525",
"_ c #AACB3B",
"` c #A8E932",
"' c #AED341",
"] c #AFD769",
"[ c #A6E041",
"{ c #AEE45D",
"} c None",
/* pixels */
"}}}}}}}}}}}}}}####$}}}}}}}}}}}}}",
"}}}}}}}}}}#           $}}}}}}}}}",
"}}}}}}}}X    .   .  .   X}}}}}}}",
"}}}}}}}       . X ..   .  $}}}}}",
"}}}}}}.  .@5tMERRWUMe>@X.  #<}}}",
"}}}}}X   5M]{''______Ps3+.X .X}}",
"}}}}}  X5U{')(LI)L))_PVkq-X  X}}",
"}}}}X  OU{[HCZDSSIILZVhvNx%XXX}}",
"}}}}. .7[[(DZBjhkBBBBakb/i@X X}}",
"}}}} .on`!A~DBjvkahaakcCN-XXXX}}",
"}}}$  oJ`!FZ~DCNw:>:9sCNw#XXX}}}",
"}}}$  @N/(GFGGCA9O #+:ig-XXX}}}}",
"}}}}  #b/QA~HHG(Bs6&#X&-@XX}}}}}",
"}}}}. .q/!GAGLIF)IPWz8+XXXXX}}}}",
"}}}}XX.-b!ZGGHHL)~)___k6O# X}}}}",
"}}}}$  @4VDD~GLIHF~L_LKK9@XX}}}}",
"}}}}}X  O6kBvFD))~)L)LSZZ3XXX}}}",
"}}}}}X X.@&wvVZZCL~)KKcjCa+XX}}}",
"}}}}}X X$#X#-wcvbJKCCJfgdc&XX}}}",
"}}}}X .=te*XXX&9cJJJJvcuiu1XX}}}",
"}}}}X .5ETl7=@XXe^mKmfgqqq1XXX}}",
"}}}X .XMT]Ymle55rYKmxuy00q&XXX}}",
"}}}   OnYJJJYYTTnmmbci00qq%XXX}}",
"}}}  X4fxbbbbmbmmmcggqq0q4OXXX}}",
"}}}  .1qppcfxxccpppyq00y0&XXX}}}",
"}}}   X-4qyuuuuuyy0yq0q03#X  }}}",
"}}}X    O-400qqq0q00004-oXXX}}}}",
"}}}}.      &124494221&@ .  <}}}}",
"}}}}}}      ..@OO%@X. . .X,}}}}}",
"}}}}}}}#       .       .#,}}}}}}",
"}}}}}}}}}}$X         X$=}}}}}}}}",
"}}}}}}}}}}}}}=$$$$==}}}}}}}}}}}}"
};
