#define flags_width 24
#define flags_height 8
static const unsigned char flags_bits[] = {
 0x00,0x00,0x18,0x00,0x00,0x0c,0x00,0x03,0x07,0x01,0x3f,0x01,0x07,0x03,0x00,
 0x0c,0x00,0x00,0x18,0x00,0x00,0x00,0x00,0x00};
