/* XPM */
static char *residual[] = {
/* columns rows colors chars-per-pixel */
"32 32 236 2",
"   c #000000",
".  c #060803",
"X  c #0A0F03",
"o  c #0B0B0B",
"O  c #0C1304",
"+  c #0E100C",
"@  c #0F1804",
"#  c #12160D",
"$  c #121C07",
"%  c #131313",
"&  c #171A13",
"*  c #1A1D16",
"=  c #1C1C1C",
"-  c #172307",
";  c #172309",
":  c #1B270D",
">  c #1D2C0A",
",  c #1F221A",
"<  c #1F310C",
"1  c #202F0C",
"2  c #20251C",
"3  c #262A1F",
"4  c #263B0F",
"5  c #263A10",
"6  c #28301E",
"7  c #2E3E1E",
"8  c #232323",
"9  c #272D21",
"0  c #2D2E2C",
"q  c #2C3523",
"w  c #2F3D24",
"e  c #32362A",
"r  c #313F22",
"t  c #32392B",
"y  c #363636",
"u  c #383838",
"i  c #344A13",
"p  c #3A4B1F",
"a  c #3C5B1A",
"s  c #3D4733",
"d  c #405916",
"f  c #415A19",
"g  c #424837",
"h  c #4A5A3B",
"j  c #515B3F",
"k  c #436115",
"l  c #446619",
"z  c #4D671C",
"x  c #4E701C",
"c  c #4A632F",
"v  c #4D7423",
"b  c #51732A",
"n  c #547C24",
"m  c #404040",
"M  c #4A4A4A",
"N  c #555D47",
"B  c #535353",
"V  c #5D5D5D",
"C  c #5A6E46",
"Z  c #5D6253",
"A  c #697E58",
"S  c #707C58",
"D  c #646464",
"F  c #6A6A6A",
"G  c #6D7660",
"H  c #717171",
"J  c #7C7C7C",
"K  c #568324",
"L  c #5C8D26",
"P  c #5D8F2A",
"I  c #5C8638",
"U  c #628D24",
"Y  c #608931",
"T  c #679026",
"R  c #649229",
"E  c #64982C",
"W  c #69952A",
"Q  c #6C9F26",
"!  c #6B9A2C",
"~  c #739A2A",
"^  c #739D30",
"/  c #6DA12E",
"(  c #6EA331",
")  c #74A42D",
"_  c #79A12D",
"`  c #7BAB2A",
"'  c #74A530",
"]  c #74A931",
"[  c #7BA634",
"{  c #7CAB33",
"}  c #7DB335",
"|  c #6C8747",
" . c #74875B",
".. c #79955E",
"X. c #7D846F",
"o. c #7E9569",
"O. c #81AB31",
"+. c #85B22D",
"@. c #86B82F",
"#. c #8ABD2E",
"$. c #85B435",
"%. c #86B03A",
"&. c #85BA36",
"*. c #86B839",
"=. c #8BBC36",
"-. c #8DBC39",
";. c #92BE37",
":. c #828B75",
">. c #8A9771",
",. c #8A957A",
"<. c #8F987C",
"1. c #82A44B",
"2. c #96BE55",
"3. c #8DA36D",
"4. c #8BA572",
"5. c #8CAF70",
"6. c #97A47D",
"7. c #9AB768",
"8. c #A4BF7F",
"9. c #88C12A",
"0. c #8EC037",
"q. c #8CC039",
"w. c #8ED13C",
"e. c #95C436",
"r. c #94C43A",
"t. c #95CB35",
"y. c #94CA3A",
"u. c #99C636",
"i. c #9AC53A",
"p. c #9ACC36",
"a. c #9CCC3B",
"s. c #93D23B",
"d. c #90D83F",
"f. c #9CD33C",
"g. c #9BDA33",
"h. c #9BDA3D",
"j. c #9CE13F",
"k. c #A2CD3A",
"l. c #A3D037",
"z. c #A3D43B",
"x. c #A2DC3E",
"c. c #ABDB3D",
"v. c #B3DE3D",
"b. c #AEE03C",
"n. c #B5E53F",
"m. c #8EC74A",
"M. c #8AC356",
"N. c #9BC744",
"B. c #9DCA45",
"V. c #9AC84C",
"C. c #97C55F",
"Z. c #98C956",
"A. c #95D246",
"S. c #95DC40",
"D. c #9BD341",
"F. c #9ADE40",
"G. c #9AD253",
"H. c #9FD95D",
"J. c #9FCB6B",
"K. c #9CD661",
"L. c #97E246",
"P. c #9CE242",
"I. c #9FE74B",
"U. c #9FE056",
"Y. c #A1CC4C",
"T. c #A6CC5E",
"R. c #A0D540",
"E. c #A5D44F",
"W. c #A4DD40",
"Q. c #A3DC4B",
"!. c #AAD948",
"~. c #ABDC52",
"^. c #AADA5C",
"/. c #B6DE4D",
"(. c #BADE42",
"). c #A5CF62",
"_. c #A5CA6A",
"`. c #A6C376",
"'. c #A6C17C",
"]. c #A0C97D",
"[. c #AECB7E",
"{. c #AADF6F",
"}. c #A5D170",
"|. c #ABD675",
" X c #B6D47A",
".X c #A4E542",
"XX c #A3E44C",
"oX c #A5E943",
"OX c #AEE541",
"+X c #ABE05C",
"@X c #B4E341",
"#X c #B5E24A",
"$X c #B3EB44",
"%X c #B5ED49",
"&X c #B9E443",
"*X c #BEE34A",
"=X c #BAEA41",
"-X c #B9EC48",
";X c #B3E258",
":X c #B8E355",
">X c #BBF045",
",X c #C0E545",
"<X c #C2E943",
"1X c #C4E459",
"2X c #C5E377",
"3X c #C9E47F",
"4X c #848484",
"5X c #8B8B8B",
"6X c #929292",
"7X c #999999",
"8X c #A6BE8C",
"9X c #A4A4A4",
"0X c #ABABAB",
"qX c #B5B5B5",
"wX c #B9B9B9",
"eX c #A4C183",
"rX c #AFC683",
"tX c #ADC48A",
"yX c #ACD180",
"uX c #AFD880",
"iX c #B7CF84",
"pX c #BDDA88",
"aX c #BFE183",
"sX c #C3DF82",
"dX c #C5D3AA",
"fX c #C6E68A",
"gX c #C8E481",
"hX c #CEE488",
"jX c #CFE984",
"kX c #CAE895",
"lX c #D0E495",
"zX c #D1E4AB",
"xX c #C8C8C8",
"cX c #EAEAEA",
"vX c #FFFFFF",
"bX c None",
/* pixels */
"bXbXbXbXbXbX                              bXbXbXbXbXbXbXbXbXbXbX",
"bXbXbXbXbX                                    bXbXbXbXbXbXbXbXbX",
"bXbXbXbX              . .                         bXbXbXbXbXbXbX",
"bXbXbX        . q Z X.5X6.6.>.S N q #               bXbXbXbXbXbX",
"bXbXbX      % :.dXzXlXhX3XjXjXgX3X X7.| p @           bXbXbXbXbX",
"bXbXbX      G zX2X1X,X(.(.,X<X&X(.@X/.~.Y.^ i .       % bXbXbXbX",
"bXbXbX      ,.kX,X<X&Xv.v.&Xn.@X$X=Xn.c.l.a.;.z .     = xXbXbXbX",
"bXbXbX      G fX-X>X=X@X&X&Xb.c.@X$X@XW.c.z.i.-.f     o B bXbXbX",
"bXbXbX      N aX%X>X$X@X@Xz.u.e.f.x.OXW.F.W.R.r.) 1     y qXbXbX",
"bXbXbX      g pX#Xn.$Xb.l.` x d U y.W.F.W.oXoXf.$.x     8 4XbXbX",
"bXbXbX      e iX@Xv.b.z.#.k     O Y A.f.h.oXoXg.@.W $   % H vXbX",
"bXbXbX      3 rX/.v.c.t.` -       7 Z.f.h.F.j.g.9.) >   + D wXbX",
"bXbXbX      , tX:Xc.l.p.Q O       6 _.!.h.h.j.g.#.) :   o D 0XbX",
"bXbXbX      * tX:Xc.l.l.) $       s |.XXP.h.h.t.{ U $   % F 0XbX",
"bXbXbX      & 8X^.z.k.c.B.c     + o.{.I.P.j.s.&.) l .   8 J 9XbX",
"bXbXbX      & 8X^.f.a.c.!.J...A 4.|.U.L.L.j.t.} R -     M 6XbXbX",
"bXbXbX      & eX+Xz.a.z.x.D.G.H.).I.F.S.S.w.&.( 4     = H 7XbXbX",
"bXbXbX      , '.E.z.a.a.z.z.t.t.s.h.D.S.w.=.' i     o B 6XbXbXbX",
"bXbXbX      2 '.Y.f.f.a.z.p.u.u.t.p.a.h.d.&.n .   . m 4X6XbXbXbX",
"bXbXbX      9 `.N.i.i.i.t.y.u.u.u.i.y.y.w.} v     o V 9XbXbXbXbX",
"bXbXbX      t rXN.i.u.e.e.r.i.e.e.k.u.y.y.&.( 5     o M vXbXbXbX",
"bXbXbX      s yXB.p.u.u.i.;.+.+.=.;.-.y.y.r.*.W ;     = F bXbXbX",
"bXbXbX      N }.i.i.i.r.;.~ l k W -.-.r.t.e.e.$.n O     0 vXbXbX",
"bXbXbX      C ).i.i.i.r.O.i     > 1.V.r.e.-.-.$.] a     % J bXbX",
"bXbXbX.     X.T.r.i.i.-.W $       h J.y.;.=.-.*.} ! $   o B bXbX",
"bXbXvXo   . 3.T.m.r.r.*.W $       q eXm.=.*.$.$.{ ( 5   . M vXbX",
"bXbX7X+   o 3.2.%.[ [ ^ R <       # 5.M.} ] ' / E E 5   . B xXbX",
"bXbXwX=     r v n n n n l $         t I P L L L K l O   o V qXbX",
"bXbXvXu .       . X O O .             . X O O @ O       8 J 9XbX",
"bXbXbXJ y o                   8 8                     % V 6XbXbX",
"bXbXbX9X4XV y = % o . o + 8 M J H u , % o o . o o % 0 D 5X5XbXbX",
"bXbXbXbX6X6X5XJ F F D F H J 5X5X7X5XJ H F D D D D H 4X5X5XbXbXbX"
};
