/* XPM */
static char * residual_icon[] = {
"32 32 83 1",
" 	c None",
".	c #010200",
"+	c #131205",
"@	c #282826",
"#	c #585858",
"$	c #948E78",
"%	c #A89E72",
"&	c #959595",
"*	c #7D7859",
"=	c #5D5847",
"-	c #393723",
";	c #1B1809",
">	c #181816",
",	c #D3C8AB",
"'	c #E4D5AC",
")	c #E6CE96",
"!	c #E7C585",
"~	c #E3BF7B",
"{	c #D3BF6F",
"]	c #DFC283",
"^	c #947D2C",
"/	c #4A4016",
"(	c #767260",
"_	c #E7AA49",
":	c #E5B245",
"<	c #DEA646",
"[	c #E5BD53",
"}	c #DBBA55",
"|	c #C9A545",
"1	c #AA9232",
"2	c #DEA73E",
"3	c #E4B040",
"4	c #E0AC3C",
"5	c #D9B547",
"6	c #CD9F3B",
"7	c #BF9737",
"8	c #655619",
"9	c #E1CA83",
"0	c #5A4B18",
"a	c #E6C244",
"b	c #D8AA3C",
"c	c #C7A039",
"d	c #C2A02A",
"e	c #D7B43B",
"f	c #E1C43F",
"g	c #A68B2C",
"h	c #322D14",
"i	c #56523C",
"j	c #D4C284",
"k	c #705F1C",
"l	c #96832A",
"m	c #D1BA3D",
"n	c #D9BE43",
"o	c #B8962E",
"p	c #363636",
"q	c #8B7E27",
"r	c #C3B787",
"s	c #28230A",
"t	c #CBB957",
"u	c #E2C644",
"v	c #2B2813",
"w	c #474533",
"x	c #C6B97C",
"y	c #AB8A31",
"z	c #BEB78C",
"A	c #6B6329",
"B	c #8E896C",
"C	c #8C8456",
"D	c #E0CE56",
"E	c #B39D35",
"F	c #A29030",
"G	c #393417",
"H	c #BFB27F",
"I	c #C09E38",
"J	c #B99937",
"K	c #3A3728",
"L	c #7B6E25",
"M	c #68644C",
"N	c #CCAC58",
"O	c #B19C51",
"P	c #5C531A",
"Q	c #D1C367",
"R	c #868038",
"          ........              ",
"       ..............           ",
"     ........+.........         ",
"    ....@#$$%&$*=-;......       ",
"   ...>$,')!~~!~{]%^/;.....     ",
"   ...('~__:___:<:[}|1/.....    ",
"   ...$)___22_33:3345678....    ",
"   ...(9:_32:344:::466|70....   ",
"   ...=9:::a3bcdebabffbcgh...   ",
"   ...ij::3:6gk0lm4nf4feok...   ",
"   ...pj:34bo8..+qneb44fol+..   ",
"   ...@r<4bcgs...-teeufeogs..   ",
"   ...vr[2bcg+...h{5eeueogv..   ",
"   ...>r[b66g+...wxaaeemyq;..   ",
"   ...>z}b6b|A..;B{aufmd18...   ",
"   ...>r}|c25tBC%jDuunmEqs..    ",
"   ...>x}bc65e|5DDnmnmEFG...    ",
"   ...>H56ee6eecnnefmI1/...     ",
"   ...vH|5e666ccccmemJq...      ",
"   ...@x|ccccccccccmmEk...      ",
"   ...Kx|c67ccc7c6cccJFh...     ",
"   ...wj|c7cc7yoo7JceIJ^s...    ",
"   ...={|cc67^88lJJccc7JL+...   ",
"   ...MN7677y/..vO|cIIJJFP...   ",
"   ...C{cc|J^;...iQI7JJJEl;..   ",
"   ...%NcO7J^s...GztJJJyEFG..   ",
"   ..+%OJ11Fqh...;%tE11Fllh..   ",
"   ...KLLLLL8;....KRlqqqq8+..   ",
"    .....+>+........+++++....   ",
"     .......................    ",
"      ........    ........      ",
"                                "};
