/* XPM */
static char *residual_icon[] = {
/* columns rows colors chars-per-pixel */
"32 32 92 1",
"  c #000100",
". c #0C1305",
"X c #121A09",
"o c #171816",
"O c #1A270A",
"+ c #1F2A13",
"@ c #293817",
"# c #243114",
"$ c #272826",
"% c #2D3823",
"& c #323A28",
"* c #363636",
"= c #354A16",
"- c #3C5B1A",
"; c #3D4733",
": c #405918",
"> c #4A563B",
", c #456519",
"< c #4E701C",
"1 c #547B25",
"2 c #4B6B29",
"3 c #494949",
"4 c #585858",
"5 c #555D47",
"6 c #5B684C",
"7 c #6C7D58",
"8 c #666666",
"9 c #777777",
"0 c #6D7660",
"q c #5B8A27",
"w c #5C8638",
"e c #67962A",
"r c #6A932C",
"t c #77A62C",
"y c #79A932",
"u c #7DB335",
"i c #6EA230",
"p c #738C55",
"a c #7D8D6C",
"s c #87B82E",
"d c #89B937",
"f c #92BE37",
"g c #81AB31",
"h c #899477",
"j c #8CB150",
"k c #91A872",
"l c #A4BF7F",
"z c #8DC038",
"x c #8ED13C",
"c c #97C739",
"v c #9AD73B",
"b c #88C12A",
"n c #9CE13F",
"m c #A2CD3A",
"M c #A5D83C",
"N c #B3DE3D",
"B c #B5E53F",
"V c #AEE03C",
"C c #9CC945",
"Z c #97D942",
"A c #95CB56",
"S c #9ED166",
"D c #9CE243",
"F c #9FE056",
"G c #A4D947",
"H c #AADB55",
"J c #B9DE46",
"K c #A4CC58",
"L c #A6C67C",
"P c #AAD36F",
"I c #A7E643",
"U c #B7E544",
"Y c #B4E553",
"T c #C2E749",
"R c #C7E37B",
"E c #898989",
"W c #959595",
"Q c #A6A6A6",
"! c #B7B7B7",
"~ c #A6BE8C",
"^ c #AAC386",
"/ c #B4D483",
"( c #BFE183",
") c #C3DF82",
"_ c #CCE785",
"` c #CDE695",
"' c #D1E4AB",
"] c #C5D3AA",
"[ c #C8C8C8",
"{ c #FFFFFF",
"} c #EAEAEA",
"| c None",
/* pixels */
"||||||               |||||||||||",
"|||||                  |||||||||",
"||||         .           |||||||",
"|||     $4hhkWh75%X       ||||||",
"|||   oh]'`_RR_RP)kr=X     |||||",
"|||   0'RTTUTTTUJUYHCy=    o||||",
"|||   h`TTTNNTBBUBBVGmf,   o[|||",
"|||   0(UTBNUBVVUUUVmmCf:  .4|||",
"|||   5(UUUIBMcbvMIMnnMct#  *!||",
"|||   >/UUBUmt<:exVZnVnvs<  $E||",
"|||   */UBVMs,  .qZvMVVnse. o9{|",
"|||   $^JVMctO   %AvvDnvstO .8!|",
"|||   +^YNMct.   #PGvvDvst+  8!|",
"|||   o^YMmmt.   ;LIIvvxgqX o8Q|",
"|||   o~HMmMC2  XaPIDnxby,  $9Q|",
"|||   o^HCcNGAapk/FDDZxuqO  3W||",
"|||   oLHMcmGvCGFFZxZxui@  o9W||",
"|||   olGmvvmvvcZZvnxzy=   4W|||",
"|||   +lCGvmmmccccxvxdq   3EW|||",
"|||   $LCccccccccccxxu<  .4Q||||",
"|||   &LCcmfcccfcmcccdi#  o3{|||",
"|||   ;/CcfccfgssfdcvzdrO  o9|||",
"|||   5PCccmfr,,eddcccfd1.  ${||",
"|||   6Kfmffg=  +jCczzddi-  o9||",
"|||   pPccCdrX   >SzfdddueX .4||",
"||{o  kKcjfdrO   @~Adddgui@  3{|",
"||W. .kjdyyiq#   XkAuyyiee# .3[|",
"||!o  &11111,X    &weqqqq,. .4!|",
"||{*     .o.        .....   $9Q|",
"|||9*.         $$          o4W||",
"|||WE4*o. . o$399*$.o . .o$8EE||",
"||||EWEE988899EEWEE8888489EWE|||"
};
