<?xml version="1.0" encoding="UTF-8" standalone="no"?>
<!-- Generator: Adobe Illustrator 12.0.1, SVG Export Plug-In  -->
<svg
   xmlns:dc="http://purl.org/dc/elements/1.1/"
   xmlns:cc="http://creativecommons.org/ns#"
   xmlns:rdf="http://www.w3.org/1999/02/22-rdf-syntax-ns#"
   xmlns:svg="http://www.w3.org/2000/svg"
   xmlns="http://www.w3.org/2000/svg"
   xmlns:xlink="http://www.w3.org/1999/xlink"
   xmlns:sodipodi="http://sodipodi.sourceforge.net/DTD/sodipodi-0.dtd"
   xmlns:inkscape="http://www.inkscape.org/namespaces/inkscape"
   version="1.0"
   width="256"
   height="256"
   viewBox="9 26.110352 256 256"
   enable-background="new 9 26.1103516 256 256"
   xml:space="preserve"
   id="svg2"
   sodipodi:version="0.32"
   inkscape:version="0.46"
   sodipodi:docname="residual.svg"
   sodipodi:docbase="/home/jvprat/Desktop"
   inkscape:output_extension="org.inkscape.output.svg.inkscape"
   style="display:inline"><metadata
   id="metadata21"><rdf:RDF><cc:Work
       rdf:about=""><dc:format>image/svg+xml</dc:format><dc:type
         rdf:resource="http://purl.org/dc/dcmitype/StillImage" /></cc:Work></rdf:RDF></metadata><sodipodi:namedview
   inkscape:window-height="701"
   inkscape:window-width="1280"
   inkscape:pageshadow="2"
   inkscape:pageopacity="0.0"
   guidetolerance="10.0"
   gridtolerance="10.0"
   objecttolerance="10.0"
   borderopacity="1.0"
   bordercolor="#666666"
   pagecolor="#ffffff"
   id="base"
   inkscape:zoom="1.9453125"
   inkscape:cx="110.23811"
   inkscape:cy="127.16054"
   inkscape:window-x="-8"
   inkscape:window-y="22"
   inkscape:current-layer="layer5"
   showgrid="false"><inkscape:grid
     type="xygrid"
     id="grid2783" /></sodipodi:namedview>
<defs
   id="defs4"><linearGradient
   id="linearGradient4134"><stop
     id="stop4146"
     offset="0"
     style="stop-color:#538e00;stop-opacity:0.12156863;" /><stop
     style="stop-color:#538e00;stop-opacity:0;"
     offset="1"
     id="stop4138" /></linearGradient><inkscape:perspective
   sodipodi:type="inkscape:persp3d"
   inkscape:vp_x="0 : 128 : 1"
   inkscape:vp_y="0 : 1000 : 0"
   inkscape:vp_z="256 : 128 : 1"
   inkscape:persp3d-origin="128 : 85.333333 : 1"
   id="perspective2514" />

	

		
	
	
		
<linearGradient
   inkscape:collect="always"
   xlink:href="#linearGradient4134"
   id="linearGradient4140"
   x1="59.375"
   y1="151.5291"
   x2="218.12846"
   y2="151.5291"
   gradientUnits="userSpaceOnUse" /><inkscape:perspective
   id="perspective2483"
   inkscape:persp3d-origin="372.04724 : 350.78739 : 1"
   inkscape:vp_z="744.09448 : 526.18109 : 1"
   inkscape:vp_y="0 : 1000 : 0"
   inkscape:vp_x="0 : 526.18109 : 1"
   sodipodi:type="inkscape:persp3d" /><filter
   inkscape:collect="always"
   id="filter3499"><feGaussianBlur
     inkscape:collect="always"
     stdDeviation="2.8542256"
     id="feGaussianBlur3501" /></filter></defs>




<g
   inkscape:groupmode="layer"
   id="layer4"
   inkscape:label="Green"
   style="opacity:1;display:none"
   sodipodi:insensitive="true"><path
     sodipodi:type="inkscape:offset"
     inkscape:radius="0"
     inkscape:original="M 110 51.375 C 94.686857 52.696694 77.429438 53.111336 65.625 64.15625 C 57.882172 74.006244 62.853901 81.491546 62.9375 90.40625 C 69.678569 139.72369 66.512202 189.77416 59.375 238.84375 C 60.01293 249.81248 74.383038 248.82671 82.53125 250.71875 C 93.149148 250.97133 114.3159 254.51941 117 242.28125 C 114.20326 231.2532 111.26673 215.33538 123.5 208.625 C 137.03236 203.81293 149.12103 215.77344 150.4375 228.4375 C 151.36677 240.21312 154.78058 250.47483 171.15625 250.65625 C 187.53168 251.40496 199.56964 253.31139 212.90625 248.6875 C 223.23416 238.51646 216.14914 221.95008 209.5625 211.4375 C 202.40013 199.7583 188.04325 186.82814 188.71875 179.28125 C 189.14384 170.90266 197.9901 162.58234 206.28125 152.90625 C 215.19154 141.06755 219.35513 125.91063 215.34375 111.53125 C 210.7503 86.317535 189.16884 66.456228 164.09375 60.21875 C 146.60415 54.930336 128.3951 51.156881 110 51.375 z M 132.5625 102 C 142.77365 102.76384 150.99551 111.93351 150.71875 121.875 C 151.78862 133.12357 148.11281 149.4008 133.71875 149.53125 C 121.80411 150.82735 112.60298 140.6379 113.5 129.375 C 112.67821 117.81336 118.04513 101.69256 132.5625 102 z "
     xlink:href="#path3802"
     style="font-size:275.70800781px;font-style:normal;font-variant:normal;font-weight:bold;font-stretch:normal;text-align:start;line-height:125%;writing-mode:lr-tb;text-anchor:start;fill:#426f00;fill-opacity:1;stroke:none;stroke-width:1px;stroke-linecap:butt;stroke-linejoin:miter;stroke-opacity:1;font-family:Comic Sans MS;-inkscape-font-specification:Comic Sans MS Bold"
     id="path3804"
     inkscape:href="#path3802"
     d="M 110,51.375 C 94.686857,52.696694 77.429438,53.111336 65.625,64.15625 C 57.882172,74.006244 62.853901,81.491546 62.9375,90.40625 C 69.678569,139.72369 66.512202,189.77416 59.375,238.84375 C 60.01293,249.81248 74.383038,248.82671 82.53125,250.71875 C 93.149148,250.97133 114.3159,254.51941 117,242.28125 C 114.20326,231.2532 111.26673,215.33538 123.5,208.625 C 137.03236,203.81293 149.12103,215.77344 150.4375,228.4375 C 151.36677,240.21312 154.78058,250.47483 171.15625,250.65625 C 187.53168,251.40496 199.56964,253.31139 212.90625,248.6875 C 223.23416,238.51646 216.14914,221.95008 209.5625,211.4375 C 202.40013,199.7583 188.04325,186.82814 188.71875,179.28125 C 189.14384,170.90266 197.9901,162.58234 206.28125,152.90625 C 215.19154,141.06755 219.35513,125.91063 215.34375,111.53125 C 210.7503,86.317535 189.16884,66.456228 164.09375,60.21875 C 146.60415,54.930336 128.3951,51.156881 110,51.375 z M 132.5625,102 C 142.77365,102.76384 150.99551,111.93351 150.71875,121.875 C 151.78862,133.12357 148.11281,149.4008 133.71875,149.53125 C 121.80411,150.82735 112.60298,140.6379 113.5,129.375 C 112.67821,117.81336 118.04513,101.69256 132.5625,102 z" /><path
     style="font-size:275.70800781px;font-style:normal;font-variant:normal;font-weight:bold;font-stretch:normal;text-align:start;line-height:125%;writing-mode:lr-tb;text-anchor:start;opacity:0.18000004;fill:url(#linearGradient4140);fill-opacity:1;stroke:#000000;stroke-width:1px;stroke-linecap:butt;stroke-linejoin:miter;stroke-opacity:1;font-family:Comic Sans MS;-inkscape-font-specification:Comic Sans MS Bold"
     d="M 110,51.379233 C 94.686857,52.700928 77.441112,53.098304 65.636674,64.143218 C 57.893845,73.993213 62.862348,81.478123 62.945947,90.392827 C 69.687015,139.71027 66.512202,189.78532 59.375,238.85491 C 60.01293,249.82363 74.371044,248.81673 82.519256,250.70877 C 93.137155,250.96135 114.31002,254.51661 116.99412,242.27845 C 114.19738,231.25039 111.26673,215.32728 123.5,208.6169 C 137.03236,203.80483 149.11883,215.78194 150.4353,228.446 C 151.36457,240.22162 154.77797,250.46387 171.15364,250.64529 C 187.52907,251.394 199.56964,253.32515 212.90625,248.70126 C 223.23416,238.53022 216.15475,221.93805 209.56811,211.42547 C 202.40575,199.74628 188.0301,186.81776 188.7056,179.27087 C 189.13069,170.89228 197.9901,162.58819 206.28125,152.9121 C 215.19154,141.07339 219.35425,125.89781 215.34287,111.51843 C 210.74941,86.304718 189.16429,66.440802 164.0892,60.203324 C 146.5996,54.914909 128.3951,51.161114 110,51.379233 z M 132.5625,102.00891 C 142.77365,102.77275 150.99216,111.93874 150.7154,121.88023 C 151.78526,133.1288 148.10448,149.39113 133.71042,149.52158 C 121.79578,150.81768 112.61337,140.63324 113.51039,129.37034 C 112.6886,117.80871 118.04513,101.70147 132.5625,102.00891 z"
     id="path3802"
     sodipodi:nodetypes="ccccccccccccccccccccc" /></g><g
   inkscape:groupmode="layer"
   id="layer5"
   inkscape:label="Shadow"
   style="display:inline"><path
     style="font-size:275.70800780999996960px;font-style:normal;font-variant:normal;font-weight:bold;font-stretch:normal;text-align:start;line-height:125%;writing-mode:lr-tb;text-anchor:start;opacity:1;fill:#898989;fill-opacity:1;stroke:none;stroke-width:1px;stroke-linecap:butt;stroke-linejoin:miter;stroke-opacity:1;display:inline;font-family:Comic Sans MS;-inkscape-font-specification:Comic Sans MS Bold;filter:url(#filter3499)"
     d="M 222.28125,86.875 C 154.83383,120.63766 110.26602,186.92238 41.587304,218.8602 C 31.455068,230.20013 34.45262,255.40982 48.277123,264.61094 C 69.436687,277.64612 96.275258,277.42947 119.7491,272.16311 C 130.3069,266.24027 139.25735,257.79441 149.0113,270.06368 C 168.9074,277.04066 190.98656,276.18129 211.72693,274.41131 C 230.11074,270.58111 242.10927,254.88678 240.65126,236.23075 C 240.43818,220.57287 230.53284,206.94166 223.26238,193.68629 C 206.15884,181.30026 220.67368,186.51088 235.49836,155.76992 C 247.25111,133.05651 238.04943,105.13295 222.28125,86.875 z"
     id="path4048"
     transform="matrix(1.0213036,0,0,1.0905995,-0.1382383,-17.423189)"
     sodipodi:nodetypes="cccccccccc" /></g><g
   inkscape:groupmode="layer"
   id="layer6"
   inkscape:label="Outline"
   style="display:inline"
   sodipodi:insensitive="true"><path
     sodipodi:type="inkscape:offset"
     inkscape:radius="6.3106775"
     inkscape:original="M 88.90625 41.75 C 82.681667 41.866716 75.965903 42.479278 68.28125 44 C 68.112957 44.034867 67.946152 44.076568 67.78125 44.125 C 67.739478 44.134993 67.69781 44.14541 67.65625 44.15625 C 56.594876 45.006465 45.350313 49.44696 36.25 56.625 C 31.287764 60.539055 26.734421 65.47215 23.96875 71.84375 C 21.433748 77.68393 21.010064 84.520475 23.0625 91.09375 C 30.502316 137.05421 29.13104 185.4251 23.4375 231.5625 C 23.437089 231.60417 23.437089 231.64583 23.4375 231.6875 C 23.426146 231.74984 23.415728 231.81235 23.40625 231.875 C 22.778964 237.19401 20.810461 244.29605 20.90625 252.4375 C 20.955521 256.62524 21.671158 261.63079 24.46875 266.375 C 27.375365 271.30409 32.101272 274.9325 37.625 276.96875 C 47.729084 281.2157 61.404037 283.12822 75.53125 282.8125 C 82.637757 282.65368 89.762217 281.80066 96.4375 279.46875 C 103.171 277.11651 110.56875 272.64382 113.9375 264.3125 C 114.93452 261.87313 115.12447 259.19261 114.53125 256.625 C 113.8634 253.77503 113.4185 251.37471 112.9375 248.9375 C 113.67796 251.77173 114.399 254.42445 115.1875 258 C 115.25387 258.26554 115.33738 258.52651 115.4375 258.78125 C 116.51667 265.02358 119.56031 270.56538 124.25 274.3125 C 129.22191 278.28511 134.85545 279.98116 139.90625 280.9375 C 150.05813 282.85969 160.39296 282.29137 167.0625 282.75 C 167.14562 282.76207 167.22897 282.77249 167.3125 282.78125 C 167.56074 282.7885 167.81426 282.7885 168.0625 282.78125 C 180.28129 282.92385 191.06764 283.58809 201.1875 277.5625 C 206.62524 274.32475 210.71594 269.11354 212.8125 262.9375 C 214.81806 257.02954 215.17767 250.67293 214.78125 243.5 C 214.78135 243.47917 214.78135 243.45833 214.78125 243.4375 C 214.74848 242.9378 214.68505 242.43013 214.59375 241.9375 C 210.61157 218.85685 196.56331 202.55778 184.84375 192.0625 C 190.41007 186.72767 195.6617 180.50246 200.21875 173.75 C 208.27314 161.81532 214.71787 147.91408 213.71875 133.21875 C 212.79322 104.17164 198.89187 79.486883 175.59375 63.8125 C 156.87594 50.620503 127.0632 44.693682 107.5625 42.65625 C 107.36618 42.615622 107.16804 42.584337 106.96875 42.5625 C 106.89602 42.550812 106.82309 42.540394 106.75 42.53125 C 100.90552 42.027931 95.15995 41.632738 88.90625 41.75 z M 111.6875 130.5 C 113.17824 135.40454 113.20464 137.32715 111.21875 142.53125 C 109.41166 137.1533 109.59365 135.3625 111.6875 130.5 z "
     style="font-size:275.70800781px;font-style:normal;font-variant:normal;font-weight:bold;font-stretch:normal;text-align:start;line-height:125%;writing-mode:lr-tb;text-anchor:start;opacity:1;fill:#000000;fill-opacity:1;stroke:none;stroke-width:1px;stroke-linecap:butt;stroke-linejoin:miter;stroke-opacity:1;display:inline;font-family:Comic Sans MS;-inkscape-font-specification:Comic Sans MS Bold"
     id="path3798"
     d="M 88.78125,35.4375 C 82.227929,35.56038 75.117414,36.218507 67.0625,37.8125 C 67.041667,37.812397 67.020833,37.812397 67,37.8125 C 66.767811,37.860605 66.541585,37.938927 66.3125,38 C 66.27082,38.009971 66.229077,38.020856 66.1875,38.03125 C 66.146182,38.042717 66.103703,38.050613 66.0625,38.0625 C 66.04311,38.068094 66.019364,38.056813 66,38.0625 C 53.994605,39.228969 42.112148,43.951246 32.34375,51.65625 C 26.830986,56.004544 21.486787,61.742795 18.1875,69.34375 C 15.152664,76.335456 14.645372,84.360592 16.84375,92.09375 C 16.846571,92.103674 16.84092,92.115077 16.84375,92.125 C 24.135294,137.1946 22.837782,184.91126 17.21875,230.5625 C 17.209812,230.63512 17.19646,230.70864 17.1875,230.78125 C 17.178916,230.83354 17.164175,230.88512 17.15625,230.9375 C 17.144893,230.99984 17.134475,231.06235 17.125,231.125 C 16.601045,235.56783 14.485487,243.29836 14.59375,252.5 C 14.650782,257.34739 15.486312,263.58218 19.03125,269.59375 C 22.769841,275.93372 28.727049,280.40128 35.4375,282.875 C 46.792736,287.64783 60.900216,289.45547 75.6875,289.125 C 83.204435,288.95701 90.988533,288.07244 98.53125,285.4375 C 104.18958,283.46086 110.62929,279.93006 115.375,274.0625 C 116.81483,275.95596 118.42022,277.73805 120.3125,279.25 C 126.41626,284.12697 133.17069,286.07451 138.71875,287.125 C 149.73239,289.21036 160.42845,288.65536 166.34375,289.03125 C 166.44725,289.0447 166.55237,289.05161 166.65625,289.0625 C 166.81206,289.07873 166.96842,289.08915 167.125,289.09375 C 167.49856,289.10466 167.87644,289.10466 168.25,289.09375 C 180.28346,289.23419 192.41756,290.13834 204.40625,283 C 211.20615,278.95119 216.22884,272.48763 218.78125,264.96875 C 221.11589,258.09138 221.48056,250.97958 221.09375,243.53125 C 221.09154,243.48869 221.09601,243.44883 221.09375,243.40625 C 221.0954,243.32292 221.0954,243.23958 221.09375,243.15625 C 221.09416,243.11458 221.09416,243.07292 221.09375,243.03125 C 221.04445,242.27944 220.94993,241.52277 220.8125,240.78125 C 217.00996,218.74179 204.86026,202.94589 193.625,191.90625 C 197.84202,187.38247 201.87151,182.56519 205.4375,177.28125 C 213.88979,164.75697 221.14197,149.57763 220,132.78125 C 219.01404,101.83751 204.00451,75.300805 179.125,58.5625 C 158.74881,44.201702 128.93939,38.614438 108.84375,36.46875 C 108.71982,36.443103 108.59336,36.42816 108.46875,36.40625 C 108.3932,36.398287 108.29402,36.382864 108.21875,36.375 C 108.13594,36.362132 108.0518,36.35497 107.96875,36.34375 C 107.86373,36.329562 107.76162,36.292796 107.65625,36.28125 C 107.61546,36.275741 107.57209,36.286359 107.53125,36.28125 C 107.44813,36.269171 107.36478,36.258752 107.28125,36.25 C 101.36586,35.740574 95.373111,35.313897 88.78125,35.4375 z"
     transform="matrix(1,0,0,0.9752159,21.385749,-6.557137)" /></g><g
   inkscape:groupmode="layer"
   id="layer1"
   inkscape:label="green_texture"
   sodipodi:insensitive="true"><image
     y="26.484554"
     x="5.2466011"
     id="image2485"
     height="254.39987"
     width="263.29382"
     sodipodi:absref="/Users/aquadran/Desktop/residual_green_new.png"
     xlink:href="residual_green_new.png" /></g></svg>