/* XPM */
static char *scummvm_icon[] = {
/* columns rows colors chars-per-pixel */
"32 32 150 2",
"   c #020202",
".  c #070800",
"X  c #0A0B02",
"o  c #070708",
"O  c #0C0C0C",
"+  c #0E1101",
"@  c #111600",
"#  c #151B01",
"$  c #181F01",
"%  c #17190E",
"&  c #121212",
"*  c #1B2201",
"=  c #1C210C",
"-  c #232D02",
";  c #263101",
":  c #2A3601",
">  c #2F3C01",
",  c #212412",
"<  c #2E3516",
"1  c #343F12",
"2  c #373E21",
"3  c #334403",
"4  c #394E01",
"5  c #38460D",
"6  c #3C5001",
"7  c #364019",
"8  c #3D4525",
"9  c #415601",
"0  c #435A03",
"q  c #485F08",
"w  c #445612",
"e  c #466201",
"r  c #4B6502",
"t  c #4C6C01",
"y  c #4D7201",
"u  c #4E7801",
"i  c #527202",
"p  c #537C01",
"a  c #5B7C02",
"s  c #5D7E0A",
"d  c #4D601A",
"f  c #566F14",
"g  c #465127",
"h  c #495824",
"j  c #4E5C2B",
"k  c #53632D",
"l  c #687F31",
"z  c #67783A",
"x  c #6D7D43",
"c  c #568301",
"v  c #5D8602",
"b  c #5B8C01",
"n  c #5F9102",
"m  c #638A02",
"M  c #619301",
"N  c #6C9502",
"B  c #659C01",
"V  c #6B9C02",
"C  c #729819",
"Z  c #6BA403",
"A  c #6FA902",
"S  c #77A503",
"D  c #74AC03",
"F  c #72AB0B",
"G  c #7DAE0C",
"H  c #76B304",
"J  c #7CB503",
"K  c #77B902",
"L  c #7EBB04",
"P  c #7AB30E",
"I  c #76AD13",
"U  c #78AE17",
"Y  c #7BB21C",
"T  c #69802F",
"R  c #779A27",
"E  c #7FAA20",
"W  c #7CA328",
"Q  c #7CC002",
"!  c #7FC803",
"~  c #768949",
"^  c #81BC03",
"/  c #84BD09",
"(  c #81B314",
")  c #83BA1B",
"_  c #84AC2E",
"`  c #82B726",
"'  c #86BA23",
"]  c #86B228",
"[  c #8BBB28",
"{  c #85AD30",
"}  c #8ABB34",
"|  c #8DB73C",
" . c #8DBC39",
".. c #90BA36",
"X. c #84C304",
"o. c #8AC605",
"O. c #83CC03",
"+. c #8ACD04",
"@. c #8AC50B",
"#. c #85D303",
"$. c #8AD505",
"%. c #87D803",
"&. c #8BDD04",
"*. c #8BD509",
"=. c #8DDB09",
"-. c #90D40D",
";. c #90DA0D",
":. c #87C011",
">. c #8CC612",
",. c #92CE13",
"<. c #92CE1D",
"1. c #94D615",
"2. c #94DB13",
"3. c #96D01E",
"4. c #8DE005",
"5. c #8EE00A",
"6. c #90E20C",
"7. c #92E213",
"8. c #96E31B",
"9. c #A0DF2E",
"0. c #9AE523",
"q. c #9CE924",
"w. c #9CE52A",
"e. c #9FE732",
"r. c #A0EA2F",
"t. c #A2E934",
"y. c #A8E73D",
"u. c #A4EA3A",
"i. c #8AA256",
"p. c #9DBA59",
"a. c #96AB62",
"s. c #92C046",
"d. c #96C14B",
"f. c #9AC44B",
"g. c #A1D248",
"h. c #A4CE5F",
"j. c #ADDC5A",
"k. c #A9EA47",
"l. c #AEEE4C",
"z. c #ADE551",
"x. c #AFEB51",
"c. c #B2EC56",
"v. c #B4EC5A",
"b. c #B5F05D",
"n. c #AED665",
"m. c #B4D777",
"M. c #B5E862",
"N. c #BAEC69",
"B. c #BAE472",
"V. c None",
/* pixels */
"V.V.V.V.V.V.V.V.V.V.V.V.& & O o O & & V.V.V.V.V.V.V.V.V.V.V.V.V.",
"V.V.V.V.V.V.V.V.V.V.& o               o O & V.V.V.V.V.V.V.V.V.V.",
"V.V.V.V.V.V.V.V.& o   . , 8 j k h 1 = .     O & V.V.V.V.V.V.V.V.",
"V.V.V.V.V.V.V.O     8 i.n.M.v.c.c.z.g.W w X   o & V.V.V.V.V.V.V.",
"V.V.V.V.V.V.&   o x B.b.u.u.e.w.w.u.u.u.y.] 3     & V.V.V.V.V.V.",
"V.V.V.V.V.V.o   z N.k.0.0.w.7.&.7.8.8.w.w.q.-.e .   & V.V.V.V.V.",
"V.V.V.V.V.&   < z.k.8.6.5.=.X.K K Q ! #.%.5.%.H 4   o & V.V.V.V.",
"V.V.V.V.V.o   l l.w.8.5.&.O.Z p e i M A K O.H M 4   o & V.V.V.V.",
"V.V.V.V.V.o . { y.w.q.7.5.#.V #   . * 6 m Z M i +   o V.V.V.V.V.",
"V.V.V.V.V.o X [ u.w.8.6.4.%.H :         * t v ;   o & V.V.V.V.V.",
"V.V.V.V.V.o . P q.5.4.4.4.5.O.L 0 X       + -     o V.V.V.V.V.V.",
"V.V.V.V.V.o   m 4.&.4.4.4.&.O.5.0.E 5 .         o V.V.V.V.V.V.V.",
"V.V.V.V.V.O   3 X.%.5.4.4.&.#.&.8.t.r.C -       O V.V.V.V.V.V.V.",
"V.V.V.V.V.&   . v #.%.&.%.%.O.&.7.8.r.r.<.q .   o V.V.V.V.V.V.V.",
"V.V.V.V.V.V.o   * v D Q X.$.$.*.2.2.9.0.0.2.i . o O V.V.V.V.V.V.",
"V.V.V.V.V.V.V.o   * a D O.*.O.O.*.2.-.*.;.;.+.9   o V.V.V.V.V.V.",
"V.V.V.V.V.V.V.O     @ r N D D J *.1.-.$.$.+.+.S -   O V.V.V.V.V.",
"V.V.V.V.V.V.V.V.      . > a N ^ ,.3.,.,.o.^ ^ ^ r   o V.V.V.V.V.",
"V.V.V.V.V.V.V.o           @ 9 N / >.@.@.^ @.@.J m X   & V.V.V.V.",
"V.V.V.V.V.V.o   , ,           - N J ^ ^ ^ ) L S m #   & V.V.V.V.",
"V.V.V.V.V.&   % a.p.1           - G L H J H D V a #   O V.V.V.V.",
"V.V.V.V.&   o ~ m.h.} f =       . R ) P D G Z b i @   O V.V.V.V.",
"V.V.V.V.o   d f.p.} ` ' _ T 8 7 k | ) F D Z M c e .   & V.V.V.V.",
"V.V.V.V.o . v F A F F U Y } f.p. .U Z V Z n p y 3   o & V.V.V.V.",
"V.V.V.V.O   $ p M B Z F Z F Y I Z Z Z n b c u e @   o V.V.V.V.V.",
"V.V.V.V.& o   # t c n M B I I Z n Z B b p y t *     & V.V.V.V.V.",
"V.V.V.V.V.& o   + 4 y c b n b b b b u u y 6 $     O V.V.V.V.V.V.",
"V.V.V.V.V.V.& o     $ 3 e t y y y t e 4 ; X   o & & V.V.V.V.V.V.",
"V.V.V.V.V.V.V.& O       . + * * * # X       o O V.V.V.V.V.V.V.V.",
"V.V.V.V.V.V.V.V.V.& o o                 o O & V.V.V.V.V.V.V.V.V.",
"V.V.V.V.V.V.V.V.V.V.V.& O O O O O O O & & V.V.V.V.V.V.V.V.V.V.V.",
"V.V.V.V.V.V.V.V.V.V.V.V.V.V.V.V.V.V.V.V.V.V.V.V.V.V.V.V.V.V.V.V."
};
