/* XPM */
static const char *scummvm_icon[] = {
/* columns rows colors chars-per-pixel */
"32 32 76 1",
"  c black",
". c #001100",
"X c #111100",
"o c #000011",
"O c #111111",
"+ c #112200",
"@ c #222200",
"# c #223300",
"$ c #222211",
"% c #333311",
"& c #334400",
"* c #335500",
"= c #334411",
"- c #334422",
"; c #445500",
": c #445511",
"> c #446600",
", c #556600",
"< c #447700",
"1 c #557700",
"2 c #557711",
"3 c #444422",
"4 c #445522",
"5 c #555533",
"6 c #556622",
"7 c #556633",
"8 c #667733",
"9 c #667744",
"0 c #558800",
"q c #668800",
"w c #669900",
"e c #779911",
"r c #66AA00",
"t c #77AA00",
"y c #77BB00",
"u c #77AA11",
"i c #77BB11",
"p c #779922",
"a c #668833",
"s c #77AA22",
"d c #77BB22",
"f c #77CC00",
"g c #778844",
"h c #88BB00",
"j c #88BB11",
"k c #88AA22",
"l c #88BB22",
"z c #88AA33",
"x c #88BB33",
"c c #88CC00",
"v c #88DD00",
"b c #88CC11",
"n c #99CC11",
"m c #88DD11",
"M c #99DD11",
"N c #99CC22",
"B c #99DD22",
"V c #99DD33",
"C c #99EE22",
"Z c #99EE33",
"A c #AAEE33",
"S c #88BB44",
"D c #99BB44",
"F c #88AA55",
"G c #99BB55",
"H c #99AA66",
"J c #99CC44",
"K c #AADD55",
"L c #AAEE44",
"P c #AAEE55",
"I c #BBEE55",
"U c #AACC66",
"Y c #AADD66",
"T c #BBDD77",
"R c #BBEE66",
"E c None",
/* pixels */
"EEEEEEEEEEEEOOO OOOEEEEEEEEEEEEE",
"EEEEEEEEEEO         OOEEEEEEEEEE",
"EEEEEEEEO   $3574=$   OOEEEEEEEE",
"EEEEEEEO  3FYRIPPKJs:X  OEEEEEEE",
"EEEEEEO X9TIAZZCZZAALk&  OEEEEEE",
"EEEEEE  8RLCBCMvMBBCZCm>  OEEEEE",
"EEEEEO %KABMMmfyyyfcvvvt*  OEEEE",
"EEEEEO aLZMvvcr1>1qtycyw;  OEEEE",
"EEEEE  zLZBMmcwX  @;qww1X OEEEEE",
"EEEEE XlACMmvvy#    @,q#  OEEEEE",
"EEEEE XjCMvvvmcy;X   X#  OEEEEEE",
"EEEEEo qvvvvvvcmBs=      EEEEEEE",
"EEEEEO &hvmvvvcvBZVe#   OEEEEEEE",
"EEEEEO XqcvvvccvMBZAN>  OEEEEEEE",
"EEEEEEO @qtycvvvmMBBBM1  OEEEEEE",
"EEEEEEE  @1tcbccvMMmMmc;  EEEEEE",
"EEEEEEEO  X>wttycMbcccct@ OEEEEE",
"EEEEEEEE    &1wynNnnchhy,  EEEEE",
"EEEEEEE      X;wjbbhhjjyqX OEEEE",
"EEEEEEO $$     #whhyhjytq+ OEEEE",
"EEEEEO OHG=     #uytyytw1+ OEEEE",
"EEEEO XgTUx2@   Xplittwq1X OEEEE",
"EEEEO 6JDxllz84-7Sdutrw0>. OEEEE",
"EEEE  2uuuuusxDGxurrww11&  OEEEE",
"EEEEO +1wwrurusurrrw001>X OEEEEE",
"EEEEO  +>0wwwuurwww011>@  OEEEEE",
"EEEEEO  X&110w00001<<;+  OEEEEEE",
"EEEEEEO   +&>><<1>>*#.  OOEEEEEE",
"EEEEEEEOO   .X+@@+X    OEEEEEEEE",
"EEEEEEEEEOO          OOEEEEEEEEE",
"EEEEEEEEEEEOOOOOOOOOOEEEEEEEEEEE",
"EEEEEEEEEEEEEEEEEEEEEEEEEEEEEEEE"
};
