<?xml version="1.0" encoding="UTF-8" standalone="no"?>
<svg
   xmlns:dc="http://purl.org/dc/elements/1.1/"
   xmlns:cc="http://creativecommons.org/ns#"
   xmlns:rdf="http://www.w3.org/1999/02/22-rdf-syntax-ns#"
   xmlns:svg="http://www.w3.org/2000/svg"
   xmlns="http://www.w3.org/2000/svg"
   viewBox="0 0 682.66669 682.66669"
   height="682.66669"
   width="682.66669"
   xml:space="preserve"
   id="svg2"
   version="1.1"><metadata
     id="metadata8"><rdf:RDF><cc:Work
         rdf:about=""><dc:format>image/svg+xml</dc:format><dc:type
           rdf:resource="http://purl.org/dc/dcmitype/StillImage" /><dc:title></dc:title></cc:Work></rdf:RDF></metadata><defs
     id="defs6"><clipPath
       id="clipPath18"
       clipPathUnits="userSpaceOnUse"><path
         id="path16"
         d="M 0,512 H 512 V 0 H 0 Z" /></clipPath><clipPath
       id="clipPath26"
       clipPathUnits="userSpaceOnUse"><path
         id="path24"
         d="M 67.6882,496.462 H 454.312 V 5.53825 H 67.6882 Z" /></clipPath><clipPath
       id="clipPath30"
       clipPathUnits="userSpaceOnUse"><path
         id="path28"
         d="m 378.203,342.284 v -17.365 c -1.971,-2.991 -5.035,-4.559 -8.182,-4.559 -2.27,0 -4.584,0.817 -6.56,2.503 -0.426,0.363 -8.514,7.25 -17.937,13.242 -9.423,5.974 -18.657,11.079 -27.684,15.333 -9.036,4.237 -17.478,7.428 -25.335,9.546 -7.857,2.118 -14.724,3.191 -20.61,3.191 -7.074,0 -12.285,-1.738 -15.615,-5.212 -3.339,-3.474 -5.004,-7.906 -5.004,-13.313 v 17.365 c 0,5.407 1.665,9.839 5.004,13.313 3.33,3.474 8.541,5.212 15.615,5.212 5.886,0 12.753,-1.073 20.61,-3.191 7.857,-2.119 16.299,-5.309 25.335,-9.546 9.027,-4.254 18.261,-9.36 27.684,-15.333 9.423,-5.992 17.511,-12.88 17.937,-13.242 1.976,-1.686 4.29,-2.503 6.56,-2.503 3.147,0 6.211,1.568 8.182,4.559" /></clipPath><clipPath
       id="clipPath34"
       clipPathUnits="userSpaceOnUse"><path
         id="path32"
         d="m 287.807,166.773 v -17.364 c 0,7.33 -4.041,14.27 -12.078,20.837 -8.055,6.56 -18.072,13.401 -30.051,20.555 -11.979,7.135 -24.939,14.845 -38.88,23.159 -13.986,8.332 -27.027,18.125 -38.871,29.223 -11.988,11.185 -21.996,24.027 -30.051,38.492 -8.046,14.474 -12.069,31.164 -12.069,50.078 v 17.365 c 0,-18.914 4.023,-35.604 12.069,-50.078 8.055,-14.465 18.063,-27.308 30.051,-38.493 11.844,-11.097 24.885,-20.891 38.871,-29.222 13.941,-8.314 26.901,-16.025 38.88,-23.16 11.979,-7.152 21.996,-13.995 30.051,-20.554 8.037,-6.567 12.078,-13.507 12.078,-20.838" /></clipPath><clipPath
       id="clipPath38"
       clipPathUnits="userSpaceOnUse"><path
         id="path36"
         d="m 414.455,178.935 v -17.366 c 0,-20.838 -4.419,-38.882 -13.257,-54.119 -8.838,-15.254 -20.322,-27.786 -34.461,-37.634 -14.13,-9.837 -30.15,-17.168 -48.006,-21.998 -17.874,-4.813 -35.847,-7.232 -53.901,-7.232 -36.135,0 -66.474,6.567 -91.017,19.676 C 149.27,73.38 127.184,93.26 107.546,119.886 V 137.25 C 127.184,110.625 149.27,90.744 173.813,77.627 198.356,64.519 228.695,57.95 264.83,57.95 c 18.054,0 36.027,2.42 53.901,7.233 17.856,4.831 33.876,12.161 48.006,21.999 14.139,9.846 25.623,22.38 34.461,37.633 8.838,15.236 13.257,33.282 13.257,54.12" /></clipPath><clipPath
       id="clipPath110"
       clipPathUnits="userSpaceOnUse"><path
         id="path108"
         d="M 102.546,386.54 H 409.455 V 45.5856 H 102.546 Z" /></clipPath><clipPath
       id="clipPath114"
       clipPathUnits="userSpaceOnUse"><path
         id="path112"
         d="M 246.276,386.54 H 373.203 V 325.36 H 246.276 Z" /></clipPath><clipPath
       id="clipPath118"
       clipPathUnits="userSpaceOnUse"><path
         id="path116"
         d="m 120.807,354.118 h 162 V 154.409 h -162 z" /></clipPath><clipPath
       id="clipPath122"
       clipPathUnits="userSpaceOnUse"><path
         id="path120"
         d="M 102.546,183.934 H 409.455 V 45.5856 H 102.546 Z" /></clipPath><clipPath
       id="clipPath162"
       clipPathUnits="userSpaceOnUse"><path
         id="path160"
         d="M 102.546,466.415 H 409.455 V 45.5856 H 102.546 Z" /></clipPath><clipPath
       id="clipPath166"
       clipPathUnits="userSpaceOnUse"><path
         id="path164"
         d="M 246.276,386.54 H 373.203 V 325.36 H 246.276 Z" /></clipPath><clipPath
       id="clipPath170"
       clipPathUnits="userSpaceOnUse"><path
         id="path168"
         d="m 373.203,347.284 v -17.365 c -1.971,-2.991 -5.035,-4.559 -8.182,-4.559 -2.27,0 -4.584,0.817 -6.56,2.503 -0.426,0.363 -8.514,7.25 -17.937,13.242 -9.423,5.974 -18.657,11.079 -27.684,15.333 -9.036,4.237 -17.478,7.428 -25.335,9.546 -7.857,2.118 -14.724,3.191 -20.61,3.191 -7.074,0 -12.285,-1.738 -15.615,-5.212 -3.339,-3.474 -5.004,-7.906 -5.004,-13.313 v 17.365 c 0,5.407 1.665,9.839 5.004,13.313 3.33,3.474 8.541,5.212 15.615,5.212 5.886,0 12.753,-1.073 20.61,-3.191 7.857,-2.119 16.299,-5.309 25.335,-9.546 9.027,-4.254 18.261,-9.36 27.684,-15.333 9.423,-5.992 17.511,-12.88 17.937,-13.242 1.976,-1.686 4.29,-2.503 6.56,-2.503 3.147,0 6.211,1.568 8.182,4.559" /></clipPath><clipPath
       id="clipPath174"
       clipPathUnits="userSpaceOnUse"><path
         id="path172"
         d="M 246.276,386.54 H 373.203 V 325.36 H 246.276 Z" /></clipPath><clipPath
       id="clipPath178"
       clipPathUnits="userSpaceOnUse"><path
         id="path176"
         d="m 120.807,354.118 h 162 V 154.409 h -162 z" /></clipPath><clipPath
       id="clipPath182"
       clipPathUnits="userSpaceOnUse"><path
         id="path180"
         d="m 282.807,171.773 v -17.364 c 0,7.33 -4.041,14.27 -12.078,20.837 -8.055,6.56 -18.072,13.401 -30.051,20.555 -11.979,7.135 -24.939,14.845 -38.88,23.159 -13.986,8.332 -27.027,18.125 -38.871,29.223 -11.988,11.185 -21.996,24.027 -30.051,38.492 -8.046,14.474 -12.069,31.164 -12.069,50.078 v 17.365 c 0,-18.914 4.023,-35.604 12.069,-50.078 8.055,-14.465 18.063,-27.308 30.051,-38.493 11.844,-11.097 24.885,-20.891 38.871,-29.222 13.941,-8.314 26.901,-16.025 38.88,-23.16 11.979,-7.152 21.996,-13.995 30.051,-20.554 8.037,-6.567 12.078,-13.507 12.078,-20.838" /></clipPath><clipPath
       id="clipPath186"
       clipPathUnits="userSpaceOnUse"><path
         id="path184"
         d="m 120.807,354.118 h 162 V 154.409 h -162 z" /></clipPath><clipPath
       id="clipPath190"
       clipPathUnits="userSpaceOnUse"><path
         id="path188"
         d="M 102.546,183.934 H 409.455 V 45.5856 H 102.546 Z" /></clipPath><clipPath
       id="clipPath194"
       clipPathUnits="userSpaceOnUse"><path
         id="path192"
         d="m 409.455,183.935 v -17.366 c 0,-20.838 -4.419,-38.882 -13.257,-54.119 -8.838,-15.254 -20.322,-27.786 -34.461,-37.634 -14.13,-9.837 -30.15,-17.168 -48.006,-21.998 -17.874,-4.813 -35.847,-7.232 -53.901,-7.232 -36.135,0 -66.474,6.567 -91.017,19.676 C 144.27,78.38 122.184,98.26 102.546,124.886 V 142.25 C 122.184,115.625 144.27,95.744 168.813,82.627 193.356,69.519 223.695,62.95 259.83,62.95 c 18.054,0 36.027,2.42 53.901,7.233 17.856,4.831 33.876,12.161 48.006,21.999 14.139,9.846 25.623,22.38 34.461,37.633 8.838,15.236 13.257,33.282 13.257,54.12" /></clipPath><clipPath
       id="clipPath198"
       clipPathUnits="userSpaceOnUse"><path
         id="path196"
         d="M 102.546,183.934 H 409.455 V 45.5856 H 102.546 Z" /></clipPath><clipPath
       id="clipPath314"
       clipPathUnits="userSpaceOnUse"><path
         id="path312"
         d="M 102.546,386.54 H 409.455 V 45.5856 H 102.546 Z" /></clipPath><clipPath
       id="clipPath318"
       clipPathUnits="userSpaceOnUse"><path
         id="path316"
         d="M 246.276,386.54 H 373.203 V 325.36 H 246.276 Z" /></clipPath><clipPath
       id="clipPath322"
       clipPathUnits="userSpaceOnUse"><path
         id="path320"
         d="m 120.807,354.118 h 162 V 154.409 h -162 z" /></clipPath><clipPath
       id="clipPath326"
       clipPathUnits="userSpaceOnUse"><path
         id="path324"
         d="M 102.546,183.934 H 409.455 V 45.5856 H 102.546 Z" /></clipPath></defs><g
     transform="matrix(1.3333333,0,0,-1.3333333,0,682.66667)"
     id="g10"><g
       id="g12"><g
         clip-path="url(#clipPath18)"
         id="g14"><g
           id="g20"><g
             id="g22" /><g
             id="g102"><g
               style="opacity:0.30000299"
               id="g100"
               clip-path="url(#clipPath26)"><g
                 id="g42"
                 transform="translate(423.333,262.5791)"><path
                   id="path40"
                   style="fill:#000000;fill-opacity:1;fill-rule:nonzero;stroke:none"
                   d="m 0,0 c 24.609,-29.336 33.766,-82.712 30.257,-110.404 -5.233,-41.305 -24.001,-80.79 -54.954,-104.082 -32.207,-24.237 -71.602,-38.584 -120.772,-41.895 -73.969,-4.966 -131.493,18.596 -169.745,54.265 -19.605,18.306 -50.392,44.586 -37.277,81.881 6.751,19.193 31.542,42.915 47.573,59.33 5.757,5.896 17.093,16.817 15.857,23.968 -2.838,12.112 -21.413,30.319 -29.265,43.236 -23.539,36.903 -28.797,92.983 -8.08,139.589 24.702,55.552 86.858,90.859 171.85,87.812 35.186,-1.262 78.051,-12.854 107.51,-29.798 C -4.964,179.717 29.286,151.815 24.961,121.086 22.303,102.205 8.273,81.237 -8.325,61.018 -18.62,48.477 -23.401,40.817 -22.809,33.458 -22.305,27.213 -7.092,8.454 0,0" /></g><g
                 id="g46"
                 transform="translate(412.0879,393.6909)"><path
                   id="path44"
                   style="fill:#000000;fill-opacity:1;fill-rule:nonzero;stroke:none"
                   d="m 0,0 v -17.365 l -33.885,-51.406 v 17.364 z" /></g><g
                 id="g70"><g
                   id="g68"
                   clip-path="url(#clipPath30)"><g
                     id="g50"
                     transform="translate(378.2031,342.2842)"><path
                       id="path48"
                       style="fill:#000000;fill-opacity:1;fill-rule:nonzero;stroke:none"
                       d="m 0,0 v -17.365 c -0.539,-0.817 -1.159,-1.529 -1.84,-2.13 V -2.13 C -1.159,-1.529 -0.539,-0.817 0,0" /></g><g
                     id="g54"
                     transform="translate(376.3633,340.1538)"><path
                       id="path52"
                       style="fill:#000000;fill-opacity:1;fill-rule:nonzero;stroke:none"
                       d="m 0,0 v -17.365 c -1.812,-1.6 -4.056,-2.428 -6.342,-2.428 -1.424,0 -2.865,0.32 -4.228,0.976 v 17.365 c 1.363,-0.655 2.804,-0.977 4.228,-0.977 2.286,0 4.53,0.828 6.342,2.429" /></g><g
                     id="g58"
                     transform="translate(365.793,338.7017)"><path
                       id="path56"
                       style="fill:#000000;fill-opacity:1;fill-rule:nonzero;stroke:none"
                       d="m 0,0 v -17.365 c -0.812,0.39 -1.595,0.898 -2.332,1.527 -0.426,0.362 -8.514,7.25 -17.937,13.241 -8.893,5.639 -17.619,10.503 -26.161,14.608 v 17.365 c 8.542,-4.105 17.268,-8.97 26.161,-14.608 C -10.846,8.776 -2.758,1.889 -2.332,1.526 -1.595,0.897 -0.812,0.39 0,0" /></g><g
                     id="g62"
                     transform="translate(319.3633,368.0776)"><path
                       id="path60"
                       style="fill:#000000;fill-opacity:1;fill-rule:nonzero;stroke:none"
                       d="m 0,0 v -17.365 c -0.508,0.245 -1.016,0.487 -1.523,0.725 -9.037,4.237 -17.478,7.428 -25.335,9.546 -7.857,2.118 -14.724,3.191 -20.611,3.191 -6.518,0 -11.455,-1.475 -14.796,-4.426 V 9.036 c 3.341,2.951 8.278,4.426 14.796,4.426 5.887,0 12.754,-1.072 20.611,-3.191 C -19.001,8.153 -10.56,4.962 -1.523,0.726 -1.016,0.486 -0.508,0.245 0,0" /></g><g
                     id="g66"
                     transform="translate(257.0986,377.1138)"><path
                       id="path64"
                       style="fill:#000000;fill-opacity:1;fill-rule:nonzero;stroke:none"
                       d="m 0,0 v -17.365 c -0.285,-0.251 -0.557,-0.513 -0.819,-0.786 -3.339,-3.474 -5.004,-7.906 -5.004,-13.312 v 17.364 c 0,5.407 1.665,9.839 5.004,13.313 C -0.557,-0.513 -0.285,-0.251 0,0" /></g></g></g><g
                 id="g78"><g
                   id="g76"
                   clip-path="url(#clipPath34)"><g
                     id="g74"
                     transform="translate(287.8066,166.7734)"><path
                       id="path72"
                       style="fill:#000000;fill-opacity:1;fill-rule:nonzero;stroke:none"
                       d="m 0,0 v -17.364 c 0,7.33 -4.041,14.269 -12.078,20.837 -8.055,6.559 -18.071,13.401 -30.05,20.554 -11.979,7.135 -24.94,14.846 -38.881,23.16 -13.986,8.332 -27.027,18.125 -38.871,29.222 -11.988,11.186 -21.995,24.028 -30.051,38.493 -8.046,14.473 -12.069,31.163 -12.069,50.077 v 17.365 c 0,-18.914 4.023,-35.603 12.069,-50.077 8.056,-14.465 18.063,-27.308 30.051,-38.494 11.844,-11.096 24.885,-20.89 38.871,-29.221 13.941,-8.315 26.902,-16.026 38.881,-23.16 11.979,-7.153 21.995,-13.996 30.05,-20.554 C -4.041,14.271 0,7.33 0,0" /></g></g></g><g
                 id="g94"><g
                   id="g92"
                   clip-path="url(#clipPath38)"><g
                     id="g82"
                     transform="translate(414.4551,178.9346)"><path
                       id="path80"
                       style="fill:#000000;fill-opacity:1;fill-rule:nonzero;stroke:none"
                       d="m 0,0 v -17.365 c 0,-20.838 -4.419,-38.883 -13.257,-54.119 -6.514,-11.243 -14.465,-21.007 -23.857,-29.307 v 17.364 c 9.392,8.301 17.343,18.065 23.857,29.308 C -4.419,-38.884 0,-20.838 0,0" /></g><g
                     id="g86"
                     transform="translate(377.3408,95.5078)"><path
                       id="path84"
                       style="fill:#000000;fill-opacity:1;fill-rule:nonzero;stroke:none"
                       d="m 0,0 v -17.364 c -3.351,-2.962 -6.886,-5.738 -10.604,-8.327 -14.129,-9.838 -30.15,-17.168 -48.005,-21.998 -17.874,-4.814 -35.848,-7.233 -53.902,-7.233 -33.585,0 -62.162,5.673 -85.734,16.998 v 17.365 c 23.572,-11.325 52.149,-16.999 85.734,-16.999 18.054,0 36.028,2.42 53.902,7.233 17.855,4.831 33.876,12.161 48.005,21.999 C -6.886,-5.736 -3.351,-2.962 0,0" /></g><g
                     id="g90"
                     transform="translate(179.0962,74.9492)"><path
                       id="path88"
                       style="fill:#000000;fill-opacity:1;fill-rule:nonzero;stroke:none"
                       d="m 0,0 v -17.365 c -1.79,0.86 -3.551,1.753 -5.283,2.677 -24.543,13.119 -46.629,32.999 -66.267,59.625 V 62.301 C -51.912,35.676 -29.826,15.795 -5.283,2.678 -3.551,1.753 -1.79,0.86 0,0" /></g></g></g><g
                 id="g98"
                 transform="translate(256.5771,461.4155)"><path
                   id="path96"
                   style="fill:#000000;fill-opacity:1;fill-rule:nonzero;stroke:none"
                   d="m 0,0 c 31.41,0 59.589,-5.699 84.528,-17.08 24.939,-11.389 48.6,-28.274 70.983,-50.645 l -33.885,-51.406 c -1.971,-2.992 -5.035,-4.559 -8.182,-4.559 -2.27,0 -4.584,0.816 -6.56,2.502 -0.426,0.363 -8.514,7.25 -17.937,13.242 -9.424,5.974 -18.657,11.079 -27.684,15.334 -9.036,4.236 -17.478,7.427 -25.335,9.545 -7.857,2.119 -14.724,3.191 -20.611,3.191 -7.073,0 -12.284,-1.737 -15.614,-5.211 -3.339,-3.475 -5.004,-7.907 -5.004,-13.313 0,-6.94 4.023,-13.411 12.077,-19.393 8.037,-5.983 18.154,-12.151 30.33,-18.524 13.177,-6.922 26.245,-14.058 39.178,-21.414 13.932,-7.915 26.99,-17.469 39.168,-28.655 12.177,-11.203 22.293,-24.614 30.348,-40.239 8.046,-15.626 12.078,-34.248 12.078,-55.856 0,-20.838 -4.419,-38.884 -13.257,-54.119 -8.838,-15.254 -20.322,-27.787 -34.461,-37.634 -14.13,-9.838 -30.15,-17.168 -48.006,-21.999 -17.874,-4.812 -35.847,-7.232 -53.901,-7.232 -36.135,0 -66.474,6.568 -91.017,19.676 -24.543,13.118 -46.629,32.998 -66.267,59.623 l 41.85,52.028 c 2.004,2.487 4.727,3.741 7.465,3.741 2.56,0 5.133,-1.097 7.142,-3.307 0.24,-0.264 4.806,-5.282 13.059,-11.655 8.352,-6.443 17.334,-12.062 26.802,-16.778 9.459,-4.769 19.305,-8.739 29.448,-11.868 10.017,-3.102 19.341,-4.635 27.981,-4.635 8.631,0 15.219,1.542 19.737,4.635 4.509,3.085 6.776,8.872 6.776,17.363 0,7.33 -4.041,14.27 -12.078,20.838 -8.054,6.558 -18.071,13.401 -30.05,20.554 -11.979,7.134 -24.939,14.845 -38.88,23.16 -13.986,8.331 -27.027,18.125 -38.871,29.221 -11.988,11.186 -21.996,24.029 -30.051,38.494 -8.046,14.474 -12.069,31.163 -12.069,50.077 0,18.525 3.528,34.727 10.602,48.615 7.065,13.898 16.587,25.562 28.566,35.028 11.979,9.448 25.821,16.583 41.526,21.413 C -34.371,-2.42 -17.676,0 0,0" /></g></g></g></g><g
           id="g104"><g
             id="g106" /><g
             id="g150"><g
               id="g148"
               clip-path="url(#clipPath110)"><g
                 id="g130"><g
                   id="g124" /><g
                   id="g128"><g
                     id="g126"
                     clip-path="url(#clipPath114)" /></g></g><g
                 id="g138"><g
                   id="g132" /><g
                   id="g136"><g
                     id="g134"
                     clip-path="url(#clipPath118)" /></g></g><g
                 id="g146"><g
                   id="g140" /><g
                   id="g144"><g
                     id="g142"
                     clip-path="url(#clipPath122)" /></g></g></g></g></g><g
           transform="translate(418.333,267.5791)"
           id="g152"><path
             id="path154"
             style="fill:#333333;fill-opacity:1;fill-rule:nonzero;stroke:none"
             d="m 0,0 c 24.609,-29.336 33.766,-82.712 30.257,-110.404 -5.233,-41.305 -24.001,-80.79 -54.954,-104.082 -32.207,-24.237 -71.602,-38.584 -120.772,-41.895 -73.969,-4.966 -131.493,18.596 -169.745,54.265 -19.605,18.306 -50.392,44.586 -37.277,81.881 6.751,19.193 31.542,42.915 47.573,59.33 5.757,5.896 17.093,16.817 15.857,23.968 -2.838,12.112 -21.413,30.319 -29.265,43.236 -23.539,36.903 -28.797,92.983 -8.08,139.589 24.702,55.552 86.858,90.859 171.85,87.812 35.186,-1.262 78.051,-12.854 107.51,-29.798 C -4.964,179.717 29.286,151.815 24.961,121.086 22.303,102.205 8.273,81.237 -8.325,61.018 -18.62,48.477 -23.401,40.817 -22.809,33.458 -22.305,27.213 -7.092,8.454 0,0" /></g><g
           id="g156"><g
             id="g158" /><g
             id="g306"><g
               id="g304"
               clip-path="url(#clipPath162)"><g
                 id="g202"
                 transform="translate(407.0879,398.6909)"><path
                   id="path200"
                   style="fill:#006a1b;fill-opacity:1;fill-rule:nonzero;stroke:none"
                   d="m 0,0 v -17.365 l -33.885,-51.406 v 17.364 z" /></g><g
                 id="g242"><g
                   id="g204" /><g
                   id="g240"><g
                     id="g238"
                     clip-path="url(#clipPath166)"><g
                       id="g236"><g
                         id="g234"
                         clip-path="url(#clipPath170)"><g
                           id="g232"><g
                             id="g206" /><g
                             id="g230"><g
                               id="g228"
                               clip-path="url(#clipPath174)"><g
                                 id="g210"
                                 transform="translate(373.2031,347.2842)"><path
                                   id="path208"
                                   style="fill:#006a1b;fill-opacity:1;fill-rule:nonzero;stroke:none"
                                   d="m 0,0 v -17.365 c -0.539,-0.817 -1.159,-1.529 -1.84,-2.13 V -2.13 C -1.159,-1.529 -0.539,-0.817 0,0" /></g><g
                                 id="g214"
                                 transform="translate(371.3633,345.1538)"><path
                                   id="path212"
                                   style="fill:#006e1c;fill-opacity:1;fill-rule:nonzero;stroke:none"
                                   d="m 0,0 v -17.365 c -1.812,-1.6 -4.056,-2.428 -6.342,-2.428 -1.424,0 -2.865,0.32 -4.228,0.976 v 17.365 c 1.363,-0.655 2.804,-0.977 4.228,-0.977 2.286,0 4.53,0.828 6.342,2.429" /></g><g
                                 id="g218"
                                 transform="translate(360.793,343.7017)"><path
                                   id="path216"
                                   style="fill:#006a1b;fill-opacity:1;fill-rule:nonzero;stroke:none"
                                   d="m 0,0 v -17.365 c -0.812,0.39 -1.595,0.898 -2.332,1.527 -0.426,0.362 -8.514,7.25 -17.937,13.241 -8.893,5.639 -17.619,10.503 -26.161,14.608 v 17.365 c 8.542,-4.105 17.268,-8.97 26.161,-14.608 C -10.846,8.776 -2.758,1.889 -2.332,1.526 -1.595,0.897 -0.812,0.39 0,0" /></g><g
                                 id="g222"
                                 transform="translate(314.3633,373.0776)"><path
                                   id="path220"
                                   style="fill:#006e1c;fill-opacity:1;fill-rule:nonzero;stroke:none"
                                   d="m 0,0 v -17.365 c -0.508,0.245 -1.016,0.487 -1.523,0.725 -9.037,4.237 -17.478,7.428 -25.335,9.546 -7.857,2.118 -14.724,3.191 -20.611,3.191 -6.518,0 -11.455,-1.475 -14.796,-4.426 V 9.036 c 3.341,2.951 8.278,4.426 14.796,4.426 5.887,0 12.754,-1.072 20.611,-3.191 C -19.001,8.153 -10.56,4.962 -1.523,0.726 -1.016,0.486 -0.508,0.245 0,0" /></g><g
                                 id="g226"
                                 transform="translate(252.0986,382.1138)"><path
                                   id="path224"
                                   style="fill:#006a1b;fill-opacity:1;fill-rule:nonzero;stroke:none"
                                   d="m 0,0 v -17.365 c -0.285,-0.251 -0.557,-0.513 -0.819,-0.786 -3.339,-3.474 -5.004,-7.906 -5.004,-13.312 v 17.364 c 0,5.407 1.665,9.839 5.004,13.313 C -0.557,-0.513 -0.285,-0.251 0,0" /></g></g></g></g></g></g></g></g></g><g
                 id="g266"><g
                   id="g244" /><g
                   id="g264"><g
                     id="g262"
                     clip-path="url(#clipPath178)"><g
                       id="g260"><g
                         id="g258"
                         clip-path="url(#clipPath182)"><g
                           id="g256"><g
                             id="g246" /><g
                             id="g254"><g
                               id="g252"
                               clip-path="url(#clipPath186)"><g
                                 id="g250"
                                 transform="translate(282.8066,171.7734)"><path
                                   id="path248"
                                   style="fill:#006a1b;fill-opacity:1;fill-rule:nonzero;stroke:none"
                                   d="m 0,0 v -17.364 c 0,7.33 -4.041,14.269 -12.078,20.837 -8.055,6.559 -18.071,13.401 -30.05,20.554 -11.979,7.135 -24.94,14.846 -38.881,23.16 -13.986,8.332 -27.027,18.125 -38.871,29.222 -11.988,11.185 -21.995,24.028 -30.051,38.493 -8.046,14.473 -12.069,31.163 -12.069,50.077 v 17.365 c 0,-18.914 4.023,-35.603 12.069,-50.077 8.056,-14.465 18.063,-27.308 30.051,-38.494 11.844,-11.096 24.885,-20.89 38.871,-29.221 13.941,-8.315 26.902,-16.026 38.881,-23.16 11.979,-7.153 21.995,-13.996 30.05,-20.554 C -4.041,14.271 0,7.33 0,0" /></g></g></g></g></g></g></g></g></g><g
                 id="g298"><g
                   id="g268" /><g
                   id="g296"><g
                     id="g294"
                     clip-path="url(#clipPath190)"><g
                       id="g292"><g
                         id="g290"
                         clip-path="url(#clipPath194)"><g
                           id="g288"><g
                             id="g270" /><g
                             id="g286"><g
                               id="g284"
                               clip-path="url(#clipPath198)"><g
                                 id="g274"
                                 transform="translate(409.4551,183.9346)"><path
                                   id="path272"
                                   style="fill:#006a1b;fill-opacity:1;fill-rule:nonzero;stroke:none"
                                   d="m 0,0 v -17.365 c 0,-20.838 -4.419,-38.883 -13.257,-54.119 -6.514,-11.243 -14.465,-21.007 -23.857,-29.307 v 17.364 c 9.392,8.301 17.343,18.065 23.857,29.308 C -4.419,-38.884 0,-20.838 0,0" /></g><g
                                 id="g278"
                                 transform="translate(372.3408,100.5078)"><path
                                   id="path276"
                                   style="fill:#006e1c;fill-opacity:1;fill-rule:nonzero;stroke:none"
                                   d="m 0,0 v -17.364 c -3.351,-2.962 -6.886,-5.738 -10.604,-8.327 -14.129,-9.838 -30.15,-17.168 -48.005,-21.998 -17.874,-4.814 -35.848,-7.233 -53.902,-7.233 -33.585,0 -62.162,5.673 -85.734,16.998 v 17.365 c 23.572,-11.325 52.149,-16.999 85.734,-16.999 18.054,0 36.028,2.42 53.902,7.233 17.855,4.831 33.876,12.161 48.005,21.999 C -6.886,-5.736 -3.351,-2.962 0,0" /></g><g
                                 id="g282"
                                 transform="translate(174.0962,79.9492)"><path
                                   id="path280"
                                   style="fill:#006a1b;fill-opacity:1;fill-rule:nonzero;stroke:none"
                                   d="m 0,0 v -17.365 c -1.79,0.86 -3.551,1.753 -5.283,2.677 -24.543,13.119 -46.629,32.999 -66.267,59.625 V 62.301 C -51.912,35.676 -29.826,15.795 -5.283,2.678 -3.551,1.753 -1.79,0.86 0,0" /></g></g></g></g></g></g></g></g></g><g
                 id="g302"
                 transform="translate(251.5771,466.4155)"><path
                   id="path300"
                   style="fill:#00c832;fill-opacity:1;fill-rule:nonzero;stroke:none"
                   d="m 0,0 c 31.41,0 59.589,-5.699 84.528,-17.08 24.939,-11.389 48.6,-28.274 70.983,-50.645 l -33.885,-51.406 c -1.971,-2.992 -5.035,-4.559 -8.182,-4.559 -2.27,0 -4.584,0.816 -6.56,2.502 -0.426,0.363 -8.514,7.25 -17.937,13.242 -9.424,5.974 -18.657,11.079 -27.684,15.334 -9.036,4.236 -17.478,7.427 -25.335,9.545 -7.857,2.119 -14.724,3.191 -20.611,3.191 -7.073,0 -12.284,-1.737 -15.614,-5.211 -3.339,-3.475 -5.004,-7.907 -5.004,-13.313 0,-6.94 4.023,-13.411 12.077,-19.393 8.037,-5.983 18.154,-12.151 30.33,-18.524 13.177,-6.922 26.245,-14.058 39.178,-21.414 13.932,-7.915 26.99,-17.469 39.168,-28.655 12.177,-11.203 22.293,-24.613 30.348,-40.239 8.046,-15.626 12.078,-34.248 12.078,-55.856 0,-20.838 -4.419,-38.884 -13.257,-54.119 -8.838,-15.254 -20.322,-27.787 -34.461,-37.634 -14.13,-9.838 -30.15,-17.168 -48.006,-21.999 -17.874,-4.812 -35.847,-7.232 -53.901,-7.232 -36.135,0 -66.474,6.568 -91.017,19.676 -24.543,13.118 -46.629,32.998 -66.267,59.623 l 41.85,52.028 c 2.004,2.487 4.727,3.741 7.465,3.741 2.56,0 5.133,-1.097 7.142,-3.307 0.24,-0.264 4.806,-5.282 13.059,-11.655 8.352,-6.443 17.334,-12.062 26.802,-16.778 9.459,-4.769 19.305,-8.739 29.448,-11.868 10.017,-3.102 19.341,-4.635 27.981,-4.635 8.631,0 15.219,1.542 19.737,4.635 4.509,3.085 6.776,8.872 6.776,17.363 0,7.33 -4.041,14.27 -12.078,20.838 -8.054,6.558 -18.071,13.401 -30.05,20.554 -11.979,7.134 -24.939,14.845 -38.88,23.16 -13.986,8.331 -27.027,18.125 -38.871,29.221 -11.988,11.186 -21.996,24.029 -30.051,38.494 -8.046,14.474 -12.069,31.163 -12.069,50.077 0,18.525 3.528,34.727 10.602,48.615 7.065,13.898 16.587,25.562 28.566,35.028 11.979,9.448 25.821,16.583 41.526,21.413 C -34.371,-2.42 -17.676,0 0,0" /></g></g></g></g><g
           id="g308"><g
             id="g310" /><g
             id="g354"><g
               id="g352"
               clip-path="url(#clipPath314)"><g
                 id="g334"><g
                   id="g328" /><g
                   id="g332"><g
                     id="g330"
                     clip-path="url(#clipPath318)" /></g></g><g
                 id="g342"><g
                   id="g336" /><g
                   id="g340"><g
                     id="g338"
                     clip-path="url(#clipPath322)" /></g></g><g
                 id="g350"><g
                   id="g344" /><g
                   id="g348"><g
                     id="g346"
                     clip-path="url(#clipPath326)" /></g></g></g></g></g></g></g></g></svg>