/* XPM */
static const char *scummvm_icon[] = {
/* columns rows colors chars-per-pixel */
"32 32 25 1 ",
"  c #222222",
". c gray20",
"X c #115522",
"o c #224422",
"O c #225522",
"+ c #224433",
"@ c #334433",
"# c #225533",
"$ c #006622",
"% c #116622",
"& c #007722",
"* c #117722",
"= c #117733",
"- c #226633",
"; c #227733",
": c #008822",
"> c #009922",
", c #118833",
"< c #119933",
"1 c #00AA22",
"2 c #00AA33",
"3 c #11AA33",
"4 c #00BB33",
"5 c #00CC33",
"6 c None",
/* pixels */
"66666666666666666666666666666666",
"66666666666..........66666666666",
"666666666....@+##@@....666666666",
"66666666...-<244443,-@...6666666",
"6666666..@<55555555553-...666666",
"666666..@35555555555554,@..66666",
"666666..,555555555555555<@..6666",
"66666..+45555555445555554-..6666",
"66666..-5555555>$&:14555>+..6666",
"66666..;5555555<..+X&254X..66666",
"66666..;55555554,@..+%>*.. 66666",
"66666..-5555555553;@..O+..666666",
"66666..#455555555553-....6666666",
"666666..:555555555554,@..6666666",
"666666..O15555555555553+..666666",
"6666666..%15555555555553@.666666",
"6666666...%>455555555555,..66666",
"66666666...X&255555555554@.66666",
"66666666....+%:4555555555-..6666",
"6666666..#....o&155555555,..6666",
"666666..=5<@...+X15555555,..6666",
"66666..-4553-@...=5555555,..6666",
"6666..#4555552,;;35555555=..6666",
"6666..=555555555555555554#..6666",
"6666..o>5555555555555555:...6666",
"6666...X>45555555555555>O..66666",
"66666...O:255555555554:X...66666",
"666666...+%:14444441:$o...666666",
"6666666....oX%&&&&$Xo....6666666",
"666666666.....@+++..... 66666666",
"66666666666..........66666666666",
"666666666666666  666666666666666"
};
