#define infocom6x8_width 192
#define infocom6x8_height 24
static unsigned char infocom6x8_bits[] = {
 0x40,0x50,0x28,0x44,0x22,0x08,0x44,0x90,0x00,0x00,0x00,0x20,0x86,0x60,0x18,
 0xc5,0xe3,0x3c,0x86,0x01,0x00,0x00,0x00,0x38,0x40,0x50,0x7c,0x1f,0x52,0x08,
 0x82,0x60,0x10,0x00,0x00,0x20,0xc9,0x90,0x24,0x45,0x10,0x20,0x49,0x02,0x00,
 0x04,0x10,0x44,0x40,0x00,0x28,0x05,0x21,0x04,0x01,0xf1,0x10,0x00,0x00,0x10,
 0x89,0x40,0x10,0xcf,0x71,0x10,0x46,0x12,0x08,0xc2,0x23,0x20,0x40,0x00,0x7c,
 0x9f,0x50,0x01,0x01,0x61,0x7c,0xc0,0x03,0x08,0x89,0x20,0x20,0x04,0x92,0x08,
 0x89,0x03,0x00,0x01,0x40,0x10,0x00,0x00,0x28,0x54,0x90,0x00,0x01,0x91,0x10,
 0x02,0x00,0x04,0x89,0x10,0x24,0x04,0x92,0x08,0x09,0x12,0x08,0xc2,0x23,0x00,
 0x40,0x00,0x00,0x5f,0x62,0x01,0x82,0x00,0x10,0x02,0x10,0x04,0xc6,0xf1,0x18,
 0xc4,0x61,0x08,0xc6,0x01,0x08,0x04,0x10,0x10,0x00,0x00,0x00,0x04,0x00,0x00,
 0x44,0x00,0x00,0x01,0x00,0x00,0x00,0x00,0x00,0x00,0x00,0x00,0x00,0x00,0x04,
 0x00,0x00,0x00,0x00,0x00,0x00,0x00,0x00,0x00,0x00,0x00,0x00,0x00,0x00,0x00,
 0x00,0x00,0x00,0x00,0x00,0x00,0x00,0x00,0x00,0x00,0x00,0x00,0x86,0x71,0x38,
 0xc7,0xf3,0x38,0xc9,0x81,0x24,0x41,0x94,0x18,0x87,0x71,0x38,0x5f,0x12,0x45,
 0x51,0xf4,0x0c,0xc1,0x40,0x00,0x49,0x92,0x04,0x49,0x10,0x04,0x89,0x80,0x14,
 0xc1,0xb6,0x24,0x49,0x92,0x04,0x44,0x12,0x45,0x4a,0x84,0x04,0x81,0xa0,0x00,
 0x4d,0x72,0x04,0xc9,0x71,0x04,0x89,0x80,0x0c,0x41,0xd5,0x24,0x49,0x92,0x18,
 0x44,0x12,0x45,0x84,0x42,0x04,0x82,0x10,0x01,0xcd,0x93,0x04,0x49,0x10,0x34,
 0x8f,0x80,0x14,0x41,0x94,0x24,0x47,0x72,0x20,0x44,0xa2,0x54,0x04,0x21,0x04,
 0x84,0x00,0x00,0x41,0x92,0x04,0x49,0x10,0x24,0x89,0x90,0x24,0x41,0x94,0x24,
 0x41,0x33,0x24,0x44,0xa2,0x6c,0x0a,0x11,0x04,0x88,0x00,0x00,0x4e,0x72,0x38,
 0xc7,0x13,0x38,0xc9,0x61,0x24,0x4f,0x94,0x18,0x81,0xd3,0x18,0x84,0x41,0x44,
 0x11,0xf1,0x0c,0xc8,0x00,0x3c,0x00,0x00,0x00,0x00,0x00,0x00,0x00,0x00,0x00,
 0x00,0x00,0x00,0x00,0x06,0x00,0x00,0x00,0x00,0x00,0x00,0x00,0x00,0x00,0x00,
 0x00,0x00,0x00,0x00,0x00,0x00,0x00,0x00,0x00,0x00,0x00,0x00,0x00,0x00,0x00,
 0x00,0x00,0x00,0x00,0x00,0x00,0x00,0x00,0x00,0x01,0x10,0x00,0x04,0x60,0x00,
 0x41,0x20,0x04,0x01,0x00,0x00,0x00,0x00,0x00,0x02,0x00,0x00,0x00,0x00,0x10,
 0x41,0x00,0x00,0xc1,0x71,0x1c,0xc7,0x21,0x1c,0x07,0x00,0x14,0xc1,0x77,0x1c,
 0xc7,0x71,0x1c,0x47,0x51,0x54,0x45,0x71,0x08,0x81,0x00,0x00,0x02,0x51,0x04,
 0x45,0x71,0x14,0x45,0x20,0x14,0x41,0x55,0x14,0x45,0x11,0x04,0x42,0x51,0x54,
 0x45,0x41,0x08,0x81,0x20,0x00,0xc0,0x51,0x04,0xc5,0x21,0x14,0x45,0x20,0x0c,
 0x41,0x55,0x14,0x45,0x11,0x1c,0x42,0x51,0x54,0x42,0x21,0x04,0x00,0x51,0x01,
 0x40,0x51,0x04,0x45,0x20,0x14,0x45,0x20,0x14,0x41,0x55,0x14,0x45,0x11,0x10,
 0x42,0x51,0x54,0x45,0x11,0x08,0x81,0x80,0x00,0xc0,0x71,0x1c,0xc7,0x21,0x1c,
 0x45,0x20,0x14,0x41,0x55,0x1c,0xc7,0x11,0x1c,0xc2,0x21,0x7c,0xc5,0x71,0x08,
 0x81,0x00,0x00,0x00,0x00,0x00,0x00,0x00,0x10,0x00,0x20,0x00,0x00,0x00,0x00,
 0x01,0x01,0x00,0x00,0x00,0x00,0x00,0x01,0x10,0x41,0x00,0x00,0x00,0x00,0x00,
 0x00,0x00,0x1c,0x00,0x30,0x00,0x00,0x00,0x00,0x01,0x01,0x00,0x00,0x00,0x00,
 0xc0,0x01,0x00,0x00,0x00,0x00};
