<?xml version="1.0" encoding="UTF-8" standalone="no"?>
<svg
   width="120.945"
   height="32mm"
   viewBox="0 0 32 32"
   version="1.1"
   id="svg4"
   sodipodi:docname="checkbox_empty.svg"
   inkscape:version="1.1 (c4e8f9e, 2021-05-24)"
   xmlns:inkscape="http://www.inkscape.org/namespaces/inkscape"
   xmlns:sodipodi="http://sodipodi.sourceforge.net/DTD/sodipodi-0.dtd"
   xmlns="http://www.w3.org/2000/svg"
   xmlns:svg="http://www.w3.org/2000/svg">
  <defs
     id="defs8" />
  <sodipodi:namedview
     id="namedview6"
     pagecolor="#505050"
     bordercolor="#eeeeee"
     borderopacity="1"
     inkscape:pageshadow="0"
     inkscape:pageopacity="0"
     inkscape:pagecheckerboard="0"
     inkscape:document-units="mm"
     showgrid="false"
     inkscape:zoom="6.2259766"
     inkscape:cx="60.55275"
     inkscape:cy="60.472441"
     inkscape:window-width="1341"
     inkscape:window-height="1219"
     inkscape:window-x="0"
     inkscape:window-y="0"
     inkscape:window-maximized="0"
     inkscape:current-layer="svg4" />
  <rect
     style="display:inline;opacity:.74;fill:#fbf1ce;fill-opacity:1;stroke:#000;stroke-width:.799814;stroke-linecap:butt;stroke-linejoin:round;stroke-miterlimit:4;stroke-dasharray:none;stroke-dashoffset:0;stroke-opacity:1;paint-order:stroke fill markers"
     width="31.2"
     height="31.2"
     x="94.254"
     y="71.468"
     rx="8.158"
     ry="8.158"
     transform="translate(-93.854 -71.069)"
     id="rect2" />
  <path
     style="fill:#dbefe2;fill-opacity:0.6;stroke-width:0.160617"
     d="M 29.633905,119.23164 C 22.434678,118.46859 16.2736,115.68485 11.181034,110.89412 5.6167075,105.65961 2.2224687,98.392365 1.6883875,90.569878 1.4740275,87.430228 1.4760057,33.255703 1.6905891,30.279349 2.7700287,15.307114 14.201425,3.3868451 29.02526,1.7756912 c 2.15878,-0.2346308 60.735582,-0.2346308 62.894362,0 13.274208,1.4427306 24.074788,11.2781048 26.787128,24.3932778 0.21559,1.042471 0.46298,2.935186 0.54974,4.206035 0.21056,3.083935 0.21056,57.110939 0,60.194874 -0.72241,10.580992 -6.59207,19.842332 -15.8189,24.959612 -2.68862,1.49113 -6.125756,2.71232 -9.476427,3.36691 l -1.766791,0.34516 -30.999153,0.0248 c -17.049534,0.0136 -31.252125,-0.002 -31.561314,-0.0348 z"
     id="path1156"
     transform="scale(0.26458333)" />
</svg>
