<?xml version="1.0" encoding="UTF-8" standalone="no"?>
<svg
   width="120.945"
   height="120.945"
   viewBox="0 0 32 32"
   version="1.1"
   id="svg20"
   sodipodi:docname="checkbox.svg"
   inkscape:version="1.1 (c4e8f9e, 2021-05-24)"
   xmlns:inkscape="http://www.inkscape.org/namespaces/inkscape"
   xmlns:sodipodi="http://sodipodi.sourceforge.net/DTD/sodipodi-0.dtd"
   xmlns="http://www.w3.org/2000/svg"
   xmlns:svg="http://www.w3.org/2000/svg">
  <defs
     id="defs24" />
  <sodipodi:namedview
     id="namedview22"
     pagecolor="#505050"
     bordercolor="#eeeeee"
     borderopacity="1"
     inkscape:pageshadow="0"
     inkscape:pageopacity="0"
     inkscape:pagecheckerboard="0"
     showgrid="false"
     inkscape:zoom="6.2259705"
     inkscape:cx="60.4725"
     inkscape:cy="60.392191"
     inkscape:window-width="1250"
     inkscape:window-height="1086"
     inkscape:window-x="0"
     inkscape:window-y="0"
     inkscape:window-maximized="0"
     inkscape:current-layer="svg20" />
  <g
     transform="translate(87.185,-153.964)"
     id="g18">
    <rect
       style="display:inline;fill:#831c00;fill-opacity:1;stroke:none;stroke-width:1.48129;stroke-linecap:butt;stroke-linejoin:round;stroke-miterlimit:4;stroke-dasharray:none;stroke-dashoffset:0;stroke-opacity:1;paint-order:stroke fill markers"
       width="32"
       height="32"
       x="-87.184998"
       y="153.964"
       rx="8.533"
       ry="8.533"
       id="rect14" />
    <path
       style="display:inline;fill:#ffffff;fill-opacity:1;stroke:none;stroke-width:0.660594px;stroke-linecap:butt;stroke-linejoin:miter;stroke-opacity:1"
       d="m -61.074,163.108 -2.068,-2.224 c 0,0 -3.389,2.758 -5.121,4.841 -1.638,1.97 -5.602,6.5 -5.602,6.5 l -4.443,-4.077 -2.987,3.188 7.353,7.708 c 0,0 4.906,-6.738 7.244,-9.44 2.13,-2.462 5.624,-6.496 5.624,-6.496 z"
       id="path16" />
  </g>
  <path
     style="fill:#209a08;fill-opacity:1;stroke-width:0.160618"
     d="M 30.196096,120.78029 C 14.479203,119.77639 1.8352657,107.5815 0.24857148,91.896364 c -0.23203854,-2.2938 -0.23203854,-60.553928 0,-62.847728 C 1.0001416,21.619049 4.2755744,14.722025 9.5448252,9.4736721 14.5172,4.5210171 20.578363,1.5091882 27.867141,0.36920107 29.597519,0.09856473 31.647799,0.08030876 60.311882,0.08030876 c 24.534868,0 30.915895,0.04229489 32.203815,0.21345413 7.352955,0.97717751 13.791263,4.10689701 18.884473,9.17990921 5.26926,5.2483529 8.54469,12.1453769 9.29626,19.5749639 0.23204,2.2938 0.23204,60.553928 0,62.847728 -0.75157,7.429587 -4.027,14.326606 -9.29626,19.574966 -4.92664,4.9071 -10.85705,7.87708 -18.161694,9.09547 -1.55972,0.26015 -3.919948,0.28337 -31.400727,0.30895 -16.342834,0.0152 -30.581578,-0.0277 -31.641653,-0.0955 z M 58.148412,84.020345 C 65.729078,73.855514 72.143209,65.569704 75.879696,61.11497 76.546566,60.319913 81.959563,54.04461 87.908582,47.169852 93.8576,40.295095 98.691086,34.585141 98.649663,34.481068 c -0.05564,-0.139786 -5.408351,-5.986832 -7.564962,-8.263604 -0.268317,-0.283266 -3.493934,2.413088 -9.972511,8.336203 -3.994844,3.652335 -7.883635,7.715766 -11.662298,12.186034 -3.374889,3.992595 -9.818055,11.471394 -15.951066,18.51494 -1.6712,1.919314 -3.102055,3.489662 -3.179677,3.489662 -0.10539,0 -12.378457,-11.161518 -16.27936,-14.804969 l -0.492981,-0.460444 -5.664153,6.036096 c -3.115284,3.319854 -5.628984,6.122142 -5.585999,6.227304 0.04298,0.105163 6.309038,6.718587 13.924566,14.696496 l 13.846415,14.505291 1.548382,-2.120364 c 0.851612,-1.1662 3.791189,-5.127716 6.532393,-8.803368 z"
     id="path1022"
     transform="scale(0.26458308)" />
</svg>
