<?xml version="1.0" encoding="UTF-8" standalone="no"?>
<svg
   width="120.945"
   height="120.945"
   viewBox="0 0 32 32"
   version="1.1"
   id="svg6"
   sodipodi:docname="radiobutton.svg"
   inkscape:version="1.1 (c4e8f9e, 2021-05-24)"
   xmlns:inkscape="http://www.inkscape.org/namespaces/inkscape"
   xmlns:sodipodi="http://sodipodi.sourceforge.net/DTD/sodipodi-0.dtd"
   xmlns="http://www.w3.org/2000/svg"
   xmlns:svg="http://www.w3.org/2000/svg">
  <defs
     id="defs10" />
  <sodipodi:namedview
     id="namedview8"
     pagecolor="#505050"
     bordercolor="#eeeeee"
     borderopacity="1"
     inkscape:pageshadow="0"
     inkscape:pageopacity="0"
     inkscape:pagecheckerboard="0"
     showgrid="false"
     inkscape:zoom="6.2259705"
     inkscape:cx="60.392191"
     inkscape:cy="60.4725"
     inkscape:window-width="1457"
     inkscape:window-height="1265"
     inkscape:window-x="0"
     inkscape:window-y="0"
     inkscape:window-maximized="0"
     inkscape:current-layer="svg6" />
  <g
     style="display:inline"
     transform="translate(-131.87 -208.297)"
     id="g4">
    <rect
       style="display:inline;fill:#831c00;fill-opacity:1;stroke:none;stroke-width:1.48129;stroke-linecap:butt;stroke-linejoin:round;stroke-miterlimit:4;stroke-dasharray:none;stroke-dashoffset:0;stroke-opacity:1;paint-order:stroke fill markers"
       width="32"
       height="32"
       x="131.87"
       y="208.297"
       rx="17.067"
       ry="17.067"
       id="rect2" />
  </g>
  <path
     style="fill:#209a08;fill-opacity:1;stroke-width:0.160618"
     d="M 57.501076,120.77561 C 46.026012,120.24194 34.920893,116.41608 25.499324,109.75059 20.223048,106.01777 14.938034,100.73294 11.183761,95.43551 5.3126285,87.151112 1.8363503,78.056828 0.45921576,67.379054 c -0.40949378,-3.175059 -0.40949378,-10.63805 0,-13.813108 C 1.2775884,47.220596 2.6353365,42.086783 4.9044664,36.757903 12.672137,18.516112 28.978069,5.2203302 48.391497,1.2987781 59.032636,-0.85075413 70.74928,-0.04252362 80.685965,3.526496 c 5.226755,1.8773245 10.30088,4.5134167 14.759711,7.667914 13.374664,9.462201 22.469834,24.318148 24.760864,40.444126 2.15326,15.156303 -1.15405,29.875901 -9.54547,42.483336 -3.83562,5.762716 -9.51337,11.594698 -15.215394,15.628718 -4.422501,3.12879 -9.60537,5.82314 -14.73879,7.66205 -4.957622,1.77593 -11.342412,3.07056 -16.218948,3.28866 -1.104245,0.0494 -2.549803,0.1132 -3.212351,0.14181 -0.662547,0.0286 -2.361077,-0.002 -3.774511,-0.0675 z"
     id="path928"
     transform="scale(0.26458308)" />
</svg>
