<?xml version="1.0" encoding="UTF-8" standalone="no"?>
<svg
   width="120.945"
   height="120.945"
   viewBox="0 0 32 32"
   version="1.1"
   id="svg839"
   sodipodi:docname="radiobutton_empty.svg"
   inkscape:version="1.1 (c4e8f9e, 2021-05-24)"
   xmlns:inkscape="http://www.inkscape.org/namespaces/inkscape"
   xmlns:sodipodi="http://sodipodi.sourceforge.net/DTD/sodipodi-0.dtd"
   xmlns="http://www.w3.org/2000/svg"
   xmlns:svg="http://www.w3.org/2000/svg">
  <defs
     id="defs843" />
  <sodipodi:namedview
     id="namedview841"
     pagecolor="#505050"
     bordercolor="#eeeeee"
     borderopacity="1"
     inkscape:pageshadow="0"
     inkscape:pageopacity="0"
     inkscape:pagecheckerboard="0"
     showgrid="false"
     inkscape:zoom="6.2259705"
     inkscape:cx="60.4725"
     inkscape:cy="60.4725"
     inkscape:window-width="1324"
     inkscape:window-height="1019"
     inkscape:window-x="161"
     inkscape:window-y="324"
     inkscape:window-maximized="0"
     inkscape:current-layer="svg839" />
  <g
     transform="matrix(.9335 0 0 .92308 -41.871 -225.56)"
     id="g837">
    <rect
       transform="matrix(1.01254 0 0 1.02396 .18 -5.113)"
       ry="16.928"
       rx="16.928"
       y="245.102"
       x="45.592"
       height="32"
       width="32"
       style="display:inline;fill:#fff;fill-opacity:1;stroke:none;stroke-width:1.48128;stroke-linecap:butt;stroke-linejoin:round;stroke-miterlimit:4;stroke-dasharray:none;stroke-dashoffset:0;stroke-opacity:1;paint-order:stroke fill markers"
       id="rect831" />
    <rect
       style="display:inline;fill:#000;fill-opacity:1;stroke:none;stroke-width:1.59575;stroke-linecap:butt;stroke-linejoin:round;stroke-miterlimit:4;stroke-dasharray:none;stroke-dashoffset:0;stroke-opacity:1;paint-order:stroke fill markers"
       width="34.28"
       height="34.667"
       x="44.855"
       y="244.356"
       rx="18.134"
       ry="18.338"
       id="rect833" />
    <rect
       style="display:inline;fill:#fbf1ce;fill-opacity:1;stroke:none;stroke-width:1.5708;stroke-linecap:butt;stroke-linejoin:round;stroke-miterlimit:4;stroke-dasharray:none;stroke-dashoffset:0;stroke-opacity:1;paint-order:stroke fill markers"
       width="33.744"
       height="34.125"
       x="45.122"
       y="244.627"
       rx="17.43"
       ry="17.627"
       id="rect835" />
  </g>
  <path
     style="fill:#dbefe2;fill-opacity:0.6;stroke-width:0.160618"
     d="M 56.813056,119.80532 C 38.244412,118.68385 21.121117,108.80321 10.911476,93.318785 4.417656,83.469949 1.0473283,72.24721 1.0473283,60.4725 1.0473283,36.018308 15.897753,14.163831 38.628516,5.1665274 48.991283,1.0647308 60.726476,-0.02216936 71.715727,2.1020277 91.748936,5.9744013 108.32581,19.716285 115.77774,38.628516 c 6.48859,16.467376 5.26037,35.322342 -3.30098,50.67483 -8.128,14.575384 -21.610681,24.883004 -37.789609,28.890454 -3.58671,0.88842 -6.930262,1.38259 -11.002301,1.62612 -2.933761,0.17546 -3.753769,0.17372 -6.871794,-0.0146 z"
     id="path939"
     transform="scale(0.26458308)" />
</svg>
