<svg xmlns="http://www.w3.org/2000/svg" xmlns:xlink="http://www.w3.org/1999/xlink" width="110.572" height="111.604" viewBox="0 0 29.255 29.529"><defs><radialGradient fx="0" fy="0" cx="0" cy="0" r="1" gradientUnits="userSpaceOnUse" gradientTransform="matrix(3287.2 0 0 -3287.2 4605.88 3886.45)" spreadMethod="pad" id="c" xlink:href="#a"><stop style="stop-opacity:1;stop-color:#d0e4df" offset="0"/><stop style="stop-opacity:1;stop-color:#c1dcd6" offset="1"/></radialGradient><radialGradient fx="0" fy="0" cx="0" cy="0" r="1" gradientUnits="userSpaceOnUse" gradientTransform="matrix(3287.2 0 0 -3287.2 4605.88 3886.45)" spreadMethod="pad" id="a"><stop style="stop-opacity:1;stop-color:#aabbb7" offset="0"/><stop style="stop-opacity:1;stop-color:#9eb4af" offset="1"/></radialGradient><radialGradient fx="0" fy="0" cx="0" cy="0" r="1" gradientUnits="userSpaceOnUse" gradientTransform="matrix(3287.2 0 0 -3287.2 4605.88 3886.45)" spreadMethod="pad" id="e"><stop style="stop-opacity:1;stop-color:#edf5f3" offset="0"/><stop style="stop-opacity:1;stop-color:#e7f1ef" offset="1"/></radialGradient><radialGradient xlink:href="#a" id="g" gradientUnits="userSpaceOnUse" gradientTransform="matrix(3287.2 0 0 -3287.2 4605.88 3886.45)" cx="0" cy="0" fx="0" fy="0" r="1" spreadMethod="pad"/><clipPath clipPathUnits="userSpaceOnUse" id="b"><path d="M5276.42 2928.89c-96.59 0-193.45 6.52-290.25 19.29-279.36 36.87-578.24 121.66-812.01 285.81-64.87 45.55-126.21 96.12-181.59 152.59-326.66 489.24-360.25 1146.99-32.6 1679.91 289.68 471.18 791.37 730.48 1304.33 730.48 275.44 0 554.18-74.81 804.97-231.73 717.83-449.18 939.6-1403.77 494.36-2127.96a1556.916 1556.916 0 0 0-94.6-136.94c-185.25-131.71-400.36-227.13-615.71-289.89-189.09-55.11-382.42-81.56-576.9-81.56m-78.08 2712.34c-153.39 0-307.82-34.51-447.03-95.85-182.28-80.3-359.64-233-411.4-433.41-5.85-22.65 12.95-47.61 33.78-47.61 7.13 0 14.51 2.93 21.21 9.88 123.14 127.71 253.37 239.79 417.73 309.57 126.55 53.73 258.08 67.48 391.18 67.48 64.47 0 129.3-3.22 194.14-6.69 1.56-.08 3.11-.12 4.64-.12 90.37-.01 126.63 143.45 30.95 167.9-76.6 19.59-155.77 28.85-235.2 28.85"/></clipPath><clipPath clipPathUnits="userSpaceOnUse" id="f"><path d="M5259.3 2706.8c-275.44.01-554.18 74.81-804.97 231.73-189.57 118.63-344.53 272.48-461.76 448.05 55.38-56.47 116.72-107.04 181.59-152.59 233.77-164.15 532.65-248.94 812.01-285.81 96.8-12.77 193.66-19.29 290.25-19.29 194.48 0 387.81 26.45 576.9 81.56 215.35 62.76 430.46 158.18 615.71 289.89-297.11-384.19-748.89-593.56-1209.73-593.54"/></clipPath><clipPath clipPathUnits="userSpaceOnUse" id="d"><path d="M4373.69 5064.36c-20.83 0-39.63 24.96-33.78 47.61 51.76 200.41 229.12 353.11 411.4 433.41 139.21 61.34 293.64 95.85 447.03 95.85 79.43 0 158.6-9.26 235.2-28.85 95.68-24.45 59.42-167.91-30.95-167.9-1.53 0-3.08.04-4.64.12-64.84 3.47-129.67 6.69-194.14 6.69-133.1 0-264.63-13.75-391.18-67.48-164.36-69.78-294.59-181.86-417.73-309.57-6.7-6.95-14.08-9.88-21.21-9.88"/></clipPath></defs><g transform="translate(-50.042 -93.657)"><path style="display:inline;opacity:1;fill:#a5b8b4;fill-opacity:1;stroke:#5d5d5d;stroke-width:1;stroke-linecap:butt;stroke-linejoin:miter;stroke-miterlimit:4;stroke-dasharray:none;stroke-opacity:1" d="m60.637 110.21-9.88 10.128 2.306 2.14 9.468-10.209-.083.165"/><g clip-path="url(#b)" transform="matrix(.00665 0 0 -.00673 34.067 133.167)"><path d="M5276.42 2928.89c-96.59 0-193.45 6.52-290.25 19.29-279.36 36.87-578.24 121.66-812.01 285.81-64.87 45.55-126.21 96.12-181.59 152.59-326.66 489.24-360.25 1146.99-32.6 1679.91 289.68 471.18 791.37 730.48 1304.33 730.48 275.44 0 554.18-74.81 804.97-231.73 717.83-449.18 939.6-1403.77 494.36-2127.96a1556.916 1556.916 0 0 0-94.6-136.94c-185.25-131.71-400.36-227.13-615.71-289.89-189.09-55.11-382.42-81.56-576.9-81.56m-78.08 2712.34c-153.39 0-307.82-34.51-447.03-95.85-182.28-80.3-359.64-233-411.4-433.41-5.85-22.65 12.95-47.61 33.78-47.61 7.13 0 14.51 2.93 21.21 9.88 123.14 127.71 253.37 239.79 417.73 309.57 126.55 53.73 258.08 67.48 391.18 67.48 64.47 0 129.3-3.22 194.14-6.69 1.56-.08 3.11-.12 4.64-.12 90.37-.01 126.63 143.45 30.95 167.9-76.6 19.59-155.77 28.85-235.2 28.85" style="fill:url(#c);fill-opacity:1;fill-rule:nonzero;stroke:none"/></g><g clip-path="url(#d)" transform="matrix(.0076 -.0004 -.0004 -.00848 31.313 145.041)"><path d="M4373.69 5064.36c-20.83 0-39.63 24.96-33.78 47.61 51.76 200.41 229.12 353.11 411.4 433.41 139.21 61.34 293.64 95.85 447.03 95.85 79.43 0 158.6-9.26 235.2-28.85 95.68-24.45 59.42-167.91-30.95-167.9-1.53 0-3.08.04-4.64.12-64.84 3.47-129.67 6.69-194.14 6.69-133.1 0-264.63-13.75-391.18-67.48-164.36-69.78-294.59-181.86-417.73-309.57-6.7-6.95-14.08-9.88-21.21-9.88" style="fill:url(#e);fill-opacity:1;fill-rule:nonzero;stroke:none"/></g><g clip-path="url(#f)" transform="matrix(.00652 0 0 -.00737 34.912 134.838)"><path d="M5259.3 2706.8c-275.44.01-554.18 74.81-804.97 231.73-189.57 118.63-344.53 272.48-461.76 448.05 55.38-56.47 116.72-107.04 181.59-152.59 233.77-164.15 532.65-248.94 812.01-285.81 96.8-12.77 193.66-19.29 290.25-19.29 194.48 0 387.81 26.45 576.9 81.56 215.35 62.76 430.46 158.18 615.71 289.89-297.11-384.19-748.89-593.56-1209.73-593.54" style="fill:url(#g);fill-opacity:1;fill-rule:nonzero;stroke:none"/></g><ellipse style="display:inline;opacity:1;fill:none;fill-opacity:1;stroke:#5d5d5d;stroke-width:1.02;stroke-linecap:square;stroke-miterlimit:4;stroke-dasharray:none;stroke-opacity:1;paint-order:markers fill stroke" ry="10.405" rx="9.911" cy="104.571" cx="68.876"/></g></svg>