<svg xmlns="http://www.w3.org/2000/svg" width="32mm" height="32mm" viewBox="0 0 32 32"><path d="m-47.235 59.075 8.301-.13" style="fill:#fff;fill-opacity:1;stroke:#fff;stroke-width:1.871;stroke-linecap:butt;stroke-linejoin:miter;stroke-miterlimit:4;stroke-dasharray:none;stroke-opacity:1" transform="translate(54.679 -47.375)"/><path d="m-47.249 63.675 10.988-.1" style="fill:#fff;fill-opacity:1;stroke:#fff;stroke-width:1.89955;stroke-linecap:butt;stroke-linejoin:miter;stroke-miterlimit:4;stroke-dasharray:none;stroke-opacity:1" transform="translate(54.679 -47.375)"/><path d="m-47.249 68.31 17.14-.071" style="display:inline;fill:#fff;fill-opacity:1;stroke:#fff;stroke-width:2;stroke-linecap:butt;stroke-linejoin:miter;stroke-miterlimit:4;stroke-dasharray:none;stroke-opacity:1" transform="translate(54.679 -47.375)"/><g style="display:inline;stroke:none;stroke-width:1.00007;stroke-miterlimit:4;stroke-dasharray:none;stroke-opacity:1"><g style="display:inline;stroke:none;stroke-width:4.77069;stroke-miterlimit:4;stroke-dasharray:none;stroke-opacity:1"><path d="m183.796-3.214 15.535 15.535-39.323 39.323-15.526-15.535zM211.12-6.96l-6.928-6.928c-2.677-2.678-7.025-2.678-9.711 0l-6.637 6.636 15.535 15.535 7.74-7.741a5.296 5.296 0 0 0 0-7.502zm-74.766 64.904c-.283 1.273.866 2.413 2.138 2.103l17.311-4.197-15.526-15.535z" style="display:inline;fill:#fff;stroke:none;stroke-width:4.77069;stroke-miterlimit:4;stroke-dasharray:none;stroke-opacity:1" transform="matrix(.16188 -.00296 -.00265 .2165 -2.55 4.186)"/></g></g><path style="display:inline;fill:none;stroke:#fff;stroke-width:1.91454;stroke-linecap:butt;stroke-linejoin:miter;stroke-miterlimit:4;stroke-dasharray:none;stroke-opacity:1" d="M-32.679 53.332H-50.22v20.086h23.085V60.375" transform="translate(54.679 -47.375)"/></svg>