<svg xmlns="http://www.w3.org/2000/svg" width="32mm" height="32mm" viewBox="0 0 32 32"><defs><filter height="1.278" y="-.139" width="1.209" x="-.104" id="a" style="color-interpolation-filters:sRGB"><feGaussianBlur stdDeviation=".348"/></filter></defs><path style="fill:#fff;fill-opacity:1;stroke-width:.338061;filter:url(#a)" d="M169.922 168.267h8v6h-8z" transform="translate(-167.772 -165.386)"/><path style="fill:#fff;fill-opacity:1;stroke-width:.278173" d="M170.672 168.767h6.5v5h-6.5z" transform="translate(-167.772 -165.386)"/><path style="fill:#fff;fill-opacity:1;stroke-width:.338061;filter:url(#a)" d="M169.922 168.267h8v6h-8z" transform="translate(-157.687 -165.386)"/><path style="fill:#fff;fill-opacity:1;stroke-width:.278173" d="M170.672 168.767h6.5v5h-6.5z" transform="translate(-157.687 -165.386)"/><path style="fill:#fff;fill-opacity:1;stroke-width:.338061;filter:url(#a)" d="M169.922 168.267h8v6h-8z" transform="translate(-147.602 -165.386)"/><path style="fill:#fff;fill-opacity:1;stroke-width:.278173" d="M170.672 168.767h6.5v5h-6.5z" transform="translate(-147.602 -165.386)"/><path style="fill:#fff;fill-opacity:1;stroke-width:.338061;filter:url(#a)" d="M169.922 168.267h8v6h-8z" transform="translate(-167.772 -157.683)"/><path style="fill:#fff;fill-opacity:1;stroke-width:.278173" d="M170.672 168.767h6.5v5h-6.5z" transform="translate(-167.772 -157.683)"/><path style="fill:#fff;fill-opacity:1;stroke-width:.338061;filter:url(#a)" d="M169.922 168.267h8v6h-8z" transform="translate(-157.687 -157.683)"/><path style="fill:#fff;fill-opacity:1;stroke-width:.278173" d="M170.672 168.767h6.5v5h-6.5z" transform="translate(-157.687 -157.683)"/><path style="fill:#fff;fill-opacity:1;stroke-width:.338061;filter:url(#a)" d="M169.922 168.267h8v6h-8z" transform="translate(-147.602 -157.683)"/><path style="fill:#fff;fill-opacity:1;stroke-width:.278173" d="M170.672 168.767h6.5v5h-6.5z" transform="translate(-147.602 -157.683)"/><path style="fill:#fff;fill-opacity:1;stroke-width:.338061;filter:url(#a)" d="M169.922 168.267h8v6h-8z" transform="translate(-167.772 -149.745)"/><path style="fill:#fff;fill-opacity:1;stroke-width:.278173" d="M170.672 168.767h6.5v5h-6.5z" transform="translate(-167.772 -149.745)"/><path style="fill:#fff;fill-opacity:1;stroke-width:.338061;filter:url(#a)" d="M169.922 168.267h8v6h-8z" transform="translate(-157.687 -149.745)"/><path style="fill:#fff;fill-opacity:1;stroke-width:.278173" d="M170.672 168.767h6.5v5h-6.5z" transform="translate(-157.687 -149.745)"/><path style="fill:#fff;fill-opacity:1;stroke-width:.338061;filter:url(#a)" d="M169.922 168.267h8v6h-8z" transform="translate(-147.602 -149.745)"/><path style="fill:#fff;fill-opacity:1;stroke-width:.278173" d="M170.672 168.767h6.5v5h-6.5z" transform="translate(-147.602 -149.745)"/></svg>