<svg xmlns="http://www.w3.org/2000/svg" width="32mm" height="32mm" viewBox="0 0 32 32"><g style="font-style:normal;font-variant:normal;font-weight:400;font-stretch:normal;font-size:22.5778px;line-height:1.25;font-family:Arial;-inkscape-font-specification:Arial;fill:#000;fill-opacity:1;stroke:none;stroke-width:.264583"><path d="M25.675 161.482v-1.897l6.846-.01v5.997q-1.577 1.256-3.253 1.896-1.675.628-3.44.628-2.38 0-4.332-1.014-1.94-1.025-2.932-2.955-.992-1.929-.992-4.31 0-2.36.98-4.399.993-2.05 2.845-3.043 1.852-.992 4.266-.992 1.753 0 3.164.574 1.423.562 2.227 1.576.805 1.014 1.224 2.646l-1.93.529q-.363-1.235-.903-1.94-.54-.706-1.544-1.125-1.003-.43-2.226-.43-1.467 0-2.536.452-1.07.441-1.73 1.169-.651.728-1.015 1.598-.617 1.5-.617 3.253 0 2.16.738 3.616.75 1.455 2.172 2.16 1.422.706 3.02.706 1.39 0 2.713-.53 1.322-.54 2.006-1.146v-3.01z" style="font-style:normal;font-variant:normal;font-weight:400;font-stretch:normal;font-size:22.5778px;font-family:Arial;-inkscape-font-specification:Arial;stroke-width:.264583" transform="translate(-9.046 -149.863)" aria-label="G"/></g><path style="color:#000;font-style:normal;font-variant:normal;font-weight:400;font-stretch:normal;font-size:medium;line-height:normal;font-family:sans-serif;font-variant-ligatures:normal;font-variant-position:normal;font-variant-caps:normal;font-variant-numeric:normal;font-variant-alternates:normal;font-variant-east-asian:normal;font-feature-settings:normal;font-variation-settings:normal;text-indent:0;text-align:start;text-decoration:none;text-decoration-line:none;text-decoration-style:solid;text-decoration-color:#000;letter-spacing:normal;word-spacing:normal;text-transform:none;writing-mode:lr-tb;direction:ltr;text-orientation:mixed;dominant-baseline:auto;baseline-shift:baseline;text-anchor:start;white-space:normal;shape-padding:0;shape-margin:0;inline-size:0;clip-rule:nonzero;display:inline;overflow:visible;visibility:visible;isolation:auto;mix-blend-mode:normal;color-interpolation:sRGB;color-interpolation-filters:linearRGB;solid-color:#000;solid-opacity:1;vector-effect:none;fill:#000;fill-opacity:1;fill-rule:nonzero;stroke:none;stroke-linecap:butt;stroke-linejoin:bevel;stroke-miterlimit:2;stroke-dasharray:none;stroke-dashoffset:0;stroke-opacity:1;color-rendering:auto;image-rendering:auto;shape-rendering:auto;text-rendering:auto;enable-background:accumulate;stop-color:#000;stop-opacity:1" d="M12.05 174.223v1.974h23.005v-1.974z" transform="translate(-9.046 -149.863)"/><g style="opacity:1"><path style="color:#000;font-style:normal;font-variant:normal;font-weight:400;font-stretch:normal;font-size:medium;line-height:normal;font-family:sans-serif;font-variant-ligatures:normal;font-variant-position:normal;font-variant-caps:normal;font-variant-numeric:normal;font-variant-alternates:normal;font-variant-east-asian:normal;font-feature-settings:normal;font-variation-settings:normal;text-indent:0;text-align:start;text-decoration:none;text-decoration-line:none;text-decoration-style:solid;text-decoration-color:#000;letter-spacing:normal;word-spacing:normal;text-transform:none;writing-mode:lr-tb;direction:ltr;text-orientation:mixed;dominant-baseline:auto;baseline-shift:baseline;text-anchor:start;white-space:normal;shape-padding:0;shape-margin:0;inline-size:0;clip-rule:nonzero;display:inline;overflow:visible;visibility:visible;isolation:auto;mix-blend-mode:normal;color-interpolation:sRGB;color-interpolation-filters:linearRGB;solid-color:#000;solid-opacity:1;vector-effect:none;fill:#000;fill-opacity:1;fill-rule:evenodd;stroke:none;stroke-width:.740666;stroke-linecap:butt;stroke-linejoin:round;stroke-miterlimit:4;stroke-dasharray:none;stroke-dashoffset:0;stroke-opacity:1;color-rendering:auto;image-rendering:auto;shape-rendering:auto;text-rendering:auto;enable-background:accumulate;stop-color:#000;stop-opacity:1" d="m24.723 170.43 12.948 4.762-12.948 4.76c2.069-2.81 2.057-6.656 0-9.522z" transform="translate(-9.046 -149.863)"/><path style="color:#000;font-style:normal;font-variant:normal;font-weight:400;font-stretch:normal;font-size:medium;line-height:normal;font-family:sans-serif;font-variant-ligatures:normal;font-variant-position:normal;font-variant-caps:normal;font-variant-numeric:normal;font-variant-alternates:normal;font-variant-east-asian:normal;font-feature-settings:normal;font-variation-settings:normal;text-indent:0;text-align:start;text-decoration:none;text-decoration-line:none;text-decoration-style:solid;text-decoration-color:#000;letter-spacing:normal;word-spacing:normal;text-transform:none;writing-mode:lr-tb;direction:ltr;text-orientation:mixed;dominant-baseline:auto;baseline-shift:baseline;text-anchor:start;white-space:normal;shape-padding:0;shape-margin:0;inline-size:0;clip-rule:nonzero;display:inline;overflow:visible;visibility:visible;isolation:auto;mix-blend-mode:normal;color-interpolation:sRGB;color-interpolation-filters:linearRGB;solid-color:#000;solid-opacity:1;vector-effect:none;fill:#000;fill-opacity:1;fill-rule:evenodd;stroke:none;stroke-linecap:butt;stroke-linejoin:round;stroke-miterlimit:4;stroke-dasharray:none;stroke-dashoffset:0;stroke-opacity:1;color-rendering:auto;image-rendering:auto;shape-rendering:auto;text-rendering:auto;enable-background:accumulate;stop-color:#000;stop-opacity:1" d="M24.7 170.06a.37.37 0 0 0-.278.586c1.965 2.739 1.974 6.406.002 9.086a.37.37 0 0 0 .428.569l12.947-4.762a.37.37 0 0 0 0-.695l-12.947-4.762a.37.37 0 0 0-.153-.021zm.769 1.038 11.129 4.093-11.121 4.09c1.43-2.546 1.422-5.606-.008-8.183z" transform="translate(-9.046 -149.863)"/></g></svg>