<?xml version="1.0" encoding="UTF-8"?>
<!DOCTYPE svg PUBLIC "-//W3C//DTD SVG 1.1 Tiny//EN" "http://www.w3.org/Graphics/SVG/1.1/DTD/svg11-tiny.dtd">
<svg baseProfile="tiny" xmlns="http://www.w3.org/2000/svg" xmlns:xlink="http://www.w3.org/1999/xlink" version="1.0" width="64" height="64" viewBox="9 26.110352 256 256">
<metadata/>
<defs/>
<path d="M 249.05009,175.79971 C 248.53891,172.49798 247.74049,169.19936 246.65481,166.01745 C 244.6791,160.23291 241.91403,154.65205 238.4964,149.46763 C 236.32392,146.17631 234.09037,142.91366 231.68153,139.75934 C 229.45137,136.83425 227.17371,134.22747 224.56695,131.62588 C 223.74026,130.79914 222.40012,129.84113 222.07216,128.70756 C 221.69556,127.40207 222.75297,126.29976 223.40211,125.23964 C 224.20619,123.92114 224.94806,122.57502 225.79738,121.27787 C 227.24043,119.07377 228.67556,116.86445 230.06658,114.63325 C 234.87183,106.93946 239.32763,99.044058 243.4645,91.030924 C 245.92763,86.263259 248.09332,81.587795 247.50978,76.169476 C 247.25306,73.778352 246.07239,71.52788 244.62482,69.569657 C 239.25751,62.317618 231.87717,55.638095 224.07953,50.624545 C 218.42271,46.987846 212.35761,43.903345 206.11838,41.196529 C 193.73941,35.828738 180.59028,31.834152 167.22403,29.164322 C 160.40576,27.802058 153.42464,26.712246 146.4322,26.546587 C 124.6627,26.031896 100.03934,28.496474 80.296996,37.311862 C 73.836092,40.195278 67.506939,43.813744 61.941153,47.98545 C 51.870942,55.534948 43.25565,65.529749 36.935544,75.952759 C 34.371765,80.183853 32.219073,84.872333 30.804867,89.539465 C 28.571315,96.918087 28.082761,104.53791 28.284629,112.16294 C 28.313467,113.28975 28.366619,114.41394 28.443521,115.53657 C 28.909457,122.48698 30.263726,129.38843 32.524986,136.03305 C 33.648547,139.34312 34.99716,142.58598 36.563474,145.73873 C 39.861216,152.38022 44.280257,158.23665 48.557933,164.34731 C 49.959699,166.34981 49.175411,166.96765 48.021315,168.83262 C 47.228546,170.11206 46.438038,171.39254 45.638482,172.66572 C 44.037111,175.21625 42.426125,177.75949 40.837758,180.31837 C 37.87816,185.07978 35.20129,189.98288 32.264875,194.75472 C 28.544739,200.79244 24.471757,206.79161 22.644767,213.59303 C 21.740603,216.96562 21.542693,220.49448 22.381265,223.92124 C 24.132483,231.06961 28.956956,237.15526 34.331618,242.40949 C 37.329667,245.34448 41.158373,247.51785 44.664767,249.88918 C 59.186816,259.70061 77.54492,265.42784 94.769847,269.75584 C 112.22775,274.14322 130.71308,275.66021 148.78336,274.60893 C 184.31325,272.54496 222.35715,260.35596 239.61714,229.8902 C 242.86285,224.15671 245.42664,217.75745 247.18859,211.50406 C 250.41735,200.01936 250.85728,187.52508 249.05009,175.79971 z "/>
<image y="45.56538" x="49.37302" height="208.96297" width="173.89946" xlink:href="E:\scummvm_green.gif" style="fill:#000000;fill-opacity:1;stroke:#000000;stroke-opacity:1"/>
</svg>
