<?xml version="1.0" encoding="UTF-8" standalone="no"?>
<!-- Created with Inkscape (http://www.inkscape.org/) -->
<svg
   xmlns:svg="http://www.w3.org/2000/svg"
   xmlns="http://www.w3.org/2000/svg"
   version="1.0"
   width="273pt"
   height="273pt"
   viewBox="0 0 273 273"
   id="svg3355">
  <defs
     id="defs3357">
    <clipPath
       id="clip0">
      <rect
         width="273"
         height="273"
         x="0"
         y="0"
         id="rect3360" />
    </clipPath>
  </defs>
  <g
     clip-path="url(#clip0)"
     id="surface0">
    <path
       d="M 81.75827,11.843552 C 99.185074,3.356491 118.82336,0.862213 138.00571,0.615799 C 144.15343,0.613953 150.34019,0.625931 156.42033,1.658783 C 175.8623,4.861603 194.89494,11.158173 212.02666,20.958817 C 223.35754,27.385071 233.36095,36.328781 240.56186,47.207047 C 241.58862,49.345139 242.42867,51.567001 243.25914,53.788834 C 243.27243,56.754196 243.17444,59.719055 243.16071,62.685165 C 236.98769,78.116425 228.56966,92.467239 220.54062,106.96703 C 221.56213,108.27711 222.62512,109.55869 223.65251,110.86955 C 224.27544,111.6658 224.90338,112.46175 225.53635,113.2574 C 233.56848,123.828 240.42786,135.58237 243.61948,148.57173 C 245.38217,157.8519 245.66156,167.31802 245.46922,176.73869 C 243.30682,194.34628 237.47029,212.07388 225.68886,225.64803 C 212.37306,241.34766 192.87776,250.43543 173.18185,255.16789 C 155.92735,259.41773 137.93813,260.0854 120.29236,258.45695 C 97.156494,255.96178 74.741653,248.46469 54.120468,237.80371 C 48.764557,233.74808 43.165924,230.02408 37.839355,225.93091 C 33.394684,220.27356 28.85231,214.52399 26.378067,207.67673 C 23.221039,198.5448 25.656403,188.48348 30.200928,180.26292 C 35.684769,170.39848 40.850784,160.35234 46.653793,150.66895 C 47.611725,148.88768 48.898972,147.17262 49.205185,145.13179 C 47.463989,141.55798 44.98143,138.41586 43.046753,134.95165 C 33.71965,119.06528 29.649628,100.27075 31.029037,81.938217 C 31.506668,73.646225 33.304428,65.37088 36.830826,57.825165 C 46.200958,38.12825 61.907257,21.208023 81.75827,11.843552 z "
       style="opacity:1;fill:none;stroke:#000000;stroke-width:0.1;stroke-linecap:butt;stroke-linejoin:miter;stroke-miterlimit:10"
       id="path3367" />
    <path
       d="M 81.75827,11.843552 C 99.185074,3.356491 118.82336,0.862213 138.00571,0.615799 C 144.15343,0.613953 150.34019,0.625931 156.42033,1.658783 C 175.8623,4.861603 194.89494,11.158173 212.02666,20.958817 C 223.35754,27.385071 233.36095,36.328781 240.56186,47.207047 C 241.58862,49.345139 242.42867,51.567001 243.25914,53.788834 C 243.27243,56.754196 243.17444,59.719055 243.16071,62.685165 C 236.98769,78.116425 228.56966,92.467239 220.54062,106.96703 C 221.56213,108.27711 222.62512,109.55869 223.65251,110.86955 C 224.27544,111.6658 224.90338,112.46175 225.53635,113.2574 C 233.56848,123.828 240.42786,135.58237 243.61948,148.57173 C 245.38217,157.8519 245.66156,167.31802 245.46922,176.73869 C 243.30682,194.34628 237.47029,212.07388 225.68886,225.64803 C 212.37306,241.34766 192.87776,250.43543 173.18185,255.16789 C 155.92735,259.41773 137.93813,260.0854 120.29236,258.45695 C 97.156494,255.96178 74.741653,248.46469 54.120468,237.80371 C 48.764557,233.74808 43.165924,230.02408 37.839355,225.93091 C 33.394684,220.27356 28.85231,214.52399 26.378067,207.67673 C 23.221039,198.5448 25.656403,188.48348 30.200928,180.26292 C 35.684769,170.39848 40.850784,160.35234 46.653793,150.66895 C 47.611725,148.88768 48.898972,147.17262 49.205185,145.13179 C 47.463989,141.55798 44.98143,138.41586 43.046753,134.95165 C 33.71965,119.06528 29.649628,100.27075 31.029037,81.938217 C 31.506668,73.646225 33.304428,65.37088 36.830826,57.825165 C 46.200958,38.12825 61.907257,21.208023 81.75827,11.843552 z "
       style="opacity:1;fill:#000000;fill-rule:nonzero;stroke:none"
       id="path3369" />
    <path
       d="M 116.06322,24.833603 C 124.31642,23.456848 132.73112,23.721436 141.0591,24.034485 C 147.94457,24.567322 154.94955,25.280777 161.43166,27.817963 C 156.84447,29.65979 151.91597,30.23703 147.00256,29.901443 C 137.81679,29.400208 128.77963,31.853546 119.60109,31.320068 C 115.59039,31.190811 111.41161,30.971481 107.62975,32.56572 C 99.700439,35.77713 93.289673,41.622009 86.007034,45.961655 C 83.119461,47.680649 80.409668,49.699814 78.032501,52.080444 C 73.69223,56.899017 68.844559,61.241425 63.069519,64.276382 C 64.328598,58.609497 67.981689,53.937454 71.544449,49.5159 C 77.493774,42.210159 85.614914,37.097549 93.965378,32.951141 C 100.99733,29.466415 108.24606,26.072021 116.06322,24.833603 z "
       style="opacity:1;fill:none;stroke:#bde86e;stroke-width:0.1;stroke-linecap:butt;stroke-linejoin:miter;stroke-miterlimit:10"
       id="path3371" />
    <path
       d="M 116.06322,24.833603 C 124.31642,23.456848 132.73112,23.721436 141.0591,24.034485 C 147.94457,24.567322 154.94955,25.280777 161.43166,27.817963 C 156.84447,29.65979 151.91597,30.23703 147.00256,29.901443 C 137.81679,29.400208 128.77963,31.853546 119.60109,31.320068 C 115.59039,31.190811 111.41161,30.971481 107.62975,32.56572 C 99.700439,35.77713 93.289673,41.622009 86.007034,45.961655 C 83.119461,47.680649 80.409668,49.699814 78.032501,52.080444 C 73.69223,56.899017 68.844559,61.241425 63.069519,64.276382 C 64.328598,58.609497 67.981689,53.937454 71.544449,49.5159 C 77.493774,42.210159 85.614914,37.097549 93.965378,32.951141 C 100.99733,29.466415 108.24606,26.072021 116.06322,24.833603 z "
       style="opacity:1;fill:#bde86e;fill-rule:nonzero;stroke:none"
       id="path3373" />
    <path
       d="M 161.43166,27.817963 C 162.80765,27.350861 164.22702,28.069611 165.57191,28.345184 C 170.7269,29.932831 175.99541,31.421494 180.63951,34.253128 C 173.23198,35.451401 165.71571,35.370102 158.27826,34.5065 C 144.58324,33.207687 130.83028,34.38681 117.10835,34.257233 C 112.44607,34.128128 107.68323,35.058151 103.85371,37.852203 C 95.711258,43.37146 87.789124,49.677399 78.032501,52.080444 C 80.409668,49.699814 83.119461,47.680649 86.007034,45.961655 C 93.289673,41.622009 99.700439,35.77713 107.62975,32.56572 C 111.41161,30.971481 115.59039,31.190811 119.60109,31.320068 C 128.77963,31.853546 137.81679,29.400208 147.00256,29.901443 C 151.91597,30.23703 156.84447,29.65979 161.43166,27.817963 z "
       style="opacity:1;fill:none;stroke:#b8d951;stroke-width:0.1;stroke-linecap:butt;stroke-linejoin:miter;stroke-miterlimit:10"
       id="path3375" />
    <path
       d="M 161.43166,27.817963 C 162.80765,27.350861 164.22702,28.069611 165.57191,28.345184 C 170.7269,29.932831 175.99541,31.421494 180.63951,34.253128 C 173.23198,35.451401 165.71571,35.370102 158.27826,34.5065 C 144.58324,33.207687 130.83028,34.38681 117.10835,34.257233 C 112.44607,34.128128 107.68323,35.058151 103.85371,37.852203 C 95.711258,43.37146 87.789124,49.677399 78.032501,52.080444 C 80.409668,49.699814 83.119461,47.680649 86.007034,45.961655 C 93.289673,41.622009 99.700439,35.77713 107.62975,32.56572 C 111.41161,30.971481 115.59039,31.190811 119.60109,31.320068 C 128.77963,31.853546 137.81679,29.400208 147.00256,29.901443 C 151.91597,30.23703 156.84447,29.65979 161.43166,27.817963 z "
       style="opacity:1;fill:#b8d951;fill-rule:nonzero;stroke:none"
       id="path3377" />
    <path
       d="M 103.85371,37.852203 C 107.68323,35.058151 112.44607,34.128128 117.10835,34.257233 C 130.83028,34.38681 144.58324,33.207687 158.27826,34.5065 C 165.71571,35.370102 173.23198,35.451401 180.63951,34.253128 C 183.38562,33.950821 185.60269,35.993088 187.86433,37.210251 C 185.05347,38.31752 182.11703,39.255219 179.06557,39.250473 C 166.35458,39.483948 153.79126,36.113708 141.06438,37.42717 C 132.07912,38.342499 122.98055,35.935455 114.08531,37.98114 C 107.09715,39.413742 101.50209,44.091232 95.447952,47.543365 C 89.640091,51.127579 82.677444,52.853714 77.7957,57.859497 C 73.248962,62.572418 67.24765,65.327377 61.207245,67.58139 C 61.787277,66.484634 61.912857,64.958038 63.069519,64.276382 C 68.844559,61.241425 73.69223,56.899017 78.032501,52.080444 C 87.789124,49.677399 95.711258,43.37146 103.85371,37.852203 z "
       style="opacity:1;fill:none;stroke:#aed145;stroke-width:0.1;stroke-linecap:butt;stroke-linejoin:miter;stroke-miterlimit:10"
       id="path3379" />
    <path
       d="M 103.85371,37.852203 C 107.68323,35.058151 112.44607,34.128128 117.10835,34.257233 C 130.83028,34.38681 144.58324,33.207687 158.27826,34.5065 C 165.71571,35.370102 173.23198,35.451401 180.63951,34.253128 C 183.38562,33.950821 185.60269,35.993088 187.86433,37.210251 C 185.05347,38.31752 182.11703,39.255219 179.06557,39.250473 C 166.35458,39.483948 153.79126,36.113708 141.06438,37.42717 C 132.07912,38.342499 122.98055,35.935455 114.08531,37.98114 C 107.09715,39.413742 101.50209,44.091232 95.447952,47.543365 C 89.640091,51.127579 82.677444,52.853714 77.7957,57.859497 C 73.248962,62.572418 67.24765,65.327377 61.207245,67.58139 C 61.787277,66.484634 61.912857,64.958038 63.069519,64.276382 C 68.844559,61.241425 73.69223,56.899017 78.032501,52.080444 C 87.789124,49.677399 95.711258,43.37146 103.85371,37.852203 z "
       style="opacity:1;fill:#aed145;fill-rule:nonzero;stroke:none"
       id="path3381" />
    <path
       d="M 114.08531,37.98114 C 122.98055,35.935455 132.07912,38.342499 141.06438,37.42717 C 153.79126,36.113708 166.35458,39.483948 179.06557,39.250473 C 182.11703,39.255219 185.05347,38.31752 187.86433,37.210251 L 188.75569,36.869064 C 190.52838,38.111298 192.33131,39.307831 194.14624,40.493271 C 191.27431,42.391525 188.30873,44.892578 184.63049,44.587814 C 168.33598,43.695358 152.24911,38.784973 135.83476,40.667465 C 126.45512,41.769577 116.41232,39.151566 107.61362,43.543564 C 97.424561,48.408035 88.435135,55.360306 78.860596,61.27681 L 78.195236,61.771759 C 78.061417,60.466888 77.928238,59.162796 77.7957,57.859497 C 82.677444,52.853714 89.640091,51.127579 95.447952,47.543365 C 101.50209,44.091232 107.09715,39.413742 114.08531,37.98114 z "
       style="opacity:1;fill:none;stroke:#a1c735;stroke-width:0.1;stroke-linecap:butt;stroke-linejoin:miter;stroke-miterlimit:10"
       id="path3383" />
    <path
       d="M 114.08531,37.98114 C 122.98055,35.935455 132.07912,38.342499 141.06438,37.42717 C 153.79126,36.113708 166.35458,39.483948 179.06557,39.250473 C 182.11703,39.255219 185.05347,38.31752 187.86433,37.210251 L 188.75569,36.869064 C 190.52838,38.111298 192.33131,39.307831 194.14624,40.493271 C 191.27431,42.391525 188.30873,44.892578 184.63049,44.587814 C 168.33598,43.695358 152.24911,38.784973 135.83476,40.667465 C 126.45512,41.769577 116.41232,39.151566 107.61362,43.543564 C 97.424561,48.408035 88.435135,55.360306 78.860596,61.27681 L 78.195236,61.771759 C 78.061417,60.466888 77.928238,59.162796 77.7957,57.859497 C 82.677444,52.853714 89.640091,51.127579 95.447952,47.543365 C 101.50209,44.091232 107.09715,39.413742 114.08531,37.98114 z "
       style="opacity:1;fill:#a1c735;fill-rule:nonzero;stroke:none"
       id="path3385" />
    <path
       d="M 135.83476,40.667465 C 152.24911,38.784973 168.33598,43.695358 184.63049,44.587814 C 188.30873,44.892578 191.27431,42.391525 194.14624,40.493271 L 194.81065,40.005707 C 190.49872,45.734512 183.86784,48.670288 177.85214,52.184967 C 171.48561,50.892685 165.52522,48.002335 159.02307,47.331421 C 154.76819,46.855637 150.58896,45.939102 146.44585,44.888184 C 140.34062,43.345535 134.12436,45.13501 127.97644,45.306091 C 121.80948,45.708191 115.42246,44.51619 109.4512,46.580795 C 103.42596,48.704758 97.936951,52.075729 92.704971,55.692322 C 88.005249,58.957413 82.940262,61.811249 78.939941,65.969742 C 78.974106,64.404236 78.914032,62.839691 78.860596,61.27681 C 88.435135,55.360306 97.424561,48.408035 107.61362,43.543564 C 116.41232,39.151566 126.45512,41.769577 135.83476,40.667465 z "
       style="opacity:1;fill:none;stroke:#99c221;stroke-width:0.1;stroke-linecap:butt;stroke-linejoin:miter;stroke-miterlimit:10"
       id="path3387" />
    <path
       d="M 135.83476,40.667465 C 152.24911,38.784973 168.33598,43.695358 184.63049,44.587814 C 188.30873,44.892578 191.27431,42.391525 194.14624,40.493271 L 194.81065,40.005707 C 190.49872,45.734512 183.86784,48.670288 177.85214,52.184967 C 171.48561,50.892685 165.52522,48.002335 159.02307,47.331421 C 154.76819,46.855637 150.58896,45.939102 146.44585,44.888184 C 140.34062,43.345535 134.12436,45.13501 127.97644,45.306091 C 121.80948,45.708191 115.42246,44.51619 109.4512,46.580795 C 103.42596,48.704758 97.936951,52.075729 92.704971,55.692322 C 88.005249,58.957413 82.940262,61.811249 78.939941,65.969742 C 78.974106,64.404236 78.914032,62.839691 78.860596,61.27681 C 88.435135,55.360306 97.424561,48.408035 107.61362,43.543564 C 116.41232,39.151566 126.45512,41.769577 135.83476,40.667465 z "
       style="opacity:1;fill:#99c221;fill-rule:nonzero;stroke:none"
       id="path3389" />
    <path
       d="M 194.81065,40.005707 C 197.08299,41.384033 199.4003,42.686661 201.71294,44.00061 C 199.51666,46.490845 197.21144,48.942078 194.40034,50.748154 C 191.72751,52.403046 188.90274,53.788422 186.06854,55.137253 C 183.69017,55.087662 181.31825,54.904419 178.94257,54.886169 C 178.57738,53.984879 178.21391,53.084473 177.85214,52.184967 C 183.86784,48.670288 190.49872,45.734512 194.81065,40.005707 z "
       style="opacity:1;fill:none;stroke:#85b01e;stroke-width:0.1;stroke-linecap:butt;stroke-linejoin:miter;stroke-miterlimit:10"
       id="path3391" />
    <path
       d="M 194.81065,40.005707 C 197.08299,41.384033 199.4003,42.686661 201.71294,44.00061 C 199.51666,46.490845 197.21144,48.942078 194.40034,50.748154 C 191.72751,52.403046 188.90274,53.788422 186.06854,55.137253 C 183.69017,55.087662 181.31825,54.904419 178.94257,54.886169 C 178.57738,53.984879 178.21391,53.084473 177.85214,52.184967 C 183.86784,48.670288 190.49872,45.734512 194.81065,40.005707 z "
       style="opacity:1;fill:#85b01e;fill-rule:nonzero;stroke:none"
       id="path3393" />
    <path
       d="M 127.97644,45.306091 C 134.12436,45.13501 140.34062,43.345535 146.44585,44.888184 C 150.58896,45.939102 154.76819,46.855637 159.02307,47.331421 C 165.52522,48.002335 171.48561,50.892685 177.85214,52.184967 C 178.21391,53.084473 178.57738,53.984879 178.94257,54.886169 C 172.0862,57.262695 165.61061,61.898071 157.97984,60.81192 C 150.78227,60.700089 146.00566,54.402008 139.44783,52.523621 C 133.25433,51.945633 127.17479,54.777908 120.9657,53.65625 C 117.5168,53.178848 114.22559,51.543732 110.70641,51.684357 C 105.10478,52.96344 100.69157,57.032562 97.50441,61.642609 C 101.82498,65.785141 104.67017,71.069412 108.13538,75.8703 C 109.78381,78.590485 113.22063,77.769928 115.87456,78.062515 C 119.46928,77.942642 122.63232,79.835464 126.01704,80.706635 C 128.64636,81.084976 131.29042,80.409653 133.85996,79.900406 C 132.83174,82.524857 131.45361,85.131561 131.33591,88.001801 C 131.50424,90.404572 132.54222,92.62558 133.3797,94.852631 C 129.97002,97.718903 126.11787,101.68994 121.20618,100.12276 C 117.27373,99.917358 114.66232,96.968826 112.91887,93.741974 C 108.95787,96.842041 103.86516,97.152267 99.172073,98.340714 C 97.189774,101.01918 98.78653,104.45407 99.86171,107.16652 C 102.24992,112.18074 104.83083,117.26567 108.71631,121.30434 C 111.94382,124.65048 116.89331,124.9816 120.71851,127.32349 C 123.55316,129.85252 124.62259,133.89313 127.69499,136.19099 C 132.14459,138.3497 137.49147,137.69391 141.83964,140.11234 C 143.98164,142.13522 144.72322,145.15273 145.52507,147.89133 C 145.47356,149.26694 145.42998,150.64427 145.34744,152.02232 C 141.93996,149.53726 138.49902,146.07532 133.96428,146.25626 C 126.23656,146.60292 118.76277,149.0257 111.65741,151.94905 L 110.80383,152.29305 C 110.64107,147.71355 110.97307,143.11095 110.47429,138.54979 C 110.2477,135.53224 107.09796,134.22891 104.73998,133.10255 C 101.07141,131.63248 97.011047,129.91679 93.017319,131.09026 C 88.555527,132.36147 84.240555,134.097 79.787445,135.40175 C 74.881577,131.44807 70.587219,126.78545 67.257675,121.42532 C 70.740463,119.19901 74.65155,116.36739 74.760818,111.79012 C 75.03833,103.47386 73.926727,95.158249 74.263474,86.8284 C 74.508987,79.641876 76.625046,72.719162 78.939941,65.969742 C 82.940262,61.811249 88.005249,58.957413 92.704971,55.692322 C 97.936951,52.075729 103.42596,48.704758 109.4512,46.580795 C 115.42246,44.51619 121.80948,45.708191 127.97644,45.306091 z "
       style="opacity:1;fill:none;stroke:#91ba07;stroke-width:0.1;stroke-linecap:butt;stroke-linejoin:miter;stroke-miterlimit:10"
       id="path3395" />
    <path
       d="M 127.97644,45.306091 C 134.12436,45.13501 140.34062,43.345535 146.44585,44.888184 C 150.58896,45.939102 154.76819,46.855637 159.02307,47.331421 C 165.52522,48.002335 171.48561,50.892685 177.85214,52.184967 C 178.21391,53.084473 178.57738,53.984879 178.94257,54.886169 C 172.0862,57.262695 165.61061,61.898071 157.97984,60.81192 C 150.78227,60.700089 146.00566,54.402008 139.44783,52.523621 C 133.25433,51.945633 127.17479,54.777908 120.9657,53.65625 C 117.5168,53.178848 114.22559,51.543732 110.70641,51.684357 C 105.10478,52.96344 100.69157,57.032562 97.50441,61.642609 C 101.82498,65.785141 104.67017,71.069412 108.13538,75.8703 C 109.78381,78.590485 113.22063,77.769928 115.87456,78.062515 C 119.46928,77.942642 122.63232,79.835464 126.01704,80.706635 C 128.64636,81.084976 131.29042,80.409653 133.85996,79.900406 C 132.83174,82.524857 131.45361,85.131561 131.33591,88.001801 C 131.50424,90.404572 132.54222,92.62558 133.3797,94.852631 C 129.97002,97.718903 126.11787,101.68994 121.20618,100.12276 C 117.27373,99.917358 114.66232,96.968826 112.91887,93.741974 C 108.95787,96.842041 103.86516,97.152267 99.172073,98.340714 C 97.189774,101.01918 98.78653,104.45407 99.86171,107.16652 C 102.24992,112.18074 104.83083,117.26567 108.71631,121.30434 C 111.94382,124.65048 116.89331,124.9816 120.71851,127.32349 C 123.55316,129.85252 124.62259,133.89313 127.69499,136.19099 C 132.14459,138.3497 137.49147,137.69391 141.83964,140.11234 C 143.98164,142.13522 144.72322,145.15273 145.52507,147.89133 C 145.47356,149.26694 145.42998,150.64427 145.34744,152.02232 C 141.93996,149.53726 138.49902,146.07532 133.96428,146.25626 C 126.23656,146.60292 118.76277,149.0257 111.65741,151.94905 L 110.80383,152.29305 C 110.64107,147.71355 110.97307,143.11095 110.47429,138.54979 C 110.2477,135.53224 107.09796,134.22891 104.73998,133.10255 C 101.07141,131.63248 97.011047,129.91679 93.017319,131.09026 C 88.555527,132.36147 84.240555,134.097 79.787445,135.40175 C 74.881577,131.44807 70.587219,126.78545 67.257675,121.42532 C 70.740463,119.19901 74.65155,116.36739 74.760818,111.79012 C 75.03833,103.47386 73.926727,95.158249 74.263474,86.8284 C 74.508987,79.641876 76.625046,72.719162 78.939941,65.969742 C 82.940262,61.811249 88.005249,58.957413 92.704971,55.692322 C 97.936951,52.075729 103.42596,48.704758 109.4512,46.580795 C 115.42246,44.51619 121.80948,45.708191 127.97644,45.306091 z "
       style="opacity:1;fill:#91ba07;fill-rule:nonzero;stroke:none"
       id="path3397" />
    <path
       d="M 201.71294,44.00061 C 204.20523,45.446838 206.63834,46.992584 209.02678,48.607956 C 207.59503,56.360733 207.13464,64.470566 203.66464,71.680664 C 201.62019,76.150833 198.5406,80.103714 196.88332,84.755203 C 195.71954,87.686066 196.74793,90.812408 197.40147,93.728943 L 197.60486,94.567261 C 195.89136,94.295792 194.12222,94.205704 192.49251,93.580475 C 190.85771,92.317032 189.71405,90.563873 188.44994,88.962372 C 189.44876,82.939316 191.23766,76.923843 195.07736,72.061142 C 198.71446,67.361694 202.42932,61.620285 200.5683,55.393997 C 200.25211,52.215607 196.87132,51.58403 194.40034,50.748154 C 197.21144,48.942078 199.51666,46.490845 201.71294,44.00061 z "
       style="opacity:1;fill:none;stroke:#78b305;stroke-width:0.1;stroke-linecap:butt;stroke-linejoin:miter;stroke-miterlimit:10"
       id="path3399" />
    <path
       d="M 201.71294,44.00061 C 204.20523,45.446838 206.63834,46.992584 209.02678,48.607956 C 207.59503,56.360733 207.13464,64.470566 203.66464,71.680664 C 201.62019,76.150833 198.5406,80.103714 196.88332,84.755203 C 195.71954,87.686066 196.74793,90.812408 197.40147,93.728943 L 197.60486,94.567261 C 195.89136,94.295792 194.12222,94.205704 192.49251,93.580475 C 190.85771,92.317032 189.71405,90.563873 188.44994,88.962372 C 189.44876,82.939316 191.23766,76.923843 195.07736,72.061142 C 198.71446,67.361694 202.42932,61.620285 200.5683,55.393997 C 200.25211,52.215607 196.87132,51.58403 194.40034,50.748154 C 197.21144,48.942078 199.51666,46.490845 201.71294,44.00061 z "
       style="opacity:1;fill:#78b305;fill-rule:nonzero;stroke:none"
       id="path3401" />
    <path
       d="M 240.56186,47.207047 C 244.42799,47.993988 246.5313,51.478424 248.23686,54.700211 C 251.87383,61.46991 251.43739,69.818161 248.76279,76.845352 C 244.60555,87.774048 238.79846,97.962662 233.0154,108.09074 C 231.71431,110.56564 230.16962,113.07501 229.93257,115.92381 C 231.62135,119.96584 235.04523,122.91179 237.45554,126.50389 C 242.38065,133.64656 246.65607,141.33752 249.28001,149.6398 C 258.06062,176.94373 253.02977,208.16364 236.52104,231.55118 C 228.71957,243.11922 217.27332,251.85825 204.6478,257.59624 C 193.96455,263.41653 182.21062,267.05086 170.23444,269.02446 C 157.99049,270.98283 145.55196,272.51227 133.14037,271.45239 C 121.60051,270.42136 109.99696,269.22318 98.822815,266.01578 C 80.182541,260.71756 61.499146,253.91124 46.030701,241.91972 C 37.792297,236.06601 31.369064,227.69617 27.733673,218.2792 C 26.356796,214.92162 26.270325,211.24831 26.378067,207.67673 C 28.85231,214.52399 33.394684,220.27356 37.839355,225.93091 C 39.098984,228.62181 40.054657,231.60379 42.300949,233.67778 C 58.93396,248.13272 79.758301,256.75586 100.90453,262.21028 C 124.64015,268.40064 149.83189,269.32207 173.8277,264.01656 C 188.73471,261.11772 202.9191,254.97099 215.56377,246.61717 C 230.73196,236.41596 240.873,220.06317 245.82593,202.68701 C 247.65948,195.83878 248.65274,188.80545 249.95399,181.84607 C 251.62715,172.54701 250.26605,162.97389 247.82309,153.94188 C 247.38351,151.51769 245.46413,149.96715 243.61948,148.57173 C 240.42786,135.58237 233.56848,123.828 225.53635,113.2574 C 230.36198,104.17162 235.6989,95.362061 240.23614,86.122681 C 243.0911,80.27243 246.08327,74.295029 246.96292,67.770233 C 247.68364,62.779007 245.09166,58.233841 243.25914,53.788834 C 242.42867,51.567001 241.58862,49.345139 240.56186,47.207047 z "
       style="opacity:1;fill:none;stroke:#ebebeb;stroke-width:0.1;stroke-linecap:butt;stroke-linejoin:miter;stroke-miterlimit:10"
       id="path3403" />
    <path
       d="M 240.56186,47.207047 C 244.42799,47.993988 246.5313,51.478424 248.23686,54.700211 C 251.87383,61.46991 251.43739,69.818161 248.76279,76.845352 C 244.60555,87.774048 238.79846,97.962662 233.0154,108.09074 C 231.71431,110.56564 230.16962,113.07501 229.93257,115.92381 C 231.62135,119.96584 235.04523,122.91179 237.45554,126.50389 C 242.38065,133.64656 246.65607,141.33752 249.28001,149.6398 C 258.06062,176.94373 253.02977,208.16364 236.52104,231.55118 C 228.71957,243.11922 217.27332,251.85825 204.6478,257.59624 C 193.96455,263.41653 182.21062,267.05086 170.23444,269.02446 C 157.99049,270.98283 145.55196,272.51227 133.14037,271.45239 C 121.60051,270.42136 109.99696,269.22318 98.822815,266.01578 C 80.182541,260.71756 61.499146,253.91124 46.030701,241.91972 C 37.792297,236.06601 31.369064,227.69617 27.733673,218.2792 C 26.356796,214.92162 26.270325,211.24831 26.378067,207.67673 C 28.85231,214.52399 33.394684,220.27356 37.839355,225.93091 C 39.098984,228.62181 40.054657,231.60379 42.300949,233.67778 C 58.93396,248.13272 79.758301,256.75586 100.90453,262.21028 C 124.64015,268.40064 149.83189,269.32207 173.8277,264.01656 C 188.73471,261.11772 202.9191,254.97099 215.56377,246.61717 C 230.73196,236.41596 240.873,220.06317 245.82593,202.68701 C 247.65948,195.83878 248.65274,188.80545 249.95399,181.84607 C 251.62715,172.54701 250.26605,162.97389 247.82309,153.94188 C 247.38351,151.51769 245.46413,149.96715 243.61948,148.57173 C 240.42786,135.58237 233.56848,123.828 225.53635,113.2574 C 230.36198,104.17162 235.6989,95.362061 240.23614,86.122681 C 243.0911,80.27243 246.08327,74.295029 246.96292,67.770233 C 247.68364,62.779007 245.09166,58.233841 243.25914,53.788834 C 242.42867,51.567001 241.58862,49.345139 240.56186,47.207047 z "
       style="opacity:1;fill:#ebebeb;fill-rule:nonzero;stroke:none"
       id="path3405" />
    <path
       d="M 209.02678,48.607956 C 212.39409,51.163422 217.80368,53.16626 218.03255,58.024536 C 217.08762,64.561234 212.73065,69.875656 209.54112,75.46492 C 205.54031,81.580566 202.69481,88.543182 197.40147,93.728943 C 196.74793,90.812408 195.71954,87.686066 196.88332,84.755203 C 198.5406,80.103714 201.62019,76.150833 203.66464,71.680664 C 207.13464,64.470566 207.59503,56.360733 209.02678,48.607956 z "
       style="opacity:1;fill:none;stroke:#8ad407;stroke-width:0.1;stroke-linecap:butt;stroke-linejoin:miter;stroke-miterlimit:10"
       id="path3407" />
    <path
       d="M 209.02678,48.607956 C 212.39409,51.163422 217.80368,53.16626 218.03255,58.024536 C 217.08762,64.561234 212.73065,69.875656 209.54112,75.46492 C 205.54031,81.580566 202.69481,88.543182 197.40147,93.728943 C 196.74793,90.812408 195.71954,87.686066 196.88332,84.755203 C 198.5406,80.103714 201.62019,76.150833 203.66464,71.680664 C 207.13464,64.470566 207.59503,56.360733 209.02678,48.607956 z "
       style="opacity:1;fill:#8ad407;fill-rule:nonzero;stroke:none"
       id="path3409" />
    <path
       d="M 110.70641,51.684357 C 114.22559,51.543732 117.5168,53.178848 120.9657,53.65625 C 127.17479,54.777908 133.25433,51.945633 139.44783,52.523621 C 146.00566,54.402008 150.78227,60.700089 157.97984,60.81192 C 165.61061,61.898071 172.0862,57.262695 178.94257,54.886169 C 181.31825,54.904419 183.69017,55.087662 186.06854,55.137253 C 181.49252,58.190567 177.4911,62.215805 172.28778,64.238129 C 167.74503,65.971603 162.86552,66.908783 157.99922,66.834946 C 150.19577,66.721512 143.88528,60.659958 136.00752,60.882553 C 130.52477,60.98143 124.40944,61.38797 119.97517,64.974762 C 117.45348,66.732208 117.45482,71.320663 120.73543,72.197128 C 126.90984,73.964401 133.35413,74.659058 139.52455,76.510178 C 137.78575,77.849869 136.05983,79.397049 133.85996,79.900406 C 131.29042,80.409653 128.64636,81.084976 126.01704,80.706635 C 122.63232,79.835464 119.46928,77.942642 115.87456,78.062515 C 113.22063,77.769928 109.78381,78.590485 108.13538,75.8703 C 104.67017,71.069412 101.82498,65.785141 97.50441,61.642609 C 100.69157,57.032562 105.10478,52.96344 110.70641,51.684357 z "
       style="opacity:1;fill:none;stroke:#8aa807;stroke-width:0.1;stroke-linecap:butt;stroke-linejoin:miter;stroke-miterlimit:10"
       id="path3411" />
    <path
       d="M 110.70641,51.684357 C 114.22559,51.543732 117.5168,53.178848 120.9657,53.65625 C 127.17479,54.777908 133.25433,51.945633 139.44783,52.523621 C 146.00566,54.402008 150.78227,60.700089 157.97984,60.81192 C 165.61061,61.898071 172.0862,57.262695 178.94257,54.886169 C 181.31825,54.904419 183.69017,55.087662 186.06854,55.137253 C 181.49252,58.190567 177.4911,62.215805 172.28778,64.238129 C 167.74503,65.971603 162.86552,66.908783 157.99922,66.834946 C 150.19577,66.721512 143.88528,60.659958 136.00752,60.882553 C 130.52477,60.98143 124.40944,61.38797 119.97517,64.974762 C 117.45348,66.732208 117.45482,71.320663 120.73543,72.197128 C 126.90984,73.964401 133.35413,74.659058 139.52455,76.510178 C 137.78575,77.849869 136.05983,79.397049 133.85996,79.900406 C 131.29042,80.409653 128.64636,81.084976 126.01704,80.706635 C 122.63232,79.835464 119.46928,77.942642 115.87456,78.062515 C 113.22063,77.769928 109.78381,78.590485 108.13538,75.8703 C 104.67017,71.069412 101.82498,65.785141 97.50441,61.642609 C 100.69157,57.032562 105.10478,52.96344 110.70641,51.684357 z "
       style="opacity:1;fill:#8aa807;fill-rule:nonzero;stroke:none"
       id="path3413" />
    <path
       d="M 194.40034,50.748154 C 196.87132,51.58403 200.25211,52.215607 200.5683,55.393997 C 202.42932,61.620285 198.71446,67.361694 195.07736,72.061142 C 191.23766,76.923843 189.44876,82.939316 188.44994,88.962372 C 182.72286,83.621201 175.44047,80.40358 168.15518,77.794006 C 161.43985,75.447876 154.18034,74.0448 147.0862,75.266159 C 144.55768,75.631531 142.08472,76.403656 139.52455,76.510178 C 133.35413,74.659058 126.90984,73.964401 120.73543,72.197128 C 117.45482,71.320663 117.45348,66.732208 119.97517,64.974762 C 124.40944,61.38797 130.52477,60.98143 136.00752,60.882553 C 143.88528,60.659958 150.19577,66.721512 157.99922,66.834946 C 162.86552,66.908783 167.74503,65.971603 172.28778,64.238129 C 177.4911,62.215805 181.49252,58.190567 186.06854,55.137253 C 188.90274,53.788422 191.72751,52.403046 194.40034,50.748154 z "
       style="opacity:1;fill:none;stroke:#739702;stroke-width:0.1;stroke-linecap:butt;stroke-linejoin:miter;stroke-miterlimit:10"
       id="path3415" />
    <path
       d="M 194.40034,50.748154 C 196.87132,51.58403 200.25211,52.215607 200.5683,55.393997 C 202.42932,61.620285 198.71446,67.361694 195.07736,72.061142 C 191.23766,76.923843 189.44876,82.939316 188.44994,88.962372 C 182.72286,83.621201 175.44047,80.40358 168.15518,77.794006 C 161.43985,75.447876 154.18034,74.0448 147.0862,75.266159 C 144.55768,75.631531 142.08472,76.403656 139.52455,76.510178 C 133.35413,74.659058 126.90984,73.964401 120.73543,72.197128 C 117.45482,71.320663 117.45348,66.732208 119.97517,64.974762 C 124.40944,61.38797 130.52477,60.98143 136.00752,60.882553 C 143.88528,60.659958 150.19577,66.721512 157.99922,66.834946 C 162.86552,66.908783 167.74503,65.971603 172.28778,64.238129 C 177.4911,62.215805 181.49252,58.190567 186.06854,55.137253 C 188.90274,53.788422 191.72751,52.403046 194.40034,50.748154 z "
       style="opacity:1;fill:#739702;fill-rule:nonzero;stroke:none"
       id="path3417" />
    <path
       d="M 243.25914,53.788834 C 245.09166,58.233841 247.68364,62.779007 246.96292,67.770233 C 246.08327,74.295029 243.0911,80.27243 240.23614,86.122681 C 235.6989,95.362061 230.36198,104.17162 225.53635,113.2574 C 224.90338,112.46175 224.27544,111.6658 223.65251,110.86955 C 227.25157,102.63733 232.28166,95.149109 236.17731,87.06427 C 239.88231,79.454468 244.77057,71.526367 243.16071,62.685165 C 243.17444,59.719055 243.27243,56.754196 243.25914,53.788834 z "
       style="opacity:1;fill:none;stroke:#ababab;stroke-width:0.1;stroke-linecap:butt;stroke-linejoin:miter;stroke-miterlimit:10"
       id="path3419" />
    <path
       d="M 243.25914,53.788834 C 245.09166,58.233841 247.68364,62.779007 246.96292,67.770233 C 246.08327,74.295029 243.0911,80.27243 240.23614,86.122681 C 235.6989,95.362061 230.36198,104.17162 225.53635,113.2574 C 224.90338,112.46175 224.27544,111.6658 223.65251,110.86955 C 227.25157,102.63733 232.28166,95.149109 236.17731,87.06427 C 239.88231,79.454468 244.77057,71.526367 243.16071,62.685165 C 243.17444,59.719055 243.27243,56.754196 243.25914,53.788834 z "
       style="opacity:1;fill:#ababab;fill-rule:nonzero;stroke:none"
       id="path3421" />
    <path
       d="M 61.207245,67.58139 C 67.24765,65.327377 73.248962,62.572418 77.7957,57.859497 C 77.928238,59.162796 78.061417,60.466888 78.195236,61.771759 C 71.536713,66.155289 73.8013,75.457733 69.365356,81.256149 C 65.177521,84.380203 60.175888,86.329407 56.347778,89.989075 C 56.616135,82.368088 57.32515,74.310196 61.207245,67.58139 z "
       style="opacity:1;fill:none;stroke:#a8f02b;stroke-width:0.1;stroke-linecap:butt;stroke-linejoin:miter;stroke-miterlimit:10"
       id="path3423" />
    <path
       d="M 61.207245,67.58139 C 67.24765,65.327377 73.248962,62.572418 77.7957,57.859497 C 77.928238,59.162796 78.061417,60.466888 78.195236,61.771759 C 71.536713,66.155289 73.8013,75.457733 69.365356,81.256149 C 65.177521,84.380203 60.175888,86.329407 56.347778,89.989075 C 56.616135,82.368088 57.32515,74.310196 61.207245,67.58139 z "
       style="opacity:1;fill:#a8f02b;fill-rule:nonzero;stroke:none"
       id="path3425" />
    <path
       d="M 69.365356,81.256149 C 73.8013,75.457733 71.536713,66.155289 78.195236,61.771759 L 78.860596,61.27681 C 78.914032,62.839691 78.974106,64.404236 78.939941,65.969742 C 76.625046,72.719162 74.508987,79.641876 74.263474,86.8284 C 71.485764,87.944061 68.300461,88.807175 66.48056,91.384933 C 63.808426,95.091339 61.479004,99.068405 58.259918,102.35451 C 57.174942,98.312561 56.695419,94.148575 56.347778,89.989075 C 60.175888,86.329407 65.177521,84.380203 69.365356,81.256149 z "
       style="opacity:1;fill:none;stroke:#9eeb17;stroke-width:0.1;stroke-linecap:butt;stroke-linejoin:miter;stroke-miterlimit:10"
       id="path3427" />
    <path
       d="M 69.365356,81.256149 C 73.8013,75.457733 71.536713,66.155289 78.195236,61.771759 L 78.860596,61.27681 C 78.914032,62.839691 78.974106,64.404236 78.939941,65.969742 C 76.625046,72.719162 74.508987,79.641876 74.263474,86.8284 C 71.485764,87.944061 68.300461,88.807175 66.48056,91.384933 C 63.808426,95.091339 61.479004,99.068405 58.259918,102.35451 C 57.174942,98.312561 56.695419,94.148575 56.347778,89.989075 C 60.175888,86.329407 65.177521,84.380203 69.365356,81.256149 z "
       style="opacity:1;fill:#9eeb17;fill-rule:nonzero;stroke:none"
       id="path3429" />
    <path
       d="M 220.54062,106.96703 C 228.56966,92.467239 236.98769,78.116425 243.16071,62.685165 C 244.77057,71.526367 239.88231,79.454468 236.17731,87.06427 C 232.28166,95.149109 227.25157,102.63733 223.65251,110.86955 C 222.62512,109.55869 221.56213,108.27711 220.54062,106.96703 z "
       style="opacity:1;fill:none;stroke:#9c9c9c;stroke-width:0.1;stroke-linecap:butt;stroke-linejoin:miter;stroke-miterlimit:10"
       id="path3431" />
    <path
       d="M 220.54062,106.96703 C 228.56966,92.467239 236.98769,78.116425 243.16071,62.685165 C 244.77057,71.526367 239.88231,79.454468 236.17731,87.06427 C 232.28166,95.149109 227.25157,102.63733 223.65251,110.86955 C 222.62512,109.55869 221.56213,108.27711 220.54062,106.96703 z "
       style="opacity:1;fill:#9c9c9c;fill-rule:nonzero;stroke:none"
       id="path3433" />
    <path
       d="M 66.48056,91.384933 C 68.300461,88.807175 71.485764,87.944061 74.263474,86.8284 C 73.926727,95.158249 75.03833,103.47386 74.760818,111.79012 C 74.65155,116.36739 70.740463,119.19901 67.257675,121.42532 C 63.388809,115.51752 60.250671,109.14195 58.259918,102.35451 C 61.479004,99.068405 63.808426,95.091339 66.48056,91.384933 z "
       style="opacity:1;fill:none;stroke:#91de07;stroke-width:0.1;stroke-linecap:butt;stroke-linejoin:miter;stroke-miterlimit:10"
       id="path3435" />
    <path
       d="M 66.48056,91.384933 C 68.300461,88.807175 71.485764,87.944061 74.263474,86.8284 C 73.926727,95.158249 75.03833,103.47386 74.760818,111.79012 C 74.65155,116.36739 70.740463,119.19901 67.257675,121.42532 C 63.388809,115.51752 60.250671,109.14195 58.259918,102.35451 C 61.479004,99.068405 63.808426,95.091339 66.48056,91.384933 z "
       style="opacity:1;fill:#91de07;fill-rule:nonzero;stroke:none"
       id="path3437" />
    <path
       d="M 99.172073,98.340714 C 103.86516,97.152267 108.95787,96.842041 112.91887,93.741974 C 114.66232,96.968826 117.27373,99.917358 121.20618,100.12276 C 126.11787,101.68994 129.97002,97.718903 133.3797,94.852631 C 137.15147,97.704208 141.25305,100.13689 145.77161,101.60111 C 143.09555,102.78536 140.34538,104.62392 139.68111,107.6792 C 139.56581,109.50217 139.88744,111.31807 140.16359,113.11525 C 140.50433,114.98837 140.98254,116.83363 141.43718,118.68456 C 147.08412,121.78593 152.86305,126.77739 152.67328,133.80922 C 151.70111,139.0939 147.54962,143.02113 145.52507,147.89133 C 144.72322,145.15273 143.98164,142.13522 141.83964,140.11234 C 137.49147,137.69391 132.14459,138.3497 127.69499,136.19099 C 124.62259,133.89313 123.55316,129.85252 120.71851,127.32349 C 116.89331,124.9816 111.94382,124.65048 108.71631,121.30434 C 104.83083,117.26567 102.24992,112.18074 99.86171,107.16652 C 98.78653,104.45407 97.189774,101.01918 99.172073,98.340714 z "
       style="opacity:1;fill:none;stroke:#9cbd0f;stroke-width:0.1;stroke-linecap:butt;stroke-linejoin:miter;stroke-miterlimit:10"
       id="path3439" />
    <path
       d="M 99.172073,98.340714 C 103.86516,97.152267 108.95787,96.842041 112.91887,93.741974 C 114.66232,96.968826 117.27373,99.917358 121.20618,100.12276 C 126.11787,101.68994 129.97002,97.718903 133.3797,94.852631 C 137.15147,97.704208 141.25305,100.13689 145.77161,101.60111 C 143.09555,102.78536 140.34538,104.62392 139.68111,107.6792 C 139.56581,109.50217 139.88744,111.31807 140.16359,113.11525 C 140.50433,114.98837 140.98254,116.83363 141.43718,118.68456 C 147.08412,121.78593 152.86305,126.77739 152.67328,133.80922 C 151.70111,139.0939 147.54962,143.02113 145.52507,147.89133 C 144.72322,145.15273 143.98164,142.13522 141.83964,140.11234 C 137.49147,137.69391 132.14459,138.3497 127.69499,136.19099 C 124.62259,133.89313 123.55316,129.85252 120.71851,127.32349 C 116.89331,124.9816 111.94382,124.65048 108.71631,121.30434 C 104.83083,117.26567 102.24992,112.18074 99.86171,107.16652 C 98.78653,104.45407 97.189774,101.01918 99.172073,98.340714 z "
       style="opacity:1;fill:#9cbd0f;fill-rule:nonzero;stroke:none"
       id="path3441" />
    <path
       d="M 139.68111,107.6792 C 140.34538,104.62392 143.09555,102.78536 145.77161,101.60111 C 147.6528,102.29652 150.77452,102.19585 151.64192,104.17659 C 152.3149,106.54529 152.50853,109.15022 153.76933,111.30046 C 156.49561,113.78314 160.07832,115.00154 163.16992,116.94664 C 166.50565,118.78212 169.48558,121.51352 173.30927,122.28593 C 177.35802,122.71117 181.3934,121.85292 185.39966,121.36337 C 186.25134,119.62978 187.13084,117.91043 187.98808,116.18002 C 189.43646,116.88081 190.88586,117.58041 192.33954,118.28168 C 189.4193,123.35214 186.37027,128.99608 180.84079,131.60843 C 176.70827,133.40802 172.31668,134.50896 168.0954,136.07307 C 165.61789,136.78627 162.79031,138.15129 160.29602,136.76732 C 158.62494,135.86444 156.84525,134.11719 157.23413,132.04834 C 158.18333,128.93477 160.21922,126.26209 161.02513,123.0954 C 160.89798,121.21825 159.06171,120.24843 157.66597,119.34808 C 152.23592,116.31796 146.45721,113.59439 140.16359,113.11525 C 139.88744,111.31807 139.56581,109.50217 139.68111,107.6792 z "
       style="opacity:1;fill:none;stroke:#a1c528;stroke-width:0.1;stroke-linecap:butt;stroke-linejoin:miter;stroke-miterlimit:10"
       id="path3443" />
    <path
       d="M 139.68111,107.6792 C 140.34538,104.62392 143.09555,102.78536 145.77161,101.60111 C 147.6528,102.29652 150.77452,102.19585 151.64192,104.17659 C 152.3149,106.54529 152.50853,109.15022 153.76933,111.30046 C 156.49561,113.78314 160.07832,115.00154 163.16992,116.94664 C 166.50565,118.78212 169.48558,121.51352 173.30927,122.28593 C 177.35802,122.71117 181.3934,121.85292 185.39966,121.36337 C 186.25134,119.62978 187.13084,117.91043 187.98808,116.18002 C 189.43646,116.88081 190.88586,117.58041 192.33954,118.28168 C 189.4193,123.35214 186.37027,128.99608 180.84079,131.60843 C 176.70827,133.40802 172.31668,134.50896 168.0954,136.07307 C 165.61789,136.78627 162.79031,138.15129 160.29602,136.76732 C 158.62494,135.86444 156.84525,134.11719 157.23413,132.04834 C 158.18333,128.93477 160.21922,126.26209 161.02513,123.0954 C 160.89798,121.21825 159.06171,120.24843 157.66597,119.34808 C 152.23592,116.31796 146.45721,113.59439 140.16359,113.11525 C 139.88744,111.31807 139.56581,109.50217 139.68111,107.6792 z "
       style="opacity:1;fill:#a1c528;fill-rule:nonzero;stroke:none"
       id="path3445" />
    <path
       d="M 151.64192,104.17659 C 154.20483,104.44813 156.75334,104.8949 159.22542,105.64203 C 169.00131,108.59938 178.7169,111.86279 187.98808,116.18002 C 187.13084,117.91043 186.25134,119.62978 185.39966,121.36337 C 181.3934,121.85292 177.35802,122.71117 173.30927,122.28593 C 169.48558,121.51352 166.50565,118.78212 163.16992,116.94664 C 160.07832,115.00154 156.49561,113.78314 153.76933,111.30046 C 152.50853,109.15022 152.3149,106.54529 151.64192,104.17659 z "
       style="opacity:1;fill:none;stroke:#aecf42;stroke-width:0.1;stroke-linecap:butt;stroke-linejoin:miter;stroke-miterlimit:10"
       id="path3447" />
    <path
       d="M 151.64192,104.17659 C 154.20483,104.44813 156.75334,104.8949 159.22542,105.64203 C 169.00131,108.59938 178.7169,111.86279 187.98808,116.18002 C 187.13084,117.91043 186.25134,119.62978 185.39966,121.36337 C 181.3934,121.85292 177.35802,122.71117 173.30927,122.28593 C 169.48558,121.51352 166.50565,118.78212 163.16992,116.94664 C 160.07832,115.00154 156.49561,113.78314 153.76933,111.30046 C 152.50853,109.15022 152.3149,106.54529 151.64192,104.17659 z "
       style="opacity:1;fill:#aecf42;fill-rule:nonzero;stroke:none"
       id="path3449" />
    <path
       d="M 140.16359,113.11525 C 146.45721,113.59439 152.23592,116.31796 157.66597,119.34808 C 159.06171,120.24843 160.89798,121.21825 161.02513,123.0954 C 160.21922,126.26209 158.18333,128.93477 157.23413,132.04834 C 156.84525,134.11719 158.62494,135.86444 160.29602,136.76732 C 162.79031,138.15129 165.61789,136.78627 168.0954,136.07307 C 172.31668,134.50896 176.70827,133.40802 180.84079,131.60843 C 186.37027,128.99608 189.4193,123.35214 192.33954,118.28168 C 194.63452,119.77968 196.91515,121.30078 199.18555,122.84056 C 195.57437,128.27704 194.02751,134.78668 190.23744,140.1135 C 188.51608,141.41022 186.54947,142.45367 185.15651,144.13327 C 182.41379,148.01401 181.57349,152.95958 178.52795,156.65668 C 174.50853,157.02254 170.47463,155.87581 166.47292,156.51298 C 163.23125,157.6096 160.77927,160.21451 157.61493,161.47249 C 154.72597,161.60248 151.9391,160.55675 149.0602,160.52988 C 146.91461,160.62927 144.92708,161.54205 142.91983,162.21523 C 142.63579,161.97305 142.06772,161.48872 141.78368,161.24655 C 143.98033,158.65701 145.24596,155.42154 145.34744,152.02232 C 145.42998,150.64427 145.47356,149.26694 145.52507,147.89133 C 147.54962,143.02113 151.70111,139.0939 152.67328,133.80922 C 152.86305,126.77739 147.08412,121.78593 141.43718,118.68456 C 140.98254,116.83363 140.50433,114.98837 140.16359,113.11525 z "
       style="opacity:1;fill:none;stroke:#91bd1e;stroke-width:0.1;stroke-linecap:butt;stroke-linejoin:miter;stroke-miterlimit:10"
       id="path3451" />
    <path
       d="M 140.16359,113.11525 C 146.45721,113.59439 152.23592,116.31796 157.66597,119.34808 C 159.06171,120.24843 160.89798,121.21825 161.02513,123.0954 C 160.21922,126.26209 158.18333,128.93477 157.23413,132.04834 C 156.84525,134.11719 158.62494,135.86444 160.29602,136.76732 C 162.79031,138.15129 165.61789,136.78627 168.0954,136.07307 C 172.31668,134.50896 176.70827,133.40802 180.84079,131.60843 C 186.37027,128.99608 189.4193,123.35214 192.33954,118.28168 C 194.63452,119.77968 196.91515,121.30078 199.18555,122.84056 C 195.57437,128.27704 194.02751,134.78668 190.23744,140.1135 C 188.51608,141.41022 186.54947,142.45367 185.15651,144.13327 C 182.41379,148.01401 181.57349,152.95958 178.52795,156.65668 C 174.50853,157.02254 170.47463,155.87581 166.47292,156.51298 C 163.23125,157.6096 160.77927,160.21451 157.61493,161.47249 C 154.72597,161.60248 151.9391,160.55675 149.0602,160.52988 C 146.91461,160.62927 144.92708,161.54205 142.91983,162.21523 C 142.63579,161.97305 142.06772,161.48872 141.78368,161.24655 C 143.98033,158.65701 145.24596,155.42154 145.34744,152.02232 C 145.42998,150.64427 145.47356,149.26694 145.52507,147.89133 C 147.54962,143.02113 151.70111,139.0939 152.67328,133.80922 C 152.86305,126.77739 147.08412,121.78593 141.43718,118.68456 C 140.98254,116.83363 140.50433,114.98837 140.16359,113.11525 z "
       style="opacity:1;fill:#91bd1e;fill-rule:nonzero;stroke:none"
       id="path3453" />
    <path
       d="M 199.18555,122.84056 C 208.93071,129.56995 217.7888,139.32317 219.35272,151.50134 C 211.43066,150.20544 205.87088,143.92702 200.68957,138.34854 C 198.71407,139.58116 196.72278,140.79274 194.8241,142.14053 C 193.15044,141.70021 191.48215,141.24858 189.81367,140.80791 L 190.23744,140.1135 C 194.02751,134.78668 195.57437,128.27704 199.18555,122.84056 z "
       style="opacity:1;fill:none;stroke:#82b30a;stroke-width:0.1;stroke-linecap:butt;stroke-linejoin:miter;stroke-miterlimit:10"
       id="path3455" />
    <path
       d="M 199.18555,122.84056 C 208.93071,129.56995 217.7888,139.32317 219.35272,151.50134 C 211.43066,150.20544 205.87088,143.92702 200.68957,138.34854 C 198.71407,139.58116 196.72278,140.79274 194.8241,142.14053 C 193.15044,141.70021 191.48215,141.24858 189.81367,140.80791 L 190.23744,140.1135 C 194.02751,134.78668 195.57437,128.27704 199.18555,122.84056 z "
       style="opacity:1;fill:#82b30a;fill-rule:nonzero;stroke:none"
       id="path3457" />
    <path
       d="M 93.017319,131.09026 C 97.011047,129.91679 101.07141,131.63248 104.73998,133.10255 C 107.09796,134.22891 110.2477,135.53224 110.47429,138.54979 C 110.97307,143.11095 110.64107,147.71355 110.80383,152.29305 C 100.28735,147.01865 89.070404,142.82811 79.787445,135.40175 C 84.240555,134.097 88.555527,132.36147 93.017319,131.09026 z "
       style="opacity:1;fill:none;stroke:#78a305;stroke-width:0.1;stroke-linecap:butt;stroke-linejoin:miter;stroke-miterlimit:10"
       id="path3459" />
    <path
       d="M 93.017319,131.09026 C 97.011047,129.91679 101.07141,131.63248 104.73998,133.10255 C 107.09796,134.22891 110.2477,135.53224 110.47429,138.54979 C 110.97307,143.11095 110.64107,147.71355 110.80383,152.29305 C 100.28735,147.01865 89.070404,142.82811 79.787445,135.40175 C 84.240555,134.097 88.555527,132.36147 93.017319,131.09026 z "
       style="opacity:1;fill:#78a305;fill-rule:nonzero;stroke:none"
       id="path3461" />
    <path
       d="M 194.8241,142.14053 C 196.72278,140.79274 198.71407,139.58116 200.68957,138.34854 C 205.87088,143.92702 211.43066,150.20544 219.35272,151.50134 L 220.19722,151.70982 C 220.21863,152.7249 220.21875,153.74184 220.1976,154.76065 C 220.11938,155.60204 219.96295,157.28481 219.88474,158.12621 C 214.3103,156.85791 209.17177,154.357 203.98375,152.05139 C 201.50938,151.12662 197.44223,149.81963 195.97816,152.91237 C 192.88438,158.88654 191.35109,165.7276 186.95216,170.98982 C 184.0988,174.56993 179.56346,176.15628 176.42889,179.41093 C 173.89479,184.21701 176.15611,190.87451 172.00035,194.98187 C 168.34676,197.78131 163.48318,197.93041 159.26939,199.4498 C 154.05023,201.19821 149.00331,203.47652 143.60542,204.66667 C 139.04475,205.66606 134.85738,207.74178 130.61175,209.60106 C 126.51997,211.47829 122.01714,209.94499 117.8465,209.22778 C 106.71227,206.83844 95.286606,206.66934 83.971863,205.88419 C 79.336823,205.60996 74.875732,204.207 70.629761,202.39932 C 64.221878,199.64355 57.342896,198.34972 50.65831,196.47363 C 51.341217,195.64381 52.022476,194.81456 52.702057,193.98587 C 56.962784,195.81166 61.389603,197.21112 65.900009,198.27481 C 71.636032,199.60877 77.144867,202.06232 83.087708,202.38124 C 88.726639,202.67952 94.389908,202.40488 100.01653,202.99063 C 108.4243,203.61569 116.52673,206.60612 125.01592,206.4154 C 130.5578,206.47707 135.9001,204.83994 141.16122,203.29341 C 149.95775,200.79486 158.70136,197.4836 166.22594,192.20259 C 171.14461,188.70505 170.75848,181.82407 174.41098,177.43808 C 178.15541,173.77522 183.60222,172.04416 186.5192,167.49561 C 191.78561,159.93781 189.74341,149.7688 194.8241,142.14053 z "
       style="opacity:1;fill:none;stroke:#6ea307;stroke-width:0.1;stroke-linecap:butt;stroke-linejoin:miter;stroke-miterlimit:10"
       id="path3463" />
    <path
       d="M 194.8241,142.14053 C 196.72278,140.79274 198.71407,139.58116 200.68957,138.34854 C 205.87088,143.92702 211.43066,150.20544 219.35272,151.50134 L 220.19722,151.70982 C 220.21863,152.7249 220.21875,153.74184 220.1976,154.76065 C 220.11938,155.60204 219.96295,157.28481 219.88474,158.12621 C 214.3103,156.85791 209.17177,154.357 203.98375,152.05139 C 201.50938,151.12662 197.44223,149.81963 195.97816,152.91237 C 192.88438,158.88654 191.35109,165.7276 186.95216,170.98982 C 184.0988,174.56993 179.56346,176.15628 176.42889,179.41093 C 173.89479,184.21701 176.15611,190.87451 172.00035,194.98187 C 168.34676,197.78131 163.48318,197.93041 159.26939,199.4498 C 154.05023,201.19821 149.00331,203.47652 143.60542,204.66667 C 139.04475,205.66606 134.85738,207.74178 130.61175,209.60106 C 126.51997,211.47829 122.01714,209.94499 117.8465,209.22778 C 106.71227,206.83844 95.286606,206.66934 83.971863,205.88419 C 79.336823,205.60996 74.875732,204.207 70.629761,202.39932 C 64.221878,199.64355 57.342896,198.34972 50.65831,196.47363 C 51.341217,195.64381 52.022476,194.81456 52.702057,193.98587 C 56.962784,195.81166 61.389603,197.21112 65.900009,198.27481 C 71.636032,199.60877 77.144867,202.06232 83.087708,202.38124 C 88.726639,202.67952 94.389908,202.40488 100.01653,202.99063 C 108.4243,203.61569 116.52673,206.60612 125.01592,206.4154 C 130.5578,206.47707 135.9001,204.83994 141.16122,203.29341 C 149.95775,200.79486 158.70136,197.4836 166.22594,192.20259 C 171.14461,188.70505 170.75848,181.82407 174.41098,177.43808 C 178.15541,173.77522 183.60222,172.04416 186.5192,167.49561 C 191.78561,159.93781 189.74341,149.7688 194.8241,142.14053 z "
       style="opacity:1;fill:#6ea307;fill-rule:nonzero;stroke:none"
       id="path3465" />
    <path
       d="M 185.15651,144.13327 C 186.54947,142.45367 188.51608,141.41022 190.23744,140.1135 L 189.81367,140.80791 C 187.48093,144.99379 184.93365,149.2513 184.28334,154.08714 C 183.59573,157.40181 183.76044,161.01999 182.08969,164.05467 C 178.42473,169.03857 171.42874,169.74104 167.4153,174.3019 C 165.17673,178.7485 165.85216,184.45117 162.26451,188.25169 C 155.80637,194.89021 147.43948,199.8243 138.21687,201.30878 C 132.64404,202.47414 126.77084,203.4538 121.17748,201.854 C 115.55037,200.50853 110.29173,196.99239 104.31123,197.64708 C 99.167007,198.16002 93.969727,199.32567 88.806824,198.28966 C 82.597061,197.0899 76.423508,195.35696 70.034027,195.60361 C 65.833939,195.87857 61.931839,194.26587 58.280029,192.39026 C 62.591553,192.51327 66.974777,192.31848 71.125946,191.04639 C 75.912979,189.63379 80.724854,187.49329 85.836838,188.13539 C 101.26639,190.17427 115.11247,199.89803 131.01737,199.02231 C 137.95734,198.83022 145.16017,197.19641 150.56348,192.59596 C 155.43112,188.90091 158.90396,182.64262 157.62174,176.42761 C 156.25894,171.04347 152.78729,166.56448 149.93921,161.90219 C 146.21915,162.93875 142.48454,163.91963 138.7486,164.89337 C 139.76631,163.6823 140.80025,162.48509 141.78368,161.24655 C 142.06772,161.48872 142.63579,161.97305 142.91983,162.21523 C 144.92708,161.54205 146.91461,160.62927 149.0602,160.52988 C 151.9391,160.55675 154.72597,161.60248 157.61493,161.47249 C 160.77927,160.21451 163.23125,157.6096 166.47292,156.51298 C 170.47463,155.87581 174.50853,157.02254 178.52795,156.65668 C 181.57349,152.95958 182.41379,148.01401 185.15651,144.13327 z "
       style="opacity:1;fill:none;stroke:#7db826;stroke-width:0.1;stroke-linecap:butt;stroke-linejoin:miter;stroke-miterlimit:10"
       id="path3467" />
    <path
       d="M 185.15651,144.13327 C 186.54947,142.45367 188.51608,141.41022 190.23744,140.1135 L 189.81367,140.80791 C 187.48093,144.99379 184.93365,149.2513 184.28334,154.08714 C 183.59573,157.40181 183.76044,161.01999 182.08969,164.05467 C 178.42473,169.03857 171.42874,169.74104 167.4153,174.3019 C 165.17673,178.7485 165.85216,184.45117 162.26451,188.25169 C 155.80637,194.89021 147.43948,199.8243 138.21687,201.30878 C 132.64404,202.47414 126.77084,203.4538 121.17748,201.854 C 115.55037,200.50853 110.29173,196.99239 104.31123,197.64708 C 99.167007,198.16002 93.969727,199.32567 88.806824,198.28966 C 82.597061,197.0899 76.423508,195.35696 70.034027,195.60361 C 65.833939,195.87857 61.931839,194.26587 58.280029,192.39026 C 62.591553,192.51327 66.974777,192.31848 71.125946,191.04639 C 75.912979,189.63379 80.724854,187.49329 85.836838,188.13539 C 101.26639,190.17427 115.11247,199.89803 131.01737,199.02231 C 137.95734,198.83022 145.16017,197.19641 150.56348,192.59596 C 155.43112,188.90091 158.90396,182.64262 157.62174,176.42761 C 156.25894,171.04347 152.78729,166.56448 149.93921,161.90219 C 146.21915,162.93875 142.48454,163.91963 138.7486,164.89337 C 139.76631,163.6823 140.80025,162.48509 141.78368,161.24655 C 142.06772,161.48872 142.63579,161.97305 142.91983,162.21523 C 144.92708,161.54205 146.91461,160.62927 149.0602,160.52988 C 151.9391,160.55675 154.72597,161.60248 157.61493,161.47249 C 160.77927,160.21451 163.23125,157.6096 166.47292,156.51298 C 170.47463,155.87581 174.50853,157.02254 178.52795,156.65668 C 181.57349,152.95958 182.41379,148.01401 185.15651,144.13327 z "
       style="opacity:1;fill:#7db826;fill-rule:nonzero;stroke:none"
       id="path3469" />
    <path
       d="M 189.81367,140.80791 C 191.48215,141.24858 193.15044,141.70021 194.8241,142.14053 C 189.74341,149.7688 191.78561,159.93781 186.5192,167.49561 C 183.60222,172.04416 178.15541,173.77522 174.41098,177.43808 C 170.75848,181.82407 171.14461,188.70505 166.22594,192.20259 C 158.70136,197.4836 149.95775,200.79486 141.16122,203.29341 C 135.9001,204.83994 130.5578,206.47707 125.01592,206.4154 C 116.52673,206.60612 108.4243,203.61569 100.01653,202.99063 C 94.389908,202.40488 88.726639,202.67952 83.087708,202.38124 C 77.144867,202.06232 71.636032,199.60877 65.900009,198.27481 C 61.389603,197.21112 56.962784,195.81166 52.702057,193.98587 C 53.389191,192.97597 54.076477,191.96893 54.766525,190.96516 C 55.631668,191.31293 56.497574,191.66289 57.364227,192.01506 L 58.280029,192.39026 C 61.931839,194.26587 65.833939,195.87857 70.034027,195.60361 C 76.423508,195.35696 82.597061,197.0899 88.806824,198.28966 C 93.969727,199.32567 99.167007,198.16002 104.31123,197.64708 C 110.29173,196.99239 115.55037,200.50853 121.17748,201.854 C 126.77084,203.4538 132.64404,202.47414 138.21687,201.30878 C 147.43948,199.8243 155.80637,194.89021 162.26451,188.25169 C 165.85216,184.45117 165.17673,178.7485 167.4153,174.3019 C 171.42874,169.74104 178.42473,169.03857 182.08969,164.05467 C 183.76044,161.01999 183.59573,157.40181 184.28334,154.08714 C 184.93365,149.2513 187.48093,144.99379 189.81367,140.80791 z "
       style="opacity:1;fill:none;stroke:#75ae17;stroke-width:0.1;stroke-linecap:butt;stroke-linejoin:miter;stroke-miterlimit:10"
       id="path3471" />
    <path
       d="M 189.81367,140.80791 C 191.48215,141.24858 193.15044,141.70021 194.8241,142.14053 C 189.74341,149.7688 191.78561,159.93781 186.5192,167.49561 C 183.60222,172.04416 178.15541,173.77522 174.41098,177.43808 C 170.75848,181.82407 171.14461,188.70505 166.22594,192.20259 C 158.70136,197.4836 149.95775,200.79486 141.16122,203.29341 C 135.9001,204.83994 130.5578,206.47707 125.01592,206.4154 C 116.52673,206.60612 108.4243,203.61569 100.01653,202.99063 C 94.389908,202.40488 88.726639,202.67952 83.087708,202.38124 C 77.144867,202.06232 71.636032,199.60877 65.900009,198.27481 C 61.389603,197.21112 56.962784,195.81166 52.702057,193.98587 C 53.389191,192.97597 54.076477,191.96893 54.766525,190.96516 C 55.631668,191.31293 56.497574,191.66289 57.364227,192.01506 L 58.280029,192.39026 C 61.931839,194.26587 65.833939,195.87857 70.034027,195.60361 C 76.423508,195.35696 82.597061,197.0899 88.806824,198.28966 C 93.969727,199.32567 99.167007,198.16002 104.31123,197.64708 C 110.29173,196.99239 115.55037,200.50853 121.17748,201.854 C 126.77084,203.4538 132.64404,202.47414 138.21687,201.30878 C 147.43948,199.8243 155.80637,194.89021 162.26451,188.25169 C 165.85216,184.45117 165.17673,178.7485 167.4153,174.3019 C 171.42874,169.74104 178.42473,169.03857 182.08969,164.05467 C 183.76044,161.01999 183.59573,157.40181 184.28334,154.08714 C 184.93365,149.2513 187.48093,144.99379 189.81367,140.80791 z "
       style="opacity:1;fill:#75ae17;fill-rule:nonzero;stroke:none"
       id="path3473" />
    <path
       d="M 111.65741,151.94905 C 118.76277,149.0257 126.23656,146.60292 133.96428,146.25626 C 138.49902,146.07532 141.93996,149.53726 145.34744,152.02232 C 145.24596,155.42154 143.98033,158.65701 141.78368,161.24655 C 140.80025,162.48509 139.76631,163.6823 138.7486,164.89337 C 130.87703,158.31677 120.35104,156.9884 111.65741,151.94905 z "
       style="opacity:1;fill:none;stroke:#78b307;stroke-width:0.1;stroke-linecap:butt;stroke-linejoin:miter;stroke-miterlimit:10"
       id="path3475" />
    <path
       d="M 111.65741,151.94905 C 118.76277,149.0257 126.23656,146.60292 133.96428,146.25626 C 138.49902,146.07532 141.93996,149.53726 145.34744,152.02232 C 145.24596,155.42154 143.98033,158.65701 141.78368,161.24655 C 140.80025,162.48509 139.76631,163.6823 138.7486,164.89337 C 130.87703,158.31677 120.35104,156.9884 111.65741,151.94905 z "
       style="opacity:1;fill:#78b307;fill-rule:nonzero;stroke:none"
       id="path3477" />
    <path
       d="M 243.61948,148.57173 C 245.46413,149.96715 247.38351,151.51769 247.82309,153.94188 C 250.26605,162.97389 251.62715,172.54701 249.95399,181.84607 C 248.65274,188.80545 247.65948,195.83878 245.82593,202.68701 C 240.873,220.06317 230.73196,236.41596 215.56377,246.61717 C 202.9191,254.97099 188.73471,261.11772 173.8277,264.01656 C 149.83189,269.32207 124.64015,268.40064 100.90453,262.21028 C 79.758301,256.75586 58.93396,248.13272 42.300949,233.67778 C 40.054657,231.60379 39.098984,228.62181 37.839355,225.93091 C 43.165924,230.02408 48.764557,233.74808 54.120468,237.80371 C 57.56749,241.14877 61.219177,244.37358 65.614456,246.42496 C 83.853317,255.46072 103.66011,261.25835 123.83394,263.86906 C 131.38232,264.87892 139.00891,264.32292 146.59624,264.51169 C 153.58998,264.71446 160.54109,263.75267 167.40657,262.5134 C 184.75348,259.67874 201.94037,253.75552 216.03613,243.02705 C 224.19202,236.15976 232.01515,228.44772 236.65054,218.69037 C 242.98674,205.78893 247.50502,191.23877 245.46922,176.73869 C 245.66156,167.31802 245.38217,157.8519 243.61948,148.57173 z "
       style="opacity:1;fill:none;stroke:#aeaeae;stroke-width:0.1;stroke-linecap:butt;stroke-linejoin:miter;stroke-miterlimit:10"
       id="path3479" />
    <path
       d="M 243.61948,148.57173 C 245.46413,149.96715 247.38351,151.51769 247.82309,153.94188 C 250.26605,162.97389 251.62715,172.54701 249.95399,181.84607 C 248.65274,188.80545 247.65948,195.83878 245.82593,202.68701 C 240.873,220.06317 230.73196,236.41596 215.56377,246.61717 C 202.9191,254.97099 188.73471,261.11772 173.8277,264.01656 C 149.83189,269.32207 124.64015,268.40064 100.90453,262.21028 C 79.758301,256.75586 58.93396,248.13272 42.300949,233.67778 C 40.054657,231.60379 39.098984,228.62181 37.839355,225.93091 C 43.165924,230.02408 48.764557,233.74808 54.120468,237.80371 C 57.56749,241.14877 61.219177,244.37358 65.614456,246.42496 C 83.853317,255.46072 103.66011,261.25835 123.83394,263.86906 C 131.38232,264.87892 139.00891,264.32292 146.59624,264.51169 C 153.58998,264.71446 160.54109,263.75267 167.40657,262.5134 C 184.75348,259.67874 201.94037,253.75552 216.03613,243.02705 C 224.19202,236.15976 232.01515,228.44772 236.65054,218.69037 C 242.98674,205.78893 247.50502,191.23877 245.46922,176.73869 C 245.66156,167.31802 245.38217,157.8519 243.61948,148.57173 z "
       style="opacity:1;fill:#aeaeae;fill-rule:nonzero;stroke:none"
       id="path3481" />
    <path
       d="M 195.97816,152.91237 C 197.44223,149.81963 201.50938,151.12662 203.98375,152.05139 C 209.17177,154.357 214.3103,156.85791 219.88474,158.12621 C 219.96295,157.28481 220.11938,155.60204 220.1976,154.76065 C 220.82501,157.60558 221.0381,160.51743 221.13435,163.42567 C 215.67552,161.55359 210.63255,158.70555 205.26924,156.61838 C 203.56474,156.25842 201.19882,154.82988 199.905,156.68762 C 197.85207,159.60947 196.87146,163.1136 195.09566,166.19515 C 192.25172,171.44885 187.80214,175.52359 184.06534,180.10591 C 181.80974,182.80202 181.43639,186.41623 180.44961,189.66519 C 179.25005,194.35544 175.8699,198.18773 172.08235,201.04343 C 167.22137,204.23219 161.36426,205.25304 155.90775,206.99988 C 150.81079,208.61697 145.45383,208.88539 140.19029,209.56805 C 135.06398,210.13677 132.44188,215.94019 127.29302,216.45224 C 123.31189,216.83054 119.5605,215.13689 115.73985,214.33266 C 110.84479,213.16011 105.7432,214.0403 100.82611,213.02591 C 95.539017,211.94249 90.365997,209.99013 84.897064,210.076 C 78.442322,209.84508 71.728302,212.08238 65.501511,209.51443 C 61.183395,207.81836 56.71727,206.5751 52.201035,205.53864 C 48.38681,204.107 48.997696,199.42238 49.84523,196.2502 L 50.65831,196.47363 C 57.342896,198.34972 64.221878,199.64355 70.629761,202.39932 C 74.875732,204.207 79.336823,205.60996 83.971863,205.88419 C 95.286606,206.66934 106.71227,206.83844 117.8465,209.22778 C 122.01714,209.94499 126.51997,211.47829 130.61175,209.60106 C 134.85738,207.74178 139.04475,205.66606 143.60542,204.66667 C 149.00331,203.47652 154.05023,201.19821 159.26939,199.4498 C 163.48318,197.93041 168.34676,197.78131 172.00035,194.98187 C 176.15611,190.87451 173.89479,184.21701 176.42889,179.41093 C 179.56346,176.15628 184.0988,174.56993 186.95216,170.98982 C 191.35109,165.7276 192.88438,158.88654 195.97816,152.91237 z "
       style="opacity:1;fill:none;stroke:#5e9705;stroke-width:0.1;stroke-linecap:butt;stroke-linejoin:miter;stroke-miterlimit:10"
       id="path3483" />
    <path
       d="M 195.97816,152.91237 C 197.44223,149.81963 201.50938,151.12662 203.98375,152.05139 C 209.17177,154.357 214.3103,156.85791 219.88474,158.12621 C 219.96295,157.28481 220.11938,155.60204 220.1976,154.76065 C 220.82501,157.60558 221.0381,160.51743 221.13435,163.42567 C 215.67552,161.55359 210.63255,158.70555 205.26924,156.61838 C 203.56474,156.25842 201.19882,154.82988 199.905,156.68762 C 197.85207,159.60947 196.87146,163.1136 195.09566,166.19515 C 192.25172,171.44885 187.80214,175.52359 184.06534,180.10591 C 181.80974,182.80202 181.43639,186.41623 180.44961,189.66519 C 179.25005,194.35544 175.8699,198.18773 172.08235,201.04343 C 167.22137,204.23219 161.36426,205.25304 155.90775,206.99988 C 150.81079,208.61697 145.45383,208.88539 140.19029,209.56805 C 135.06398,210.13677 132.44188,215.94019 127.29302,216.45224 C 123.31189,216.83054 119.5605,215.13689 115.73985,214.33266 C 110.84479,213.16011 105.7432,214.0403 100.82611,213.02591 C 95.539017,211.94249 90.365997,209.99013 84.897064,210.076 C 78.442322,209.84508 71.728302,212.08238 65.501511,209.51443 C 61.183395,207.81836 56.71727,206.5751 52.201035,205.53864 C 48.38681,204.107 48.997696,199.42238 49.84523,196.2502 L 50.65831,196.47363 C 57.342896,198.34972 64.221878,199.64355 70.629761,202.39932 C 74.875732,204.207 79.336823,205.60996 83.971863,205.88419 C 95.286606,206.66934 106.71227,206.83844 117.8465,209.22778 C 122.01714,209.94499 126.51997,211.47829 130.61175,209.60106 C 134.85738,207.74178 139.04475,205.66606 143.60542,204.66667 C 149.00331,203.47652 154.05023,201.19821 159.26939,199.4498 C 163.48318,197.93041 168.34676,197.78131 172.00035,194.98187 C 176.15611,190.87451 173.89479,184.21701 176.42889,179.41093 C 179.56346,176.15628 184.0988,174.56993 186.95216,170.98982 C 191.35109,165.7276 192.88438,158.88654 195.97816,152.91237 z "
       style="opacity:1;fill:#5e9705;fill-rule:nonzero;stroke:none"
       id="path3485" />
    <path
       d="M 199.905,156.68762 C 201.19882,154.82988 203.56474,156.25842 205.26924,156.61838 C 210.63255,158.70555 215.67552,161.55359 221.13435,163.42567 C 221.18109,165.26854 221.24712,167.11217 221.33861,168.95734 C 219.24689,167.69991 217.22929,166.24988 214.91051,165.44125 C 212.36719,166.86159 210.36493,169.14877 207.64104,170.25346 C 203.75276,171.23314 199.54755,170.43112 195.77066,171.88141 C 191.85881,174.64584 189.45039,179.01611 187.03848,183.05118 C 183.48117,188.97086 183.93948,196.80214 178.90474,201.88544 C 175.51106,205.61482 170.35346,206.5213 165.77542,207.99835 C 160.85402,209.4413 156.29842,212.02933 151.20694,212.89452 C 147.36818,213.62012 143.39186,213.57342 139.63045,214.68935 C 135.78113,216.27148 133.70111,220.4729 129.84631,222.02335 C 125.65305,222.21295 121.78006,220.22398 117.80016,219.20148 C 112.38271,217.51582 106.64348,217.77599 101.11968,216.67781 C 95.415375,215.64246 89.8423,213.58705 83.978653,213.68037 C 79.053009,213.66507 74.374527,215.3971 69.840927,217.13423 C 63.818802,213.52708 57.00943,210.83057 52.201035,205.53864 C 56.71727,206.5751 61.183395,207.81836 65.501511,209.51443 C 71.728302,212.08238 78.442322,209.84508 84.897064,210.076 C 90.365997,209.99013 95.539017,211.94249 100.82611,213.02591 C 105.7432,214.0403 110.84479,213.16011 115.73985,214.33266 C 119.5605,215.13689 123.31189,216.83054 127.29302,216.45224 C 132.44188,215.94019 135.06398,210.13677 140.19029,209.56805 C 145.45383,208.88539 150.81079,208.61697 155.90775,206.99988 C 161.36426,205.25304 167.22137,204.23219 172.08235,201.04343 C 175.8699,198.18773 179.25005,194.35544 180.44961,189.66519 C 181.43639,186.41623 181.80974,182.80202 184.06534,180.10591 C 187.80214,175.52359 192.25172,171.44885 195.09566,166.19515 C 196.87146,163.1136 197.85207,159.60947 199.905,156.68762 z "
       style="opacity:1;fill:none;stroke:#598a02;stroke-width:0.1;stroke-linecap:butt;stroke-linejoin:miter;stroke-miterlimit:10"
       id="path3487" />
    <path
       d="M 199.905,156.68762 C 201.19882,154.82988 203.56474,156.25842 205.26924,156.61838 C 210.63255,158.70555 215.67552,161.55359 221.13435,163.42567 C 221.18109,165.26854 221.24712,167.11217 221.33861,168.95734 C 219.24689,167.69991 217.22929,166.24988 214.91051,165.44125 C 212.36719,166.86159 210.36493,169.14877 207.64104,170.25346 C 203.75276,171.23314 199.54755,170.43112 195.77066,171.88141 C 191.85881,174.64584 189.45039,179.01611 187.03848,183.05118 C 183.48117,188.97086 183.93948,196.80214 178.90474,201.88544 C 175.51106,205.61482 170.35346,206.5213 165.77542,207.99835 C 160.85402,209.4413 156.29842,212.02933 151.20694,212.89452 C 147.36818,213.62012 143.39186,213.57342 139.63045,214.68935 C 135.78113,216.27148 133.70111,220.4729 129.84631,222.02335 C 125.65305,222.21295 121.78006,220.22398 117.80016,219.20148 C 112.38271,217.51582 106.64348,217.77599 101.11968,216.67781 C 95.415375,215.64246 89.8423,213.58705 83.978653,213.68037 C 79.053009,213.66507 74.374527,215.3971 69.840927,217.13423 C 63.818802,213.52708 57.00943,210.83057 52.201035,205.53864 C 56.71727,206.5751 61.183395,207.81836 65.501511,209.51443 C 71.728302,212.08238 78.442322,209.84508 84.897064,210.076 C 90.365997,209.99013 95.539017,211.94249 100.82611,213.02591 C 105.7432,214.0403 110.84479,213.16011 115.73985,214.33266 C 119.5605,215.13689 123.31189,216.83054 127.29302,216.45224 C 132.44188,215.94019 135.06398,210.13677 140.19029,209.56805 C 145.45383,208.88539 150.81079,208.61697 155.90775,206.99988 C 161.36426,205.25304 167.22137,204.23219 172.08235,201.04343 C 175.8699,198.18773 179.25005,194.35544 180.44961,189.66519 C 181.43639,186.41623 181.80974,182.80202 184.06534,180.10591 C 187.80214,175.52359 192.25172,171.44885 195.09566,166.19515 C 196.87146,163.1136 197.85207,159.60947 199.905,156.68762 z "
       style="opacity:1;fill:#598a02;fill-rule:nonzero;stroke:none"
       id="path3489" />
    <path
       d="M 138.7486,164.89337 C 142.48454,163.91963 146.21915,162.93875 149.93921,161.90219 C 152.78729,166.56448 156.25894,171.04347 157.62174,176.42761 C 158.90396,182.64262 155.43112,188.90091 150.56348,192.59596 C 145.16017,197.19641 137.95734,198.83022 131.01737,199.02231 C 115.11247,199.89803 101.26639,190.17427 85.836838,188.13539 C 80.724854,187.49329 75.912979,189.63379 71.125946,191.04639 C 66.974777,192.31848 62.591553,192.51327 58.280029,192.39026 L 57.364227,192.01506 C 61.385971,190.23598 65.620041,189.04219 69.794846,187.69348 C 74.969223,185.99173 79.640533,182.71866 85.155838,182.13069 C 90.010452,181.67499 94.407089,184.21999 98.666229,186.16742 C 105.81973,189.45506 112.88945,193.72112 120.95781,194.10732 C 126.87735,194.40157 132.89092,194.7056 138.75592,193.66423 C 148.24265,191.59192 152.76157,179.10846 148.02957,170.97913 C 146.77081,168.86043 144.30953,167.99748 142.20111,166.99246 C 142.20793,167.47005 142.22157,168.42522 142.22841,168.9028 C 141.02202,167.60494 139.86769,166.26172 138.7486,164.89337 z "
       style="opacity:1;fill:none;stroke:#85b835;stroke-width:0.1;stroke-linecap:butt;stroke-linejoin:miter;stroke-miterlimit:10"
       id="path3491" />
    <path
       d="M 138.7486,164.89337 C 142.48454,163.91963 146.21915,162.93875 149.93921,161.90219 C 152.78729,166.56448 156.25894,171.04347 157.62174,176.42761 C 158.90396,182.64262 155.43112,188.90091 150.56348,192.59596 C 145.16017,197.19641 137.95734,198.83022 131.01737,199.02231 C 115.11247,199.89803 101.26639,190.17427 85.836838,188.13539 C 80.724854,187.49329 75.912979,189.63379 71.125946,191.04639 C 66.974777,192.31848 62.591553,192.51327 58.280029,192.39026 L 57.364227,192.01506 C 61.385971,190.23598 65.620041,189.04219 69.794846,187.69348 C 74.969223,185.99173 79.640533,182.71866 85.155838,182.13069 C 90.010452,181.67499 94.407089,184.21999 98.666229,186.16742 C 105.81973,189.45506 112.88945,193.72112 120.95781,194.10732 C 126.87735,194.40157 132.89092,194.7056 138.75592,193.66423 C 148.24265,191.59192 152.76157,179.10846 148.02957,170.97913 C 146.77081,168.86043 144.30953,167.99748 142.20111,166.99246 C 142.20793,167.47005 142.22157,168.42522 142.22841,168.9028 C 141.02202,167.60494 139.86769,166.26172 138.7486,164.89337 z "
       style="opacity:1;fill:#85b835;fill-rule:nonzero;stroke:none"
       id="path3493" />
    <path
       d="M 66.193512,166.23117 C 66.950012,164.74471 68.509354,162.58768 70.404495,163.68192 C 74.487488,165.5023 77.817322,168.60877 81.524597,171.05542 C 74.713272,175.61917 68.284256,182.21056 59.634949,182.64453 C 61.368988,177.01068 63.560776,171.50328 66.193512,166.23117 z "
       style="opacity:1;fill:none;stroke:#abcf78;stroke-width:0.1;stroke-linecap:butt;stroke-linejoin:miter;stroke-miterlimit:10"
       id="path3495" />
    <path
       d="M 66.193512,166.23117 C 66.950012,164.74471 68.509354,162.58768 70.404495,163.68192 C 74.487488,165.5023 77.817322,168.60877 81.524597,171.05542 C 74.713272,175.61917 68.284256,182.21056 59.634949,182.64453 C 61.368988,177.01068 63.560776,171.50328 66.193512,166.23117 z "
       style="opacity:1;fill:#abcf78;fill-rule:nonzero;stroke:none"
       id="path3497" />
    <path
       d="M 207.64104,170.25346 C 210.36493,169.14877 212.36719,166.86159 214.91051,165.44125 C 217.22929,166.24988 219.24689,167.69991 221.33861,168.95734 C 222.14237,182.69725 219.53711,197.53284 210.19649,208.15622 C 204.49138,214.39179 197.80243,220.16701 189.69678,222.95866 C 192.95706,210.19255 206.88623,204.3392 211.30939,192.19954 C 213.32451,187.03813 215.34656,180.39935 211.4267,175.59959 C 209.2493,172.50766 205.00668,172.34473 201.78142,173.68855 C 198.81133,174.55019 197.16836,177.338 195.57645,179.75423 C 192.38432,184.73003 188.99553,189.66676 187.13222,195.3356 C 184.98294,201.77237 180.49594,207.11466 175.48474,211.55345 C 172.49956,214.24971 168.33708,214.62524 164.64917,215.76155 C 160.43869,216.89499 156.73981,219.27281 152.98796,221.40648 C 150.11952,220.24074 147.2439,218.72008 144.08144,218.68198 C 139.04611,220.28595 136.02017,225.81496 130.56859,226.49678 C 126.32654,226.69421 122.18488,225.48711 117.98428,225.10049 C 110.37814,224.38937 102.88994,222.81972 95.479263,221.0125 C 91.522324,220.0885 87.985016,217.84503 83.97229,217.1566 C 81.391403,217.36502 79.429474,219.41499 77.344131,220.75974 C 74.76767,219.71295 72.243698,218.53441 69.840927,217.13423 C 74.374527,215.3971 79.053009,213.66507 83.978653,213.68037 C 89.8423,213.58705 95.415375,215.64246 101.11968,216.67781 C 106.64348,217.77599 112.38271,217.51582 117.80016,219.20148 C 121.78006,220.22398 125.65305,222.21295 129.84631,222.02335 C 133.70111,220.4729 135.78113,216.27148 139.63045,214.68935 C 143.39186,213.57342 147.36818,213.62012 151.20694,212.89452 C 156.29842,212.02933 160.85402,209.4413 165.77542,207.99835 C 170.35346,206.5213 175.51106,205.61482 178.90474,201.88544 C 183.93948,196.80214 183.48117,188.97086 187.03848,183.05118 C 189.45039,179.01611 191.85881,174.64584 195.77066,171.88141 C 199.54755,170.43112 203.75276,171.23314 207.64104,170.25346 z "
       style="opacity:1;fill:none;stroke:#4f8200;stroke-width:0.1;stroke-linecap:butt;stroke-linejoin:miter;stroke-miterlimit:10"
       id="path3499" />
    <path
       d="M 207.64104,170.25346 C 210.36493,169.14877 212.36719,166.86159 214.91051,165.44125 C 217.22929,166.24988 219.24689,167.69991 221.33861,168.95734 C 222.14237,182.69725 219.53711,197.53284 210.19649,208.15622 C 204.49138,214.39179 197.80243,220.16701 189.69678,222.95866 C 192.95706,210.19255 206.88623,204.3392 211.30939,192.19954 C 213.32451,187.03813 215.34656,180.39935 211.4267,175.59959 C 209.2493,172.50766 205.00668,172.34473 201.78142,173.68855 C 198.81133,174.55019 197.16836,177.338 195.57645,179.75423 C 192.38432,184.73003 188.99553,189.66676 187.13222,195.3356 C 184.98294,201.77237 180.49594,207.11466 175.48474,211.55345 C 172.49956,214.24971 168.33708,214.62524 164.64917,215.76155 C 160.43869,216.89499 156.73981,219.27281 152.98796,221.40648 C 150.11952,220.24074 147.2439,218.72008 144.08144,218.68198 C 139.04611,220.28595 136.02017,225.81496 130.56859,226.49678 C 126.32654,226.69421 122.18488,225.48711 117.98428,225.10049 C 110.37814,224.38937 102.88994,222.81972 95.479263,221.0125 C 91.522324,220.0885 87.985016,217.84503 83.97229,217.1566 C 81.391403,217.36502 79.429474,219.41499 77.344131,220.75974 C 74.76767,219.71295 72.243698,218.53441 69.840927,217.13423 C 74.374527,215.3971 79.053009,213.66507 83.978653,213.68037 C 89.8423,213.58705 95.415375,215.64246 101.11968,216.67781 C 106.64348,217.77599 112.38271,217.51582 117.80016,219.20148 C 121.78006,220.22398 125.65305,222.21295 129.84631,222.02335 C 133.70111,220.4729 135.78113,216.27148 139.63045,214.68935 C 143.39186,213.57342 147.36818,213.62012 151.20694,212.89452 C 156.29842,212.02933 160.85402,209.4413 165.77542,207.99835 C 170.35346,206.5213 175.51106,205.61482 178.90474,201.88544 C 183.93948,196.80214 183.48117,188.97086 187.03848,183.05118 C 189.45039,179.01611 191.85881,174.64584 195.77066,171.88141 C 199.54755,170.43112 203.75276,171.23314 207.64104,170.25346 z "
       style="opacity:1;fill:#4f8200;fill-rule:nonzero;stroke:none"
       id="path3501" />
    <path
       d="M 142.20111,166.99246 C 144.30953,167.99748 146.77081,168.86043 148.02957,170.97913 C 152.76157,179.10846 148.24265,191.59192 138.75592,193.66423 C 132.89092,194.7056 126.87735,194.40157 120.95781,194.10732 C 112.88945,193.72112 105.81973,189.45506 98.666229,186.16742 C 94.407089,184.21999 90.010452,181.67499 85.155838,182.13069 C 79.640533,182.71866 74.969223,185.99173 69.794846,187.69348 C 65.620041,189.04219 61.385971,190.23598 57.364227,192.01506 C 56.497574,191.66289 55.631668,191.31293 54.766525,190.96516 C 56.182709,188.23602 57.546951,185.48167 58.909973,182.72745 L 59.634949,182.64453 C 68.284256,182.21056 74.713272,175.61917 81.524597,171.05542 C 91.918732,176.17433 101.66634,182.81268 112.89014,186.09003 C 119.0807,187.82538 125.51358,189.52954 131.99696,188.81384 C 137.90822,188.20598 143.22638,183.04002 143.45734,177.00507 C 143.41626,174.25563 142.45325,171.62938 142.22841,168.9028 C 142.22157,168.42522 142.20793,167.47005 142.20111,166.99246 z "
       style="opacity:1;fill:none;stroke:#97c24c;stroke-width:0.1;stroke-linecap:butt;stroke-linejoin:miter;stroke-miterlimit:10"
       id="path3503" />
    <path
       d="M 142.20111,166.99246 C 144.30953,167.99748 146.77081,168.86043 148.02957,170.97913 C 152.76157,179.10846 148.24265,191.59192 138.75592,193.66423 C 132.89092,194.7056 126.87735,194.40157 120.95781,194.10732 C 112.88945,193.72112 105.81973,189.45506 98.666229,186.16742 C 94.407089,184.21999 90.010452,181.67499 85.155838,182.13069 C 79.640533,182.71866 74.969223,185.99173 69.794846,187.69348 C 65.620041,189.04219 61.385971,190.23598 57.364227,192.01506 C 56.497574,191.66289 55.631668,191.31293 54.766525,190.96516 C 56.182709,188.23602 57.546951,185.48167 58.909973,182.72745 L 59.634949,182.64453 C 68.284256,182.21056 74.713272,175.61917 81.524597,171.05542 C 91.918732,176.17433 101.66634,182.81268 112.89014,186.09003 C 119.0807,187.82538 125.51358,189.52954 131.99696,188.81384 C 137.90822,188.20598 143.22638,183.04002 143.45734,177.00507 C 143.41626,174.25563 142.45325,171.62938 142.22841,168.9028 C 142.22157,168.42522 142.20793,167.47005 142.20111,166.99246 z "
       style="opacity:1;fill:#97c24c;fill-rule:nonzero;stroke:none"
       id="path3505" />
    <path
       d="M 201.78142,173.68855 C 205.00668,172.34473 209.2493,172.50766 211.4267,175.59959 C 215.34656,180.39935 213.32451,187.03813 211.30939,192.19954 C 206.88623,204.3392 192.95706,210.19255 189.69678,222.95866 L 189.40622,223.85352 C 172.31427,234.31868 151.63203,236.0692 132.05154,235.22705 C 113.12053,234.06928 94.346283,229.17323 77.344131,220.75974 C 79.429474,219.41499 81.391403,217.36502 83.97229,217.1566 C 87.985016,217.84503 91.522324,220.0885 95.479263,221.0125 C 102.88994,222.81972 110.37814,224.38937 117.98428,225.10049 C 122.18488,225.48711 126.32654,226.69421 130.56859,226.49678 C 136.02017,225.81496 139.04611,220.28595 144.08144,218.68198 C 147.2439,218.72008 150.11952,220.24074 152.98796,221.40648 C 156.73981,219.27281 160.43869,216.89499 164.64917,215.76155 C 168.33708,214.62524 172.49956,214.24971 175.48474,211.55345 C 180.49594,207.11466 184.98294,201.77237 187.13222,195.3356 C 188.99553,189.66676 192.38432,184.73003 195.57645,179.75423 C 197.16836,177.338 198.81133,174.55019 201.78142,173.68855 z "
       style="opacity:1;fill:none;stroke:#4a7800;stroke-width:0.1;stroke-linecap:butt;stroke-linejoin:miter;stroke-miterlimit:10"
       id="path3507" />
    <path
       d="M 201.78142,173.68855 C 205.00668,172.34473 209.2493,172.50766 211.4267,175.59959 C 215.34656,180.39935 213.32451,187.03813 211.30939,192.19954 C 206.88623,204.3392 192.95706,210.19255 189.69678,222.95866 L 189.40622,223.85352 C 172.31427,234.31868 151.63203,236.0692 132.05154,235.22705 C 113.12053,234.06928 94.346283,229.17323 77.344131,220.75974 C 79.429474,219.41499 81.391403,217.36502 83.97229,217.1566 C 87.985016,217.84503 91.522324,220.0885 95.479263,221.0125 C 102.88994,222.81972 110.37814,224.38937 117.98428,225.10049 C 122.18488,225.48711 126.32654,226.69421 130.56859,226.49678 C 136.02017,225.81496 139.04611,220.28595 144.08144,218.68198 C 147.2439,218.72008 150.11952,220.24074 152.98796,221.40648 C 156.73981,219.27281 160.43869,216.89499 164.64917,215.76155 C 168.33708,214.62524 172.49956,214.24971 175.48474,211.55345 C 180.49594,207.11466 184.98294,201.77237 187.13222,195.3356 C 188.99553,189.66676 192.38432,184.73003 195.57645,179.75423 C 197.16836,177.338 198.81133,174.55019 201.78142,173.68855 z "
       style="opacity:1;fill:#4a7800;fill-rule:nonzero;stroke:none"
       id="path3509" />
    <path
       d="M 245.46922,176.73869 C 247.50502,191.23877 242.98674,205.78893 236.65054,218.69037 C 232.01515,228.44772 224.19202,236.15976 216.03613,243.02705 C 201.94037,253.75552 184.75348,259.67874 167.40657,262.5134 C 160.54109,263.75267 153.58998,264.71446 146.59624,264.51169 C 139.00891,264.32292 131.38232,264.87892 123.83394,263.86906 C 103.66011,261.25835 83.853317,255.46072 65.614456,246.42496 C 61.219177,244.37358 57.56749,241.14877 54.120468,237.80371 C 74.741653,248.46469 97.156494,255.96178 120.29236,258.45695 C 137.93813,260.0854 155.92735,259.41773 173.18185,255.16789 C 192.87776,250.43543 212.37306,241.34766 225.68886,225.64803 C 237.47029,212.07388 243.30682,194.34628 245.46922,176.73869 z "
       style="opacity:1;fill:none;stroke:#9c9c9c;stroke-width:0.1;stroke-linecap:butt;stroke-linejoin:miter;stroke-miterlimit:10"
       id="path3511" />
    <path
       d="M 245.46922,176.73869 C 247.50502,191.23877 242.98674,205.78893 236.65054,218.69037 C 232.01515,228.44772 224.19202,236.15976 216.03613,243.02705 C 201.94037,253.75552 184.75348,259.67874 167.40657,262.5134 C 160.54109,263.75267 153.58998,264.71446 146.59624,264.51169 C 139.00891,264.32292 131.38232,264.87892 123.83394,263.86906 C 103.66011,261.25835 83.853317,255.46072 65.614456,246.42496 C 61.219177,244.37358 57.56749,241.14877 54.120468,237.80371 C 74.741653,248.46469 97.156494,255.96178 120.29236,258.45695 C 137.93813,260.0854 155.92735,259.41773 173.18185,255.16789 C 192.87776,250.43543 212.37306,241.34766 225.68886,225.64803 C 237.47029,212.07388 243.30682,194.34628 245.46922,176.73869 z "
       style="opacity:1;fill:#9c9c9c;fill-rule:nonzero;stroke:none"
       id="path3513" />
  </g>
</svg>
