<?xml version="1.0" encoding="UTF-8" standalone="no"?>
<!-- Created with Inkscape (http://www.inkscape.org/) -->
<svg
   xmlns:svg="http://www.w3.org/2000/svg"
   xmlns="http://www.w3.org/2000/svg"
   version="1.0"
   width="273pt"
   height="273pt"
   viewBox="0 0 273 273"
   id="svg2">
  <defs
     id="defs4">
    <clipPath
       id="clip0">
      <rect
         width="273"
         height="273"
         x="0"
         y="0"
         id="rect7" />
    </clipPath>
  </defs>
  <g
     clip-path="url(#clip0)"
     id="surface0">
    <path
       d="M 75.313629,15.302582 C 97.706253,2.140015 124.56201,-0.250153 150.00467,0.891739 C 164.30089,2.345047 178.30359,6.162292 191.71161,11.272476 C 210.53938,18.587311 228.98991,29.481857 240.20721,46.786591 C 241.55266,48.962448 242.56981,51.34053 243.11986,53.844833 C 243.86314,61.502609 240.97252,68.743912 237.53522,75.405045 C 233.7117,83.16568 229.73052,90.854965 225.33348,98.308136 C 223.69724,101.11598 221.77704,103.81755 220.76419,106.93469 C 222.02658,109.25609 223.79482,111.24658 225.51593,113.23613 C 233.64929,123.93327 240.88434,135.89868 243.61429,149.21275 C 247.34416,168.37506 245.66089,188.71071 237.56966,206.57417 C 231.89737,220.11137 221.89304,231.58527 209.79428,239.79059 C 193.10204,250.75111 173.44222,256.37492 153.71921,258.49846 C 133.07027,260.41907 112.03354,258.80106 92.112579,252.9118 C 71.788254,247.18655 51.587006,238.62833 36.225998,223.73727 C 30.398926,217.12511 25.495071,209.01727 24.952072,200.02571 C 24.653961,192.57161 27.288467,185.35619 30.90419,178.94681 C 36.655258,168.65669 42.044922,158.16261 48.14003,148.0679 C 48.624405,146.95134 50.056702,145.5553 48.921432,144.3629 C 45.055634,138.33986 41.156387,132.2908 38.31282,125.70009 C 29.896606,105.75914 27.936249,82.525574 35.122269,61.929657 C 43.063217,42.67894 57.172318,25.704987 75.313629,15.302582 z "
       style="opacity:1;fill:none;stroke:#000000;stroke-width:0.1;stroke-linecap:butt;stroke-linejoin:miter;stroke-miterlimit:10"
       id="path14" />
    <path
       d="M 75.313629,15.302582 C 97.706253,2.140015 124.56201,-0.250153 150.00467,0.891739 C 164.30089,2.345047 178.30359,6.162292 191.71161,11.272476 C 210.53938,18.587311 228.98991,29.481857 240.20721,46.786591 C 241.55266,48.962448 242.56981,51.34053 243.11986,53.844833 C 243.86314,61.502609 240.97252,68.743912 237.53522,75.405045 C 233.7117,83.16568 229.73052,90.854965 225.33348,98.308136 C 223.69724,101.11598 221.77704,103.81755 220.76419,106.93469 C 222.02658,109.25609 223.79482,111.24658 225.51593,113.23613 C 233.64929,123.93327 240.88434,135.89868 243.61429,149.21275 C 247.34416,168.37506 245.66089,188.71071 237.56966,206.57417 C 231.89737,220.11137 221.89304,231.58527 209.79428,239.79059 C 193.10204,250.75111 173.44222,256.37492 153.71921,258.49846 C 133.07027,260.41907 112.03354,258.80106 92.112579,252.9118 C 71.788254,247.18655 51.587006,238.62833 36.225998,223.73727 C 30.398926,217.12511 25.495071,209.01727 24.952072,200.02571 C 24.653961,192.57161 27.288467,185.35619 30.90419,178.94681 C 36.655258,168.65669 42.044922,158.16261 48.14003,148.0679 C 48.624405,146.95134 50.056702,145.5553 48.921432,144.3629 C 45.055634,138.33986 41.156387,132.2908 38.31282,125.70009 C 29.896606,105.75914 27.936249,82.525574 35.122269,61.929657 C 43.063217,42.67894 57.172318,25.704987 75.313629,15.302582 z "
       style="opacity:1;fill:#000000;fill-rule:nonzero;stroke:none"
       id="path16" />
    <path
       d="M 93.293213,33.260803 C 102.25975,28.628693 111.79967,24.585678 122.00967,24.032684 C 133.28801,23.614914 144.72575,23.461884 155.79305,26.028992 C 167.09245,28.483856 178.39755,31.903107 188.57211,37.454529 C 186.81853,38.413467 185.1266,39.907669 182.99109,39.690933 C 170.66496,39.015686 158.37501,37.278809 146.00481,37.586823 C 140.43024,37.428116 134.83102,38.639282 129.29105,37.615204 C 123.7383,36.642426 118.01924,37.115219 112.57083,38.451294 C 106.54831,40.11731 101.78124,44.393387 96.279694,47.158783 C 91.815643,49.649643 86.921478,51.187805 82.283997,53.292191 C 79.533615,54.481888 78.213531,57.342712 76.508163,59.611771 C 69.790268,63.531769 66.789246,71.801453 59.027542,74.202194 C 59.023056,72.977051 59.230621,71.792328 59.650223,70.648041 C 62.422791,63.278397 65.964447,56.097916 71.071899,50.048416 C 76.88945,42.643051 84.965942,37.437119 93.293213,33.260803 z "
       style="opacity:1;fill:none;stroke:#b3d959;stroke-width:0.1;stroke-linecap:butt;stroke-linejoin:miter;stroke-miterlimit:10"
       id="path18" />
    <path
       d="M 93.293213,33.260803 C 102.25975,28.628693 111.79967,24.585678 122.00967,24.032684 C 133.28801,23.614914 144.72575,23.461884 155.79305,26.028992 C 167.09245,28.483856 178.39755,31.903107 188.57211,37.454529 C 186.81853,38.413467 185.1266,39.907669 182.99109,39.690933 C 170.66496,39.015686 158.37501,37.278809 146.00481,37.586823 C 140.43024,37.428116 134.83102,38.639282 129.29105,37.615204 C 123.7383,36.642426 118.01924,37.115219 112.57083,38.451294 C 106.54831,40.11731 101.78124,44.393387 96.279694,47.158783 C 91.815643,49.649643 86.921478,51.187805 82.283997,53.292191 C 79.533615,54.481888 78.213531,57.342712 76.508163,59.611771 C 69.790268,63.531769 66.789246,71.801453 59.027542,74.202194 C 59.023056,72.977051 59.230621,71.792328 59.650223,70.648041 C 62.422791,63.278397 65.964447,56.097916 71.071899,50.048416 C 76.88945,42.643051 84.965942,37.437119 93.293213,33.260803 z "
       style="opacity:1;fill:#b3d959;fill-rule:nonzero;stroke:none"
       id="path20" />
    <path
       d="M 112.57083,38.451294 C 118.01924,37.115219 123.7383,36.642426 129.29105,37.615204 C 134.83102,38.639282 140.43024,37.428116 146.00481,37.586823 C 158.37501,37.278809 170.66496,39.015686 182.99109,39.690933 C 185.1266,39.907669 186.81853,38.413467 188.57211,37.454529 L 189.11758,37.207916 C 191.0938,37.970428 192.92798,39.061264 194.6645,40.270569 C 193.71765,42.037109 192.94395,44.138748 190.94406,44.966003 C 187.07237,46.828827 183.52029,49.283234 179.6855,51.189713 C 174.73142,51.900467 170.10834,49.309555 165.84564,47.131638 C 162.23651,45.065979 157.96408,45.911316 154.01804,45.505569 C 149.62677,45.221695 145.62102,42.718903 141.15688,43.049149 C 134.44627,43.510696 127.75412,44.275146 121.02733,44.498703 C 116.77255,44.695999 112.32782,44.453156 108.34836,46.239059 C 103.15373,48.475525 97.990143,50.973083 93.616043,54.614944 C 90.511459,57.229797 86.917023,59.166306 83.112335,60.550354 C 81.370758,60.84993 79.640366,61.437119 77.857483,61.346527 C 77.377197,60.790833 76.927429,60.21257 76.508163,59.611771 C 78.213531,57.342712 79.533615,54.481888 82.283997,53.292191 C 86.921478,51.187805 91.815643,49.649643 96.279694,47.158783 C 101.78124,44.393387 106.54831,40.11731 112.57083,38.451294 z "
       style="opacity:1;fill:none;stroke:#97c233;stroke-width:0.1;stroke-linecap:butt;stroke-linejoin:miter;stroke-miterlimit:10"
       id="path22" />
    <path
       d="M 112.57083,38.451294 C 118.01924,37.115219 123.7383,36.642426 129.29105,37.615204 C 134.83102,38.639282 140.43024,37.428116 146.00481,37.586823 C 158.37501,37.278809 170.66496,39.015686 182.99109,39.690933 C 185.1266,39.907669 186.81853,38.413467 188.57211,37.454529 L 189.11758,37.207916 C 191.0938,37.970428 192.92798,39.061264 194.6645,40.270569 C 193.71765,42.037109 192.94395,44.138748 190.94406,44.966003 C 187.07237,46.828827 183.52029,49.283234 179.6855,51.189713 C 174.73142,51.900467 170.10834,49.309555 165.84564,47.131638 C 162.23651,45.065979 157.96408,45.911316 154.01804,45.505569 C 149.62677,45.221695 145.62102,42.718903 141.15688,43.049149 C 134.44627,43.510696 127.75412,44.275146 121.02733,44.498703 C 116.77255,44.695999 112.32782,44.453156 108.34836,46.239059 C 103.15373,48.475525 97.990143,50.973083 93.616043,54.614944 C 90.511459,57.229797 86.917023,59.166306 83.112335,60.550354 C 81.370758,60.84993 79.640366,61.437119 77.857483,61.346527 C 77.377197,60.790833 76.927429,60.21257 76.508163,59.611771 C 78.213531,57.342712 79.533615,54.481888 82.283997,53.292191 C 86.921478,51.187805 91.815643,49.649643 96.279694,47.158783 C 101.78124,44.393387 106.54831,40.11731 112.57083,38.451294 z "
       style="opacity:1;fill:#97c233;fill-rule:nonzero;stroke:none"
       id="path24" />
    <path
       d="M 194.6645,40.270569 C 200.2654,42.76622 205.51729,46.105682 210.5061,49.654709 C 207.2209,54.854446 208.04794,61.280579 206.08983,66.924423 C 204.21408,73.190659 200.28203,78.493423 197.38127,84.273285 C 195.76382,87.135849 196.97858,90.398071 197.60619,93.350433 L 197.77107,94.145966 C 194.45756,95.163376 190.70052,93.458389 189.77155,90.018509 C 191.50667,81.803909 195.66701,74.355469 200.75864,67.76442 C 203.68337,64.140106 203.37817,59.175003 202.46112,54.890472 C 202.00925,53.09433 201.45308,50.96434 199.61009,50.114059 C 197.49593,49.020599 195.23654,50.468094 193.30815,51.302551 C 187.94618,54.208237 182.15913,56.440277 177.42744,60.383759 C 171.75323,65.078125 164.05695,65.985764 156.94933,65.795395 C 149.14952,65.874283 143.09049,58.983963 135.1506,59.890945 C 129.06062,60.458008 121.9428,60.732544 117.64511,65.740555 C 115.55159,67.755478 117.36458,70.56102 118.31828,72.653625 C 120.64401,76.733261 121.88915,81.269653 123.58185,85.616196 C 126.11151,85.082382 128.59917,83.922836 131.24165,84.425339 C 131.52002,87.370789 130.99748,90.645355 132.8123,93.21611 C 135.67368,97.835281 141.01575,99.781311 145.83543,101.64542 C 141.82834,103.16023 139.01592,107.22806 139.28902,111.54134 C 146.21767,113.70955 152.88275,116.59869 159.465,119.64529 C 161.45784,120.3573 162.30856,122.71397 161.53868,124.61926 C 160.23927,127.24899 158.11125,129.36774 156.83843,132.01584 C 157.68312,135.07411 160.92975,137.00719 163.96909,137.12411 C 167.30522,136.50311 170.28284,134.74548 173.51273,133.7634 C 176.4816,132.69664 179.76935,132.25479 182.36792,130.34863 C 186.39806,127.10161 190.17154,123.17366 191.69296,118.09366 C 201.03984,123.32004 209.86845,130.29387 215.28687,139.70103 C 217.17848,143.22559 219.19038,147.00682 218.9108,151.14038 C 211.44177,148.46452 204.98213,142.97383 201.09911,136.05629 C 198.35461,138.5049 195.45949,140.85666 191.86842,141.92886 C 188.2417,142.7802 187.00955,146.58517 185.57568,149.56227 C 183.32202,153.72092 185.89682,158.92186 183.00147,162.84947 C 179.63213,169.1863 171.25488,169.49001 166.96803,174.81191 C 165.67172,179.37814 166.2261,184.86949 162.34479,188.32581 C 156.22478,194.03877 149.05957,199.32552 140.64262,200.87042 C 136.12364,201.77467 131.61386,202.96274 126.98604,203.09557 C 119.8118,203.10175 113.88857,198.06256 106.86681,197.35245 C 102.1718,197.46626 97.727066,199.58681 92.987656,199.33273 C 85.803513,199.34038 79.249786,195.12253 71.993698,195.99988 C 67.252121,196.67065 62.674057,195.22469 58.714066,192.68384 C 62.971191,192.9145 67.313461,192.804 71.418793,191.53435 C 76.033875,190.25143 80.600159,187.66969 85.541245,188.6093 C 92.727173,189.89543 99.64801,192.32387 106.57709,194.57095 C 113.68987,196.84833 120.77217,200.1985 128.42558,199.70493 C 134.91744,199.21286 142.02719,199.51642 147.64319,195.68074 C 152.32402,192.65167 157.07054,188.64166 158.01675,182.81734 C 159.98086,174.59276 155.30193,166.79916 149.9133,161.00922 C 146.1535,162.16864 142.57623,163.88641 138.71642,164.7384 C 140.73424,160.80226 146.22746,157.69243 144.43176,152.67253 C 140.93169,149.63228 135.89288,148.34923 131.39497,149.61101 C 126.34558,150.87022 121.21774,151.89436 116.32568,153.70471 C 113.65071,153.84311 111.15201,152.05901 108.76184,150.9803 C 108.36476,147.04068 108.57161,143.05771 108.00458,139.13652 C 107.89211,137.45404 106.15961,136.71246 104.91922,135.95163 C 102.13057,134.53928 99.166611,133.25244 96.025909,132.96066 C 92.118088,134.11212 88.965454,136.90855 85.494324,138.94388 C 82.816055,138.10673 80.736099,136.08313 78.567993,134.39516 C 74.213882,130.58504 69.975204,126.3792 67.323822,121.17183 C 69.623993,120.50363 72.562134,120.20055 73.63147,117.68402 C 76.954239,111.75484 75.306122,104.7518 75.495422,98.301086 C 75.709503,91.334229 75.28923,84.286453 76.603821,77.403458 C 77.903275,71.505768 79.933624,65.710251 83.112335,60.550354 C 86.917023,59.166306 90.511459,57.229797 93.616043,54.614944 C 97.990143,50.973083 103.15373,48.475525 108.34836,46.239059 C 112.32782,44.453156 116.77255,44.695999 121.02733,44.498703 C 127.75412,44.275146 134.44627,43.510696 141.15688,43.049149 C 145.62102,42.718903 149.62677,45.221695 154.01804,45.505569 C 157.96408,45.911316 162.23651,45.065979 165.84564,47.131638 C 170.10834,49.309555 174.73142,51.900467 179.6855,51.189713 C 183.52029,49.283234 187.07237,46.828827 190.94406,44.966003 C 192.94395,44.138748 193.71765,42.037109 194.6645,40.270569 z "
       style="opacity:1;fill:none;stroke:#8fb80f;stroke-width:0.1;stroke-linecap:butt;stroke-linejoin:miter;stroke-miterlimit:10"
       id="path26" />
    <path
       d="M 194.6645,40.270569 C 200.2654,42.76622 205.51729,46.105682 210.5061,49.654709 C 207.2209,54.854446 208.04794,61.280579 206.08983,66.924423 C 204.21408,73.190659 200.28203,78.493423 197.38127,84.273285 C 195.76382,87.135849 196.97858,90.398071 197.60619,93.350433 L 197.77107,94.145966 C 194.45756,95.163376 190.70052,93.458389 189.77155,90.018509 C 191.50667,81.803909 195.66701,74.355469 200.75864,67.76442 C 203.68337,64.140106 203.37817,59.175003 202.46112,54.890472 C 202.00925,53.09433 201.45308,50.96434 199.61009,50.114059 C 197.49593,49.020599 195.23654,50.468094 193.30815,51.302551 C 187.94618,54.208237 182.15913,56.440277 177.42744,60.383759 C 171.75323,65.078125 164.05695,65.985764 156.94933,65.795395 C 149.14952,65.874283 143.09049,58.983963 135.1506,59.890945 C 129.06062,60.458008 121.9428,60.732544 117.64511,65.740555 C 115.55159,67.755478 117.36458,70.56102 118.31828,72.653625 C 120.64401,76.733261 121.88915,81.269653 123.58185,85.616196 C 126.11151,85.082382 128.59917,83.922836 131.24165,84.425339 C 131.52002,87.370789 130.99748,90.645355 132.8123,93.21611 C 135.67368,97.835281 141.01575,99.781311 145.83543,101.64542 C 141.82834,103.16023 139.01592,107.22806 139.28902,111.54134 C 146.21767,113.70955 152.88275,116.59869 159.465,119.64529 C 161.45784,120.3573 162.30856,122.71397 161.53868,124.61926 C 160.23927,127.24899 158.11125,129.36774 156.83843,132.01584 C 157.68312,135.07411 160.92975,137.00719 163.96909,137.12411 C 167.30522,136.50311 170.28284,134.74548 173.51273,133.7634 C 176.4816,132.69664 179.76935,132.25479 182.36792,130.34863 C 186.39806,127.10161 190.17154,123.17366 191.69296,118.09366 C 201.03984,123.32004 209.86845,130.29387 215.28687,139.70103 C 217.17848,143.22559 219.19038,147.00682 218.9108,151.14038 C 211.44177,148.46452 204.98213,142.97383 201.09911,136.05629 C 198.35461,138.5049 195.45949,140.85666 191.86842,141.92886 C 188.2417,142.7802 187.00955,146.58517 185.57568,149.56227 C 183.32202,153.72092 185.89682,158.92186 183.00147,162.84947 C 179.63213,169.1863 171.25488,169.49001 166.96803,174.81191 C 165.67172,179.37814 166.2261,184.86949 162.34479,188.32581 C 156.22478,194.03877 149.05957,199.32552 140.64262,200.87042 C 136.12364,201.77467 131.61386,202.96274 126.98604,203.09557 C 119.8118,203.10175 113.88857,198.06256 106.86681,197.35245 C 102.1718,197.46626 97.727066,199.58681 92.987656,199.33273 C 85.803513,199.34038 79.249786,195.12253 71.993698,195.99988 C 67.252121,196.67065 62.674057,195.22469 58.714066,192.68384 C 62.971191,192.9145 67.313461,192.804 71.418793,191.53435 C 76.033875,190.25143 80.600159,187.66969 85.541245,188.6093 C 92.727173,189.89543 99.64801,192.32387 106.57709,194.57095 C 113.68987,196.84833 120.77217,200.1985 128.42558,199.70493 C 134.91744,199.21286 142.02719,199.51642 147.64319,195.68074 C 152.32402,192.65167 157.07054,188.64166 158.01675,182.81734 C 159.98086,174.59276 155.30193,166.79916 149.9133,161.00922 C 146.1535,162.16864 142.57623,163.88641 138.71642,164.7384 C 140.73424,160.80226 146.22746,157.69243 144.43176,152.67253 C 140.93169,149.63228 135.89288,148.34923 131.39497,149.61101 C 126.34558,150.87022 121.21774,151.89436 116.32568,153.70471 C 113.65071,153.84311 111.15201,152.05901 108.76184,150.9803 C 108.36476,147.04068 108.57161,143.05771 108.00458,139.13652 C 107.89211,137.45404 106.15961,136.71246 104.91922,135.95163 C 102.13057,134.53928 99.166611,133.25244 96.025909,132.96066 C 92.118088,134.11212 88.965454,136.90855 85.494324,138.94388 C 82.816055,138.10673 80.736099,136.08313 78.567993,134.39516 C 74.213882,130.58504 69.975204,126.3792 67.323822,121.17183 C 69.623993,120.50363 72.562134,120.20055 73.63147,117.68402 C 76.954239,111.75484 75.306122,104.7518 75.495422,98.301086 C 75.709503,91.334229 75.28923,84.286453 76.603821,77.403458 C 77.903275,71.505768 79.933624,65.710251 83.112335,60.550354 C 86.917023,59.166306 90.511459,57.229797 93.616043,54.614944 C 97.990143,50.973083 103.15373,48.475525 108.34836,46.239059 C 112.32782,44.453156 116.77255,44.695999 121.02733,44.498703 C 127.75412,44.275146 134.44627,43.510696 141.15688,43.049149 C 145.62102,42.718903 149.62677,45.221695 154.01804,45.505569 C 157.96408,45.911316 162.23651,45.065979 165.84564,47.131638 C 170.10834,49.309555 174.73142,51.900467 179.6855,51.189713 C 183.52029,49.283234 187.07237,46.828827 190.94406,44.966003 C 192.94395,44.138748 193.71765,42.037109 194.6645,40.270569 z "
       style="opacity:1;fill:#8fb80f;fill-rule:nonzero;stroke:none"
       id="path28" />
    <path
       d="M 193.30815,51.302551 C 195.23654,50.468094 197.49593,49.020599 199.61009,50.114059 C 201.45308,50.96434 202.00925,53.09433 202.46112,54.890472 C 203.37817,59.175003 203.68337,64.140106 200.75864,67.76442 C 195.66701,74.355469 191.50667,81.803909 189.77155,90.018509 C 182.50316,83.154633 173.12617,79.114777 163.63042,76.380875 C 154.58742,73.980667 144.11369,73.810989 136.04096,79.135056 C 134.0011,80.322845 133.15556,82.620605 131.84544,84.453644 L 131.24165,84.425339 C 128.59917,83.922836 126.11151,85.082382 123.58185,85.616196 C 121.88915,81.269653 120.64401,76.733261 118.31828,72.653625 C 117.36458,70.56102 115.55159,67.755478 117.64511,65.740555 C 121.9428,60.732544 129.06062,60.458008 135.1506,59.890945 C 143.09049,58.983963 149.14952,65.874283 156.94933,65.795395 C 164.05695,65.985764 171.75323,65.078125 177.42744,60.383759 C 182.15913,56.440277 187.94618,54.208237 193.30815,51.302551 z "
       style="opacity:1;fill:none;stroke:#6ea107;stroke-width:0.1;stroke-linecap:butt;stroke-linejoin:miter;stroke-miterlimit:10"
       id="path30" />
    <path
       d="M 193.30815,51.302551 C 195.23654,50.468094 197.49593,49.020599 199.61009,50.114059 C 201.45308,50.96434 202.00925,53.09433 202.46112,54.890472 C 203.37817,59.175003 203.68337,64.140106 200.75864,67.76442 C 195.66701,74.355469 191.50667,81.803909 189.77155,90.018509 C 182.50316,83.154633 173.12617,79.114777 163.63042,76.380875 C 154.58742,73.980667 144.11369,73.810989 136.04096,79.135056 C 134.0011,80.322845 133.15556,82.620605 131.84544,84.453644 L 131.24165,84.425339 C 128.59917,83.922836 126.11151,85.082382 123.58185,85.616196 C 121.88915,81.269653 120.64401,76.733261 118.31828,72.653625 C 117.36458,70.56102 115.55159,67.755478 117.64511,65.740555 C 121.9428,60.732544 129.06062,60.458008 135.1506,59.890945 C 143.09049,58.983963 149.14952,65.874283 156.94933,65.795395 C 164.05695,65.985764 171.75323,65.078125 177.42744,60.383759 C 182.15913,56.440277 187.94618,54.208237 193.30815,51.302551 z "
       style="opacity:1;fill:#6ea107;fill-rule:nonzero;stroke:none"
       id="path32" />
    <path
       d="M 206.08983,66.924423 C 208.04794,61.280579 207.2209,54.854446 210.5061,49.654709 C 213.76955,51.764709 218.6467,54.328003 217.97967,58.942215 C 215.89674,66.6772 210.61827,72.973404 206.8297,79.903702 C 203.81841,84.411697 201.8477,89.797546 197.60619,93.350433 C 196.97858,90.398071 195.76382,87.135849 197.38127,84.273285 C 200.28203,78.493423 204.21408,73.190659 206.08983,66.924423 z "
       style="opacity:1;fill:none;stroke:#99e111;stroke-width:0.1;stroke-linecap:butt;stroke-linejoin:miter;stroke-miterlimit:10"
       id="path34" />
    <path
       d="M 206.08983,66.924423 C 208.04794,61.280579 207.2209,54.854446 210.5061,49.654709 C 213.76955,51.764709 218.6467,54.328003 217.97967,58.942215 C 215.89674,66.6772 210.61827,72.973404 206.8297,79.903702 C 203.81841,84.411697 201.8477,89.797546 197.60619,93.350433 C 196.97858,90.398071 195.76382,87.135849 197.38127,84.273285 C 200.28203,78.493423 204.21408,73.190659 206.08983,66.924423 z "
       style="opacity:1;fill:#99e111;fill-rule:nonzero;stroke:none"
       id="path36" />
    <path
       d="M 243.11986,53.844833 C 245.72366,58.529205 248.31763,64.057541 246.72095,69.503876 C 245.46439,75.084595 243.22946,80.385864 240.54988,85.422729 C 235.99239,94.934128 230.53845,103.97148 225.51593,113.23613 C 223.79482,111.24658 222.02658,109.25609 220.76419,106.93469 C 221.77704,103.81755 223.69724,101.11598 225.33348,98.308136 C 229.73052,90.854965 233.7117,83.16568 237.53522,75.405045 C 240.97252,68.743912 243.86314,61.502609 243.11986,53.844833 z "
       style="opacity:1;fill:none;stroke:#9c9c9c;stroke-width:0.1;stroke-linecap:butt;stroke-linejoin:miter;stroke-miterlimit:10"
       id="path38" />
    <path
       d="M 243.11986,53.844833 C 245.72366,58.529205 248.31763,64.057541 246.72095,69.503876 C 245.46439,75.084595 243.22946,80.385864 240.54988,85.422729 C 235.99239,94.934128 230.53845,103.97148 225.51593,113.23613 C 223.79482,111.24658 222.02658,109.25609 220.76419,106.93469 C 221.77704,103.81755 223.69724,101.11598 225.33348,98.308136 C 229.73052,90.854965 233.7117,83.16568 237.53522,75.405045 C 240.97252,68.743912 243.86314,61.502609 243.11986,53.844833 z "
       style="opacity:1;fill:#9c9c9c;fill-rule:nonzero;stroke:none"
       id="path40" />
    <path
       d="M 59.027542,74.202194 C 66.789246,71.801453 69.790268,63.531769 76.508163,59.611771 C 76.927429,60.21257 77.377197,60.790833 77.857483,61.346527 C 79.640366,61.437119 81.370758,60.84993 83.112335,60.550354 C 79.933624,65.710251 77.903275,71.505768 76.603821,77.403458 C 75.28923,84.286453 75.709503,91.334229 75.495422,98.301086 C 75.306122,104.7518 76.954239,111.75484 73.63147,117.68402 C 72.562134,120.20055 69.623993,120.50363 67.323822,121.17183 C 57.885666,107.92641 53.364914,90.402985 58.385345,74.568634 L 59.027542,74.202194 z "
       style="opacity:1;fill:none;stroke:#99e111;stroke-width:0.1;stroke-linecap:butt;stroke-linejoin:miter;stroke-miterlimit:10"
       id="path42" />
    <path
       d="M 59.027542,74.202194 C 66.789246,71.801453 69.790268,63.531769 76.508163,59.611771 C 76.927429,60.21257 77.377197,60.790833 77.857483,61.346527 C 79.640366,61.437119 81.370758,60.84993 83.112335,60.550354 C 79.933624,65.710251 77.903275,71.505768 76.603821,77.403458 C 75.28923,84.286453 75.709503,91.334229 75.495422,98.301086 C 75.306122,104.7518 76.954239,111.75484 73.63147,117.68402 C 72.562134,120.20055 69.623993,120.50363 67.323822,121.17183 C 57.885666,107.92641 53.364914,90.402985 58.385345,74.568634 L 59.027542,74.202194 z "
       style="opacity:1;fill:#99e111;fill-rule:nonzero;stroke:none"
       id="path44" />
    <path
       d="M 139.28902,111.54134 C 139.01592,107.22806 141.82834,103.16023 145.83543,101.64542 C 147.98039,102.22687 150.34435,102.6501 152.12094,104.06302 C 152.51169,106.6152 151.9567,109.90588 154.40601,111.5889 C 157.71091,114.14325 161.80977,115.36987 165.22391,117.76447 C 167.67587,119.27551 169.953,121.51062 173.00069,121.61618 C 177.05167,121.86658 181.19716,122.05374 185.19792,121.23817 C 186.28485,119.67079 186.99718,117.88603 187.78035,116.15744 C 189.15691,116.63591 190.46515,117.29926 191.69296,118.09366 C 190.17154,123.17366 186.39806,127.10161 182.36792,130.34863 C 179.76935,132.25479 176.4816,132.69664 173.51273,133.7634 C 170.28284,134.74548 167.30522,136.50311 163.96909,137.12411 C 160.92975,137.00719 157.68312,135.07411 156.83843,132.01584 C 158.11125,129.36774 160.23927,127.24899 161.53868,124.61926 C 162.30856,122.71397 161.45784,120.3573 159.465,119.64529 C 152.88275,116.59869 146.21767,113.70955 139.28902,111.54134 z "
       style="opacity:1;fill:none;stroke:#97c233;stroke-width:0.1;stroke-linecap:butt;stroke-linejoin:miter;stroke-miterlimit:10"
       id="path46" />
    <path
       d="M 139.28902,111.54134 C 139.01592,107.22806 141.82834,103.16023 145.83543,101.64542 C 147.98039,102.22687 150.34435,102.6501 152.12094,104.06302 C 152.51169,106.6152 151.9567,109.90588 154.40601,111.5889 C 157.71091,114.14325 161.80977,115.36987 165.22391,117.76447 C 167.67587,119.27551 169.953,121.51062 173.00069,121.61618 C 177.05167,121.86658 181.19716,122.05374 185.19792,121.23817 C 186.28485,119.67079 186.99718,117.88603 187.78035,116.15744 C 189.15691,116.63591 190.46515,117.29926 191.69296,118.09366 C 190.17154,123.17366 186.39806,127.10161 182.36792,130.34863 C 179.76935,132.25479 176.4816,132.69664 173.51273,133.7634 C 170.28284,134.74548 167.30522,136.50311 163.96909,137.12411 C 160.92975,137.00719 157.68312,135.07411 156.83843,132.01584 C 158.11125,129.36774 160.23927,127.24899 161.53868,124.61926 C 162.30856,122.71397 161.45784,120.3573 159.465,119.64529 C 152.88275,116.59869 146.21767,113.70955 139.28902,111.54134 z "
       style="opacity:1;fill:#97c233;fill-rule:nonzero;stroke:none"
       id="path48" />
    <path
       d="M 152.12094,104.06302 C 154.26984,104.24834 156.35121,104.85106 158.41118,105.46768 C 168.3936,108.44653 178.35378,111.68561 187.78035,116.15744 C 186.99718,117.88603 186.28485,119.67079 185.19792,121.23817 C 181.19716,122.05374 177.05167,121.86658 173.00069,121.61618 C 169.953,121.51062 167.67587,119.27551 165.22391,117.76447 C 161.80977,115.36987 157.71091,114.14325 154.40601,111.5889 C 151.9567,109.90588 152.51169,106.6152 152.12094,104.06302 z "
       style="opacity:1;fill:none;stroke:#b3d959;stroke-width:0.1;stroke-linecap:butt;stroke-linejoin:miter;stroke-miterlimit:10"
       id="path50" />
    <path
       d="M 152.12094,104.06302 C 154.26984,104.24834 156.35121,104.85106 158.41118,105.46768 C 168.3936,108.44653 178.35378,111.68561 187.78035,116.15744 C 186.99718,117.88603 186.28485,119.67079 185.19792,121.23817 C 181.19716,122.05374 177.05167,121.86658 173.00069,121.61618 C 169.953,121.51062 167.67587,119.27551 165.22391,117.76447 C 161.80977,115.36987 157.71091,114.14325 154.40601,111.5889 C 151.9567,109.90588 152.51169,106.6152 152.12094,104.06302 z "
       style="opacity:1;fill:#b3d959;fill-rule:nonzero;stroke:none"
       id="path52" />
    <path
       d="M 85.494324,138.94388 C 88.965454,136.90855 92.118088,134.11212 96.025909,132.96066 C 99.166611,133.25244 102.13057,134.53928 104.91922,135.95163 C 106.15961,136.71246 107.89211,137.45404 108.00458,139.13652 C 108.57161,143.05771 108.36476,147.04068 108.76184,150.9803 C 104.05402,149.26772 99.565567,147.01802 95.069519,144.82536 C 91.728973,143.13385 88.217316,141.58664 85.494324,138.94388 z "
       style="opacity:1;fill:none;stroke:#6ea107;stroke-width:0.1;stroke-linecap:butt;stroke-linejoin:miter;stroke-miterlimit:10"
       id="path54" />
    <path
       d="M 85.494324,138.94388 C 88.965454,136.90855 92.118088,134.11212 96.025909,132.96066 C 99.166611,133.25244 102.13057,134.53928 104.91922,135.95163 C 106.15961,136.71246 107.89211,137.45404 108.00458,139.13652 C 108.57161,143.05771 108.36476,147.04068 108.76184,150.9803 C 104.05402,149.26772 99.565567,147.01802 95.069519,144.82536 C 91.728973,143.13385 88.217316,141.58664 85.494324,138.94388 z "
       style="opacity:1;fill:#6ea107;fill-rule:nonzero;stroke:none"
       id="path56" />
    <path
       d="M 191.86842,141.92886 C 195.45949,140.85666 198.35461,138.5049 201.09911,136.05629 C 204.98213,142.97383 211.44177,148.46452 218.9108,151.14038 L 219.66815,151.4622 C 220.97429,155.60962 221.09947,160.04175 221.0408,164.35906 C 214.80469,161.95396 209.33756,157.79822 202.87543,155.98508 C 199.33177,154.9791 198.70995,159.48445 197.72108,161.81673 C 196.39977,167.14824 192.21643,170.87842 189.08479,175.15033 C 187.14767,177.84235 184.57221,179.99011 182.623,182.66656 C 181.27286,186.4465 182.31726,191.13417 179.2231,194.20081 C 175.57904,198.25212 172.14371,203.2055 166.52393,204.55158 C 158.76962,206.57526 151.12596,209.65839 143.00591,209.69318 C 141.1751,209.86676 139.20146,209.63518 137.50176,210.44669 C 134.36671,212.69501 132.03656,216.38405 127.93987,216.99683 C 121.99223,218.80508 116.97565,213.35544 111.0806,214.01033 C 107.44733,214.2412 103.67438,215.0769 100.15965,213.67766 C 94.884583,211.69035 89.26236,211.10742 83.720337,210.34027 C 78.624451,209.71298 73.683533,212.87144 68.60318,211.3065 C 63.032333,209.69716 57.746384,207.23013 52.142258,205.70706 C 49.419601,204.31404 48.189743,200.35742 49.7845,197.68675 C 51.148102,195.3743 52.750107,193.17485 54.669861,191.29353 C 56.021469,191.74205 57.370544,192.20221 58.714066,192.68384 C 62.674057,195.22469 67.252121,196.67065 71.993698,195.99988 C 79.249786,195.12253 85.803513,199.34038 92.987656,199.33273 C 97.727066,199.58681 102.1718,197.46626 106.86681,197.35245 C 113.88857,198.06256 119.8118,203.10175 126.98604,203.09557 C 131.61386,202.96274 136.12364,201.77467 140.64262,200.87042 C 149.05957,199.32552 156.22478,194.03877 162.34479,188.32581 C 166.2261,184.86949 165.67172,179.37814 166.96803,174.81191 C 171.25488,169.49001 179.63213,169.1863 183.00147,162.84947 C 185.89682,158.92186 183.32202,153.72092 185.57568,149.56227 C 187.00955,146.58517 188.2417,142.7802 191.86842,141.92886 z "
       style="opacity:1;fill:none;stroke:#6ea107;stroke-width:0.1;stroke-linecap:butt;stroke-linejoin:miter;stroke-miterlimit:10"
       id="path58" />
    <path
       d="M 191.86842,141.92886 C 195.45949,140.85666 198.35461,138.5049 201.09911,136.05629 C 204.98213,142.97383 211.44177,148.46452 218.9108,151.14038 L 219.66815,151.4622 C 220.97429,155.60962 221.09947,160.04175 221.0408,164.35906 C 214.80469,161.95396 209.33756,157.79822 202.87543,155.98508 C 199.33177,154.9791 198.70995,159.48445 197.72108,161.81673 C 196.39977,167.14824 192.21643,170.87842 189.08479,175.15033 C 187.14767,177.84235 184.57221,179.99011 182.623,182.66656 C 181.27286,186.4465 182.31726,191.13417 179.2231,194.20081 C 175.57904,198.25212 172.14371,203.2055 166.52393,204.55158 C 158.76962,206.57526 151.12596,209.65839 143.00591,209.69318 C 141.1751,209.86676 139.20146,209.63518 137.50176,210.44669 C 134.36671,212.69501 132.03656,216.38405 127.93987,216.99683 C 121.99223,218.80508 116.97565,213.35544 111.0806,214.01033 C 107.44733,214.2412 103.67438,215.0769 100.15965,213.67766 C 94.884583,211.69035 89.26236,211.10742 83.720337,210.34027 C 78.624451,209.71298 73.683533,212.87144 68.60318,211.3065 C 63.032333,209.69716 57.746384,207.23013 52.142258,205.70706 C 49.419601,204.31404 48.189743,200.35742 49.7845,197.68675 C 51.148102,195.3743 52.750107,193.17485 54.669861,191.29353 C 56.021469,191.74205 57.370544,192.20221 58.714066,192.68384 C 62.674057,195.22469 67.252121,196.67065 71.993698,195.99988 C 79.249786,195.12253 85.803513,199.34038 92.987656,199.33273 C 97.727066,199.58681 102.1718,197.46626 106.86681,197.35245 C 113.88857,198.06256 119.8118,203.10175 126.98604,203.09557 C 131.61386,202.96274 136.12364,201.77467 140.64262,200.87042 C 149.05957,199.32552 156.22478,194.03877 162.34479,188.32581 C 166.2261,184.86949 165.67172,179.37814 166.96803,174.81191 C 171.25488,169.49001 179.63213,169.1863 183.00147,162.84947 C 185.89682,158.92186 183.32202,153.72092 185.57568,149.56227 C 187.00955,146.58517 188.2417,142.7802 191.86842,141.92886 z "
       style="opacity:1;fill:#6ea107;fill-rule:nonzero;stroke:none"
       id="path60" />
    <path
       d="M 116.32568,153.70471 C 121.21774,151.89436 126.34558,150.87022 131.39497,149.61101 C 135.89288,148.34923 140.93169,149.63228 144.43176,152.67253 C 146.22746,157.69243 140.73424,160.80226 138.71642,164.7384 C 134.93431,162.20692 131.01424,159.83975 126.70749,158.30502 C 123.23335,156.81772 119.29125,156.18582 116.32568,153.70471 z "
       style="opacity:1;fill:none;stroke:#6ea107;stroke-width:0.1;stroke-linecap:butt;stroke-linejoin:miter;stroke-miterlimit:10"
       id="path62" />
    <path
       d="M 116.32568,153.70471 C 121.21774,151.89436 126.34558,150.87022 131.39497,149.61101 C 135.89288,148.34923 140.93169,149.63228 144.43176,152.67253 C 146.22746,157.69243 140.73424,160.80226 138.71642,164.7384 C 134.93431,162.20692 131.01424,159.83975 126.70749,158.30502 C 123.23335,156.81772 119.29125,156.18582 116.32568,153.70471 z "
       style="opacity:1;fill:#6ea107;fill-rule:nonzero;stroke:none"
       id="path64" />
    <path
       d="M 243.61429,149.21275 C 245.20575,149.84915 245.46745,151.72369 246.0085,153.13773 C 249.75833,165.94386 250.65633,179.67319 248.03976,192.7895 C 245.02502,210.66281 236.7545,227.95712 223.39922,240.39449 C 213.24934,249.47307 200.79907,255.59149 188.09802,260.23329 C 166.85777,266.93994 144.12683,269.29065 122.02945,266.23343 C 102.53255,263.77579 83.436691,257.99014 65.799088,249.33284 C 58.398682,245.70798 51.546585,241.03825 45.184753,235.81899 C 41.540619,232.42661 37.355652,228.80367 36.225998,223.73727 C 51.587006,238.62833 71.788254,247.18655 92.112579,252.9118 C 112.03354,258.80106 133.07027,260.41907 153.71921,258.49846 C 173.44222,256.37492 193.10204,250.75111 209.79428,239.79059 C 221.89304,231.58527 231.89737,220.11137 237.56966,206.57417 C 245.66089,188.71071 247.34416,168.37506 243.61429,149.21275 z "
       style="opacity:1;fill:none;stroke:#9c9c9c;stroke-width:0.1;stroke-linecap:butt;stroke-linejoin:miter;stroke-miterlimit:10"
       id="path66" />
    <path
       d="M 243.61429,149.21275 C 245.20575,149.84915 245.46745,151.72369 246.0085,153.13773 C 249.75833,165.94386 250.65633,179.67319 248.03976,192.7895 C 245.02502,210.66281 236.7545,227.95712 223.39922,240.39449 C 213.24934,249.47307 200.79907,255.59149 188.09802,260.23329 C 166.85777,266.93994 144.12683,269.29065 122.02945,266.23343 C 102.53255,263.77579 83.436691,257.99014 65.799088,249.33284 C 58.398682,245.70798 51.546585,241.03825 45.184753,235.81899 C 41.540619,232.42661 37.355652,228.80367 36.225998,223.73727 C 51.587006,238.62833 71.788254,247.18655 92.112579,252.9118 C 112.03354,258.80106 133.07027,260.41907 153.71921,258.49846 C 173.44222,256.37492 193.10204,250.75111 209.79428,239.79059 C 221.89304,231.58527 231.89737,220.11137 237.56966,206.57417 C 245.66089,188.71071 247.34416,168.37506 243.61429,149.21275 z "
       style="opacity:1;fill:#9c9c9c;fill-rule:nonzero;stroke:none"
       id="path68" />
    <path
       d="M 197.72108,161.81673 C 198.70995,159.48445 199.33177,154.9791 202.87543,155.98508 C 209.33756,157.79822 214.80469,161.95396 221.0408,164.35906 C 222.506,178.17747 220.97038,193.16147 212.82118,204.8515 C 205.01819,215.81323 192.92618,222.43584 181.05205,228.10335 C 170.35347,232.92163 158.6004,234.73415 146.95485,235.21327 C 116.25482,236.97603 85.622406,227.46374 59.669861,211.37851 C 56.977448,209.75397 54.204483,208.13235 52.142258,205.70706 C 57.746384,207.23013 63.032333,209.69716 68.60318,211.3065 C 73.683533,212.87144 78.624451,209.71298 83.720337,210.34027 C 89.26236,211.10742 94.884583,211.69035 100.15965,213.67766 C 103.67438,215.0769 107.44733,214.2412 111.0806,214.01033 C 116.97565,213.35544 121.99223,218.80508 127.93987,216.99683 C 132.03656,216.38405 134.36671,212.69501 137.50176,210.44669 C 139.20146,209.63518 141.1751,209.86676 143.00591,209.69318 C 151.12596,209.65839 158.76962,206.57526 166.52393,204.55158 C 172.14371,203.2055 175.57904,198.25212 179.2231,194.20081 C 182.31726,191.13417 181.27286,186.4465 182.623,182.66656 C 184.57221,179.99011 187.14767,177.84235 189.08479,175.15033 C 192.21643,170.87842 196.39977,167.14824 197.72108,161.81673 z "
       style="opacity:1;fill:none;stroke:#4c7f00;stroke-width:0.1;stroke-linecap:butt;stroke-linejoin:miter;stroke-miterlimit:10"
       id="path70" />
    <path
       d="M 197.72108,161.81673 C 198.70995,159.48445 199.33177,154.9791 202.87543,155.98508 C 209.33756,157.79822 214.80469,161.95396 221.0408,164.35906 C 222.506,178.17747 220.97038,193.16147 212.82118,204.8515 C 205.01819,215.81323 192.92618,222.43584 181.05205,228.10335 C 170.35347,232.92163 158.6004,234.73415 146.95485,235.21327 C 116.25482,236.97603 85.622406,227.46374 59.669861,211.37851 C 56.977448,209.75397 54.204483,208.13235 52.142258,205.70706 C 57.746384,207.23013 63.032333,209.69716 68.60318,211.3065 C 73.683533,212.87144 78.624451,209.71298 83.720337,210.34027 C 89.26236,211.10742 94.884583,211.69035 100.15965,213.67766 C 103.67438,215.0769 107.44733,214.2412 111.0806,214.01033 C 116.97565,213.35544 121.99223,218.80508 127.93987,216.99683 C 132.03656,216.38405 134.36671,212.69501 137.50176,210.44669 C 139.20146,209.63518 141.1751,209.86676 143.00591,209.69318 C 151.12596,209.65839 158.76962,206.57526 166.52393,204.55158 C 172.14371,203.2055 175.57904,198.25212 179.2231,194.20081 C 182.31726,191.13417 181.27286,186.4465 182.623,182.66656 C 184.57221,179.99011 187.14767,177.84235 189.08479,175.15033 C 192.21643,170.87842 196.39977,167.14824 197.72108,161.81673 z "
       style="opacity:1;fill:#4c7f00;fill-rule:nonzero;stroke:none"
       id="path72" />
    <path
       d="M 138.71642,164.7384 C 142.57623,163.88641 146.1535,162.16864 149.9133,161.00922 C 155.30193,166.79916 159.98086,174.59276 158.01675,182.81734 C 157.07054,188.64166 152.32402,192.65167 147.64319,195.68074 C 142.02719,199.51642 134.91744,199.21286 128.42558,199.70493 C 120.77217,200.1985 113.68987,196.84833 106.57709,194.57095 C 99.64801,192.32387 92.727173,189.89543 85.541245,188.6093 C 80.600159,187.66969 76.033875,190.25143 71.418793,191.53435 C 67.313461,192.804 62.971191,192.9145 58.714066,192.68384 C 57.370544,192.20221 56.021469,191.74205 54.669861,191.29353 C 55.404892,189.59897 56.17067,187.91098 57.149353,186.34375 L 57.795807,186.3492 C 61.233231,186.77103 64.869186,186.74103 67.919022,184.8712 C 73.814072,181.48146 80.000366,178.29234 84.780121,173.34802 L 85.269897,172.9361 C 99.099167,180.65105 113.69461,188.91374 129.99103,188.97322 C 136.29945,189.07556 142.52181,184.37903 143.39711,177.99747 C 144.26267,173.06378 141.7735,168.40668 138.71642,164.7384 z "
       style="opacity:1;fill:none;stroke:#97c233;stroke-width:0.1;stroke-linecap:butt;stroke-linejoin:miter;stroke-miterlimit:10"
       id="path74" />
    <path
       d="M 138.71642,164.7384 C 142.57623,163.88641 146.1535,162.16864 149.9133,161.00922 C 155.30193,166.79916 159.98086,174.59276 158.01675,182.81734 C 157.07054,188.64166 152.32402,192.65167 147.64319,195.68074 C 142.02719,199.51642 134.91744,199.21286 128.42558,199.70493 C 120.77217,200.1985 113.68987,196.84833 106.57709,194.57095 C 99.64801,192.32387 92.727173,189.89543 85.541245,188.6093 C 80.600159,187.66969 76.033875,190.25143 71.418793,191.53435 C 67.313461,192.804 62.971191,192.9145 58.714066,192.68384 C 57.370544,192.20221 56.021469,191.74205 54.669861,191.29353 C 55.404892,189.59897 56.17067,187.91098 57.149353,186.34375 L 57.795807,186.3492 C 61.233231,186.77103 64.869186,186.74103 67.919022,184.8712 C 73.814072,181.48146 80.000366,178.29234 84.780121,173.34802 L 85.269897,172.9361 C 99.099167,180.65105 113.69461,188.91374 129.99103,188.97322 C 136.29945,189.07556 142.52181,184.37903 143.39711,177.99747 C 144.26267,173.06378 141.7735,168.40668 138.71642,164.7384 z "
       style="opacity:1;fill:#97c233;fill-rule:nonzero;stroke:none"
       id="path76" />
    <path
       d="M 67.3965,164.24629 C 69.628464,162.24097 72.264267,164.57747 74.172348,165.86447 C 77.568329,168.5592 81.57869,170.41191 84.780121,173.34802 C 80.000366,178.29234 73.814072,181.48146 67.919022,184.8712 C 64.869186,186.74103 61.233231,186.77103 57.795807,186.3492 C 58.883743,182.23857 61.062943,178.54123 62.57019,174.58649 C 64.073212,171.09863 65.185745,167.37473 67.3965,164.24629 z "
       style="opacity:1;fill:none;stroke:#b3d959;stroke-width:0.1;stroke-linecap:butt;stroke-linejoin:miter;stroke-miterlimit:10"
       id="path78" />
    <path
       d="M 67.3965,164.24629 C 69.628464,162.24097 72.264267,164.57747 74.172348,165.86447 C 77.568329,168.5592 81.57869,170.41191 84.780121,173.34802 C 80.000366,178.29234 73.814072,181.48146 67.919022,184.8712 C 64.869186,186.74103 61.233231,186.77103 57.795807,186.3492 C 58.883743,182.23857 61.062943,178.54123 62.57019,174.58649 C 64.073212,171.09863 65.185745,167.37473 67.3965,164.24629 z "
       style="opacity:1;fill:#b3d959;fill-rule:nonzero;stroke:none"
       id="path80" />
  </g>
</svg>
